<svg xmlns="http://www.w3.org/2000/svg" viewBox="0 0 540.24 162.88"><defs><style>.cls-1{isolation:isolate;}.cls-2{fill:#98937b;}.cls-11,.cls-13,.cls-2,.cls-9{mix-blend-mode:multiply;}.cls-3{fill:#175495;}.cls-4{fill:#fefefe;}.cls-5{fill:#eae8ed;}.cls-6{fill:#4098eb;}.cls-7{fill:#0f4885;}.cls-8{fill:#341c37;}.cls-10{fill:#ffb861;}.cls-11{fill:#d74158;opacity:0.5;}.cls-12,.cls-13{fill:#4b354d;}.cls-14{fill:#fff;}.cls-15{fill:#a1c9f4;}.cls-16{fill:#cbc7d1;}.cls-17{fill:#fa0;}.cls-18{fill:#233542;}</style></defs><g class="cls-1"><g id="Layer_2" data-name="Layer 2"><g id="Layer_1-2" data-name="Layer 1"><path class="cls-2" d="M336.88,144.7a2.86,2.86,0,0,0,2.86,2.85H537.39a2.86,2.86,0,0,0,2.85-2.85h0a2.86,2.86,0,0,0-2.85-2.86H339.74a2.86,2.86,0,0,0-2.86,2.86Z"/><path class="cls-2" d="M103.6,142.72a2,2,0,0,0,2,2H251.8a2,2,0,0,0,2-2h0a2,2,0,0,0-2-2H105.58a2,2,0,0,0-2,2Z"/><path class="cls-2" d="M182.64,159.87a3,3,0,0,0,3,3H295a3,3,0,0,0,3-3h0a3,3,0,0,0-3-3H185.66a3,3,0,0,0-3,3Z"/><path class="cls-2" d="M309.71,159.34a2.49,2.49,0,0,0,2.49,2.5H420a2.5,2.5,0,0,0,2.49-2.5h0a2.49,2.49,0,0,0-2.49-2.48H312.2a2.48,2.48,0,0,0-2.49,2.48Z"/><path class="cls-2" d="M65.82,161.38a1.5,1.5,0,0,0,1.51,1.5h69.36a1.51,1.51,0,0,0,1.51-1.5h0a1.51,1.51,0,0,0-1.51-1.51H67.33a1.5,1.5,0,0,0-1.51,1.51Z"/><path class="cls-3" d="M357.39,116.62v17.46s-52.84,9.08-83.93-17.46Z"/><path class="cls-4" d="M439.4,66.67a3.88,3.88,0,0,0,3.88,3.87h6.45a3.88,3.88,0,0,0,3.88-3.87h0a3.88,3.88,0,0,0-3.88-3.88h-6.45a3.88,3.88,0,0,0-3.88,3.88Z"/><path class="cls-4" d="M513.93,124.91c7.32,0,9.76-4.83,5.41-10.73l-29-39.44C486,68.85,476.42,64,469.1,64H50.82c-7.32,0-10.47,5.28-7,11.72L64,113.18c3.48,6.45,12.31,11.73,19.63,11.73Z"/><path class="cls-5" d="M502.24,91l17.1,23.23c4.35,5.9,1.91,10.73-5.41,10.73H83.61c-7.32,0-16.15-5.28-19.63-11.73L52,91Z"/><path class="cls-4" d="M105.91,73.73a3.61,3.61,0,0,0,1-6.14L44,3.79A14.71,14.71,0,0,0,34.93,0H14.21c-2.93,0-4.32,2.18-3.1,4.83L41.59,70.91a10.64,10.64,0,0,0,7.52,5.48l36,4.37a21.19,21.19,0,0,0,10.06-1.71Z"/><path class="cls-3" d="M513,105.51l6.38,8.67c4.35,5.9,1.91,10.73-5.41,10.73H83.61c-7.32,0-16.15-5.28-19.63-11.73l-4.13-7.67Z"/><path class="cls-6" d="M15,90.71h0c0-5.2,14.38-9.42,32.11-9.42s32.12,4.22,32.12,9.42H15Z"/><path class="cls-3" d="M0,90.71H0c0-2.42,6.7-4.39,15-4.39s15,2,15,4.39H0Z"/><path class="cls-7" d="M520,115.21c3.35,5.42.79,9.7-6.1,9.7H83.61c-6.54,0-14.27-4.21-18.32-9.7Z"/><path class="cls-8" d="M467.37,80.84H494.8l7.26,9.87H467.37a4.94,4.94,0,1,1,0-9.87Z"/><g class="cls-9"><path class="cls-5" d="M437.13,94.93v-10a6.54,6.54,0,0,1,6.54-6.54H446a6.54,6.54,0,0,1,6.54,6.54v10a6.55,6.55,0,0,1-6.54,6.55h-2.31A6.55,6.55,0,0,1,437.13,94.93Zm6.54-15.77a5.77,5.77,0,0,0-5.77,5.77v10a5.78,5.78,0,0,0,5.77,5.78H446a5.78,5.78,0,0,0,5.77-5.78v-10A5.77,5.77,0,0,0,446,79.16Z"/></g><g class="cls-9"><path class="cls-5" d="M312.09,94.93v-10a6.54,6.54,0,0,1,6.54-6.54h2.31a6.54,6.54,0,0,1,6.54,6.54v10a6.55,6.55,0,0,1-6.54,6.55h-2.31A6.55,6.55,0,0,1,312.09,94.93Zm6.54-15.77a5.77,5.77,0,0,0-5.77,5.77v10a5.78,5.78,0,0,0,5.77,5.78h2.31a5.78,5.78,0,0,0,5.77-5.78v-10a5.77,5.77,0,0,0-5.77-5.77Z"/></g><g class="cls-9"><path class="cls-5" d="M105.61,94.93v-10a6.54,6.54,0,0,1,6.54-6.54h2.31A6.55,6.55,0,0,1,121,84.93v10a6.56,6.56,0,0,1-6.54,6.55h-2.31A6.55,6.55,0,0,1,105.61,94.93Zm6.54-15.77a5.77,5.77,0,0,0-5.78,5.77v10a5.78,5.78,0,0,0,5.78,5.78h2.31a5.78,5.78,0,0,0,5.77-5.78v-10a5.77,5.77,0,0,0-5.77-5.77Z"/></g><polygon class="cls-7" points="404.35 100.5 420.64 100.5 424.01 104.02 407.87 104.02 404.35 100.5"/><path class="cls-7" d="M396.26,100.5h6.23L406,104h-6.18Z"/><path class="cls-3" d="M390.38,100.5h4c1.18,1.18,2.38,2.35,3.57,3.52H393.9Z"/><path class="cls-10" d="M344.26,100.5c1.18,1.17,2.35,2.35,3.52,3.52H342.1l-2.94-3.52Z"/><path class="cls-10" d="M346.12,100.5h42.4L392,104h-42.4C348.46,102.85,347.29,101.67,346.12,100.5Z"/><polygon class="cls-7" points="85.95 100.5 102.24 100.5 105.61 104.02 89.47 104.02 85.95 100.5"/><path class="cls-7" d="M77.86,100.5h6.23L87.62,104H81.44Z"/><path class="cls-3" d="M72,100.5h4c1.18,1.18,2.38,2.35,3.57,3.52H75.5Z"/><polygon class="cls-7" points="404.35 75.84 420.64 75.84 424.01 79.36 407.87 79.36 404.35 75.84"/><path class="cls-7" d="M396.26,75.84h6.23L406,79.36h-6.18Z"/><path class="cls-3" d="M390.38,75.84h4c1.18,1.18,2.38,2.35,3.57,3.52H393.9Z"/><path class="cls-10" d="M344.26,75.84l3.52,3.52H342.1l-2.94-3.52Z"/><path class="cls-10" d="M346.12,75.84h42.4L392,79.36h-42.4Q347.87,77.6,346.12,75.84Z"/><path class="cls-7" d="M416.14,93.67a2,2,0,0,0,1.95,2h0a2,2,0,0,0,2-2V88.23a2,2,0,0,0-2-2h0a2,2,0,0,0-1.95,2Z"/><path class="cls-7" d="M399.82,93.67a2,2,0,0,0,1.95,2h0a2,2,0,0,0,2-2V88.23a2,2,0,0,0-2-2h0a2,2,0,0,0-1.95,2Z"/><path class="cls-7" d="M383.5,93.67a2,2,0,0,0,1.95,2h0a2,2,0,0,0,1.95-2V88.23a2,2,0,0,0-1.95-2h0a2,2,0,0,0-1.95,2Z"/><path class="cls-7" d="M367.18,93.67a2,2,0,0,0,1.95,2h0a2,2,0,0,0,1.95-2V88.23a2,2,0,0,0-1.95-2h0a2,2,0,0,0-1.95,2Z"/><path class="cls-7" d="M350.86,93.67a2,2,0,0,0,1.95,2h0a2,2,0,0,0,2-2V88.23a2,2,0,0,0-2-2h0a2,2,0,0,0-1.95,2Z"/><path class="cls-7" d="M303.37,85.78a2,2,0,0,0,2,2h0a2,2,0,0,0,1.95-2V80.34a2,2,0,0,0-1.95-2h0a2,2,0,0,0-2,2Z"/><path class="cls-7" d="M287.06,85.78a2,2,0,0,0,1.95,2h0a2,2,0,0,0,1.95-2V80.34a2,2,0,0,0-1.95-2h0a2,2,0,0,0-1.95,2Z"/><path class="cls-7" d="M270.74,85.78a2,2,0,0,0,1.95,2h0a2,2,0,0,0,1.95-2V80.34a2,2,0,0,0-1.95-2h0a2,2,0,0,0-1.95,2Z"/><path class="cls-7" d="M254.42,85.78a2,2,0,0,0,2,2h0a2,2,0,0,0,1.95-2V80.34a2,2,0,0,0-1.95-2h0a2,2,0,0,0-2,2Z"/><path class="cls-7" d="M238.1,85.78a2,2,0,0,0,2,2h0a2,2,0,0,0,1.95-2V80.34a2,2,0,0,0-1.95-2h0a2,2,0,0,0-2,2Z"/><path class="cls-7" d="M219.55,85.78a2,2,0,0,0,1.95,2h0a2,2,0,0,0,2-2V80.34a2,2,0,0,0-2-2h0a2,2,0,0,0-1.95,2Z"/><path class="cls-7" d="M201,85.78a2,2,0,0,0,1.95,2h0a2,2,0,0,0,2-2V80.34a2,2,0,0,0-2-2h0a2,2,0,0,0-1.95,2Z"/><path class="cls-7" d="M182.45,85.78a2,2,0,0,0,2,2h0a2,2,0,0,0,1.95-2V80.34a2,2,0,0,0-1.95-2h0a2,2,0,0,0-2,2Z"/><path class="cls-7" d="M163.9,85.78a2,2,0,0,0,1.95,2h0a2,2,0,0,0,2-2V80.34a2,2,0,0,0-2-2h0a2,2,0,0,0-1.95,2Z"/><path class="cls-7" d="M145.35,85.78a2,2,0,0,0,2,2h0a2,2,0,0,0,1.95-2V80.34a2,2,0,0,0-1.95-2h0a2,2,0,0,0-2,2Z"/><path class="cls-7" d="M126.8,85.78a2,2,0,0,0,2,2h0a2,2,0,0,0,1.95-2V80.34a2,2,0,0,0-1.95-2h0a2,2,0,0,0-2,2Z"/><path class="cls-7" d="M295.28,116.92h16.09v23.82H295.28a11.91,11.91,0,1,1,0-23.82Z"/><path class="cls-11" d="M286.06,121.3a11.77,11.77,0,0,0-.59,3.68,11.92,11.92,0,0,0,11.91,11.91h14v3.85H295.28a11.9,11.9,0,0,1-9.22-19.44Z"/><path class="cls-5" d="M304.32,128.83c0,6.58,3.31,11.91,7.39,11.91s7.39-5.33,7.39-11.91-3.31-11.91-7.39-11.91S304.32,122.25,304.32,128.83Z"/><path class="cls-12" d="M308.8,128.39c0,5.33,2.09,9.65,4.67,9.65s4.67-4.32,4.67-9.65-2.09-9.65-4.67-9.65S308.8,123.06,308.8,128.39Z"/><path class="cls-13" d="M316.8,128.34c0-4.8-1.7-8.77-3.92-9.51a2.34,2.34,0,0,1,.59-.09c2.58,0,4.67,4.32,4.67,9.65s-2.09,9.65-4.67,9.65a2.36,2.36,0,0,1-.75-.13C315,137.31,316.8,133.26,316.8,128.34Z"/><path class="cls-7" d="M270.23,116.92h16.09v23.82H270.23a11.91,11.91,0,0,1,0-23.82Z"/><path class="cls-11" d="M261,121.3a11.77,11.77,0,0,0-.59,3.68,11.91,11.91,0,0,0,11.91,11.91h14v3.85H270.23A11.9,11.9,0,0,1,261,121.3Z"/><path class="cls-5" d="M279.26,128.83c0,6.58,3.31,11.91,7.4,11.91s7.39-5.33,7.39-11.91-3.31-11.91-7.39-11.91S279.26,122.25,279.26,128.83Z"/><path class="cls-12" d="M283.74,128.39c0,5.33,2.1,9.65,4.67,9.65s4.68-4.32,4.68-9.65-2.1-9.65-4.68-9.65S283.74,123.06,283.74,128.39Z"/><path class="cls-13" d="M291.75,128.34c0-4.8-1.7-8.77-3.92-9.51a2.33,2.33,0,0,1,.58-.09c2.58,0,4.68,4.32,4.68,9.65S291,138,288.41,138a2.35,2.35,0,0,1-.74-.13C290,137.31,291.75,133.26,291.75,128.34Z"/><path class="cls-14" d="M357.88,116.62H146.82l36.7-12.05,96.15-6.43s52.1-3.88,78.21,15.13C357.88,113.27,361,116.22,357.88,116.62Z"/><path class="cls-5" d="M227.24,116.62s-35.09-27.92-80.42,0Z"/><path class="cls-15" d="M331.5,111.13c-8.45-7-26.92-11.09-41.59-13.31,4.1,0,9.18.08,14.8.44,29.3,4.42,42,12.41,43.67,13.94,1.13,1,1.34,2.87,1.27,4.42H332.71A7.09,7.09,0,0,0,331.5,111.13Z"/><path class="cls-5" d="M301.1,116.62s1.06-3.37-2.7-6.2S271.27,98.7,271.27,98.7s22.67,8.68,27.05,12.09C298.32,110.79,300.94,112.32,301.1,116.62Z"/><path class="cls-5" d="M277.54,116.62s1.06-3.37-2.7-6.2S247.71,98.7,247.71,98.7s22.67,8.68,27,12.09C274.76,110.79,277.38,112.32,277.54,116.62Z"/><path class="cls-5" d="M254,116.62s1.06-3.37-2.7-6.2S224.15,98.7,224.15,98.7s22.67,8.68,27,12.09C251.2,110.79,253.82,112.32,254,116.62Z"/><path class="cls-7" d="M401.5,136a5.88,5.88,0,1,0,5.88-5.88A5.87,5.87,0,0,0,401.5,136Z"/><path class="cls-7" d="M386.38,136a5.88,5.88,0,1,0,5.88-5.88A5.87,5.87,0,0,0,386.38,136Z"/><polygon class="cls-7" points="408.48 131.97 402.44 128.92 402.44 124.37 396.17 124.37 396.17 129.07 390.53 131.97 408.48 131.97"/><rect class="cls-7" x="395.08" y="135.58" width="10.5" height="1.18"/><path class="cls-7" d="M156.05,136a5.88,5.88,0,1,0,5.88-5.88A5.87,5.87,0,0,0,156.05,136Z"/><path class="cls-7" d="M140.93,136a5.88,5.88,0,1,0,5.88-5.88A5.87,5.87,0,0,0,140.93,136Z"/><polygon class="cls-7" points="163.02 131.97 156.99 128.92 156.99 124.37 150.72 124.37 150.72 129.07 145.08 131.97 163.02 131.97"/><rect class="cls-7" x="149.63" y="135.58" width="10.5" height="1.18"/><path class="cls-10" d="M44.69,14.48H27.31a1.18,1.18,0,0,1,0-2.35H44.69a1.18,1.18,0,0,1,0,2.35Z"/><path class="cls-10" d="M49.15,23.87H33a1.18,1.18,0,0,1,0-2.35h16.2a1.18,1.18,0,0,1,0,2.35Z"/><path class="cls-5" d="M147.3,70.21a.78.78,0,0,0,.78.78H326.7a.78.78,0,0,0,.78-.78h0a.77.77,0,0,0-.78-.78H148.08a.77.77,0,0,0-.78.78Z"/><path class="cls-5" d="M350.86,70.6a.39.39,0,0,0,.39.39h52.08a.38.38,0,0,0,.39-.39h0a.38.38,0,0,0-.39-.39H351.25a.39.39,0,0,0-.39.39Z"/><path class="cls-5" d="M439.4,70.76a1.34,1.34,0,0,0,1.33,1.33H469a1.34,1.34,0,0,0,1.33-1.33h0A1.33,1.33,0,0,0,469,69.43H440.73a1.33,1.33,0,0,0-1.33,1.33Z"/><path class="cls-16" d="M470.32,100.09a1.39,1.39,0,0,0,1.39,1.39h21.8a1.38,1.38,0,0,0,1.38-1.39h0a1.38,1.38,0,0,0-1.38-1.39h-21.8a1.39,1.39,0,0,0-1.39,1.39Z"/><path class="cls-16" d="M161.93,96.14a1.68,1.68,0,0,0,1.67,1.68h65.07a1.68,1.68,0,0,0,1.67-1.68h0a1.67,1.67,0,0,0-1.67-1.67H163.6a1.67,1.67,0,0,0-1.67,1.67Z"/><path class="cls-16" d="M126.8,97a.84.84,0,0,0,.84.84h16.6a.84.84,0,0,0,.84-.84h0a.84.84,0,0,0-.84-.84h-16.6a.84.84,0,0,0-.84.84Z"/><path class="cls-5" d="M59.45,74a1.8,1.8,0,0,0,1.8,1.8h42.56a1.8,1.8,0,0,0,1.8-1.8h0a1.81,1.81,0,0,0-1.8-1.8H61.25a1.81,1.81,0,0,0-1.8,1.8Z"/><path class="cls-17" d="M57.09,44.88,60,53.7A10.53,10.53,0,0,0,65.84,45Z"/><path class="cls-18" d="M44.5,44.81a6.44,6.44,0,0,1,1-2.68,6.87,6.87,0,0,1,5.18-2.78,6.43,6.43,0,0,1,4.41,1.52,5.89,5.89,0,0,1,1.23,1.54l9.39.21A10.69,10.69,0,1,0,55.15,54.83a10.83,10.83,0,0,0,2.69-.34L54.67,44.9Z"/><path class="cls-17" d="M45.91,44.81q4.38,0,8.76.09l3.17,9.59a10.65,10.65,0,0,1-2.69.34,10.73,10.73,0,0,1-8-3.59,10.68,10.68,0,0,1-1.8-2.76,10,10,0,0,1-.84-3.67Z"/></g></g></g></svg>