<svg xmlns="http://www.w3.org/2000/svg" xmlns:xlink="http://www.w3.org/1999/xlink" viewBox="0 0 1740.18 721.3"><defs><style>.cls-1{fill:#126fb7;}.cls-2{isolation:isolate;}.cls-3,.cls-37,.cls-38{fill:none;}.cls-4,.cls-6{fill:#a1d3e2;}.cls-4,.cls-42{opacity:0.6;}.cls-5{fill:#6db9d1;}.cls-7{fill:#ffffe5;}.cls-8{fill:#eaf7f9;}.cls-9{fill:#fff;}.cls-10{fill:#a8dae2;}.cls-11{fill:#996355;}.cls-12{fill:#233542;}.cls-13{fill:#d1d3c7;}.cls-13,.cls-29{mix-blend-mode:multiply;}.cls-14{fill:#fa0;}.cls-15{fill:#10101e;}.cls-16,.cls-47{fill:#294175;}.cls-17{fill:#030000;}.cls-18{fill:#570000;}.cls-19{clip-path:url(#clip-path);}.cls-20{fill:#eae8ed;}.cls-21{fill:#001533;}.cls-22{fill:#00265f;}.cls-23{fill:#041937;}.cls-24{fill:#466491;}.cls-25{fill:#fcc1b1;}.cls-26{fill:#3f3a39;}.cls-27{fill:#140d0c;}.cls-28{clip-path:url(#clip-path-2);}.cls-30{fill:#3232d8;}.cls-31{fill:#a4a4f4;}.cls-32{fill:#8a8aff;}.cls-33{fill:#2222c6;}.cls-34{fill:#106299;}.cls-35{fill:#f56;}.cls-36{fill:#000402;}.cls-37{stroke:#fa0;}.cls-37,.cls-38{stroke-miterlimit:10;}.cls-38{stroke:#000;stroke-width:0.5px;}.cls-39,.cls-48{fill:#e1e0e9;}.cls-40{fill:#f1f1f4;}.cls-40,.cls-41,.cls-43,.cls-44,.cls-45,.cls-46,.cls-47,.cls-48,.cls-49{fill-rule:evenodd;}.cls-41{fill:#585548;}.cls-42{fill:#416d67;}.cls-43,.cls-59{fill:#bccfb2;}.cls-44{fill:#a3b899;}.cls-45{fill:#464b46;}.cls-46,.cls-56{fill:#192c60;}.cls-49{fill:#aab2a5;}.cls-50{fill:#e8886d;}.cls-51{fill:#4480bc;}.cls-52{fill:#508dd6;}.cls-53{fill:#ccc;}.cls-54{fill:#4681bc;}.cls-55{fill:#131f49;}.cls-57{fill:#f2c9ff;}.cls-58{fill:#e5e5e5;}.cls-60{fill:#b75f4f;}.cls-61{fill:#a05048;}.cls-62{fill:#1e1d1c;}.cls-63{fill:#290920;}.cls-64{fill:#6d2e7a;}.cls-65{fill:#e9f8ff;}</style><clipPath id="clip-path"><path class="cls-1" d="M1300.75,275.26s44.76,13.77,50.79,168.68l-52.45,9.73s-26.73-94.56-25.88-124.59,2.44-35.49,2.44-35.49l19.2-21.53Z"/></clipPath><clipPath id="clip-path-2"><path class="cls-1" d="M1153.74,294.81s18.41-1,22.61,12.66,3.22,47.07,1.09,53.8-8.93,9.72-13.45,7.62-7.45-12.75-7.45-12.75-5.9,15.62,0,26,21.39,36.6,20.7,79.71c0,0-20.74,9.35-37.85,1.14s-25.55-4.2-25.55-4.2l-5.74-53.13-7.94,51.23s-8.52.45-10.4,3.79c0,0,1.06-53.65,6.74-68.72s8.75-22,8.75-22-10.37-1.19-10.2-13.28-2-56.73,14.8-61S1128.5,294,1128.5,294l11.41,3.54,8.77-.38,3.1.66Z"/></clipPath></defs><g class="cls-2"><g id="Layer_2" data-name="Layer 2"><g id="Layer_1-2" data-name="Layer 1"><g id="Layer_3" data-name="Layer 3"><polygon class="cls-3" points="888.78 421.09 888.72 418.23 888.44 403.56 888.31 396.71 888 380.87 887.24 341.16 729.55 345.88 731.18 388.8 731.48 396.71 731.74 403.56 732.59 426.16 732.63 427.35 888.9 427.35 888.88 426.16 888.78 421.09"/><path class="cls-3" d="M721.18,211.92v-.26h-.75Z"/><polygon class="cls-3" points="887.11 334.26 886.17 285.32 885.35 243 885.24 236.94 885.19 234.66 884.98 223.33 877.22 223.23 810.22 222.34 780.18 221.94 759.02 221.66 724.84 221.2 727.61 294.5 729.09 333.58 729.29 338.99 814.36 336.44 887.11 334.26"/><path class="cls-3" d="M1047.53,225.49l-13.41-.18-3.48-.05-6-.08h-.82l-1.76,0h-.83l-1.86,0h-.83l-1.86,0h-.83l-1.74,0-.82,0-18.75-.24-37.89-.51-22.39-.3-22-.29-17.14-.23-2.87,0,0,.74,0,2.29L893.44,285l.94,49.07,153.18-4.59v-50.1h.07v-8.57h-.07V252.5h.07V241.26h-.07V231h.07v-4.14h-.07V216.62h0Z"/><polygon class="cls-3" points="1047.56 421.09 1047.56 418.23 1047.56 403.56 1047.56 396.71 1047.56 372.81 1047.56 344.27 1047.56 336.36 922.97 340.09 894.51 340.94 895.27 380.5 895.58 396.71 895.72 403.56 896.15 426.16 896.17 427.35 1047.56 427.35 1047.56 426.16 1047.56 421.09"/><polygon class="cls-3" points="782.67 212.47 783.49 212.49 806.91 212.8 877.22 213.73 884.79 213.83 884.13 179.53 884.1 177.65 882.9 115.48 848.24 115.48 847.68 115.48 846.81 115.48 845.71 115.48 844.84 115.48 840.4 115.48 838.75 115.48 835.35 115.48 833.88 115.48 832.05 115.48 831.06 115.48 828.12 115.48 827.16 115.48 821.35 115.48 800.75 115.48 799.84 115.48 799.82 115.48 798.16 115.48 796.97 115.48 796.14 115.48 794.33 115.48 793.58 115.48 792.19 115.48 789.65 115.48 720.85 115.48 722.6 161.74 724.48 211.7 747.99 212.01 782.67 212.47"/><polygon class="cls-3" points="1047.56 335.73 1047.56 335.68 1047.41 335.69 1047.56 335.73"/><polygon class="cls-4" points="884.1 177.65 884.13 179.53 884.79 213.83 892.07 213.93 891.43 180.57 891.38 177.87 890.18 115.48 882.9 115.48 884.1 177.65"/><path class="cls-4" d="M887.5,108h-4.74v.22h5.77Z"/><polygon class="cls-4" points="885.24 236.94 885.35 243 886.17 285.32 887.11 334.26 894.38 334.05 893.43 284.98 892.31 226.46 892.27 224.17 892.25 223.43 884.98 223.33 885.19 234.66 885.24 236.94"/><polygon class="cls-4" points="895.72 403.56 895.58 396.71 895.27 380.5 894.51 340.94 887.24 341.16 888 380.87 888.31 396.71 888.44 403.56 888.72 418.23 888.78 421.09 888.88 426.16 888.9 427.35 896.17 427.35 896.15 426.16 895.72 403.56"/><polygon class="cls-4" points="1047.56 139.84 1047.56 142.82 1047.56 177 1047.56 182.49 1047.56 183.18 1047.56 183.23 1047.56 185.21 1047.56 185.9 1047.56 188.02 1047.56 194.74 1047.56 196.84 1054.83 196.84 1054.83 194.74 1054.83 188.02 1054.83 185.9 1054.83 185.21 1054.83 183.18 1054.83 182.49 1054.83 177.11 1054.83 162.67 1054.83 162.58 1054.83 132.76 1054.83 115.48 1047.56 115.48 1047.56 139.84"/><rect class="cls-4" x="1047.56" y="107.98" width="7.27" height="0.23"/><polygon class="cls-4" points="1047.56 336.36 1047.56 344.27 1047.56 372.81 1047.56 396.71 1047.56 403.56 1047.56 418.23 1047.56 421.09 1047.56 426.16 1047.56 427.35 1054.83 427.35 1054.83 426.16 1054.83 421.09 1054.83 418.23 1054.83 403.56 1054.83 396.71 1054.83 372.44 1054.83 344.51 1054.83 337.9 1054.83 336.14 1049.46 336.3 1047.56 336.36"/><polygon class="cls-4" points="1054.83 212.49 1054.83 210.39 1054.83 210.39 1047.63 210.39 1047.63 210.39 1047.56 210.39 1047.56 212.49 1047.63 212.49 1047.63 215.99 1054.83 216.09 1054.83 212.49"/><polygon class="cls-4" points="1047.56 204.64 1047.56 205.33 1047.56 205.38 1047.56 207.36 1047.56 208.05 1047.56 210.18 1047.56 210.34 1054.83 210.34 1054.83 208.05 1054.83 207.36 1054.83 205.33 1054.83 204.64 1054.83 196.9 1047.56 196.9 1047.56 204.64"/><path class="cls-4" d="M1047.56,226.87h.07V231h-.07v10.25h.07V252.5h-.07v18.29h.07v8.57h-.07v50.1l7.27-.22V225.59l-7.27-.1Z"/><polygon class="cls-4" points="721.18 211.66 724.48 211.7 722.6 161.74 720.85 115.48 713.57 115.48 717.17 210.69 717.2 211.61 720.43 211.65 721.18 211.66"/><polygon class="cls-4" points="732.59 426.16 731.74 403.56 731.48 396.71 731.18 388.8 729.55 345.88 722.28 346.1 723.91 389.16 724.2 396.71 724.46 403.56 725.31 426.16 725.36 427.35 732.63 427.35 732.59 426.16"/><polygon class="cls-4" points="729.09 333.58 727.61 294.5 724.84 221.2 717.56 221.11 720.35 295 721.8 333.33 722.02 339.21 729.29 338.99 729.09 333.58"/><polygon class="cls-4" points="895.12 223.47 912.26 223.69 934.26 223.99 956.65 224.28 994.54 224.78 1013.29 225.03 1014.11 225.04 1015.85 225.07 1016.68 225.08 1018.54 225.1 1019.37 225.12 1021.23 225.14 1022.06 225.15 1023.82 225.17 1024.64 225.19 1030.64 225.26 1034.12 225.31 1047.53 225.49 1047.53 216.62 1047.56 216.62 1047.56 215.99 1030.64 215.77 1027.28 215.72 1026.46 215.71 1024.64 215.69 1024.64 215.71 1023.82 215.83 1023.82 215.68 1022.06 215.65 1021.23 215.64 1019.37 215.62 1018.54 215.61 1016.68 215.58 1015.85 215.57 1014.11 215.55 1013.29 215.54 1011.13 215.51 1010.3 215.5 994.54 215.29 981.81 215.12 939.54 214.56 929.22 214.42 917.3 214.26 917.3 214.48 915.74 214.24 914.14 214.22 912.26 214.2 892.07 213.93 892.25 223.43 895.12 223.47"/><polygon class="cls-4" points="780.18 221.94 810.22 222.34 877.22 223.23 884.98 223.33 884.79 213.83 877.22 213.73 806.91 212.8 783.49 212.49 782.67 212.47 747.99 212.01 724.48 211.7 724.84 221.2 759.02 221.66 780.18 221.94"/><path class="cls-4" d="M717.2,211.61l-5.65-.08-26.8-.36-8.72-.11-7.65-.1a46.17,46.17,0,0,1-.66,5c-.3,1.61-.66,3.1-1,4.45l50.88.71-.28-7.56Z"/><path class="cls-4" d="M1054.83,225.59l7.37.09,7,.1,14.12.18,4.39.06,76,1,23.65.32,21,.27,4.86.07c.38-1.53.76-3.06,1.14-4.62s.78-3.24,1.16-4.85l-7.16-.09-10-.13-34.68-.46-77.64-1h-1.19l-15.72-.21-7.24-.1-7.1-.09v9.5Z"/><polygon class="cls-4" points="884.98 223.33 892.25 223.43 892.07 213.93 884.79 213.83 884.98 223.33"/><polygon class="cls-4" points="884.98 223.33 892.25 223.43 892.07 213.93 884.79 213.83 884.98 223.33"/><polygon class="cls-4" points="1054.83 225.59 1054.83 216.62 1054.83 216.09 1047.63 215.99 1047.63 216.62 1047.56 216.62 1047.56 225.49 1054.83 225.59"/><polygon class="cls-4" points="1054.83 225.59 1054.83 216.62 1054.83 216.09 1047.63 215.99 1047.63 216.62 1047.56 216.62 1047.56 225.49 1054.83 225.59"/><path class="cls-4" d="M724.48,211.7l-3.3,0v.26l-.75-.27-3.23,0,.08,1.94.28,7.56,7.28.09Z"/><path class="cls-4" d="M724.48,211.7l-3.3,0v.26l-.75-.27-3.23,0,.08,1.94.28,7.56,7.28.09Z"/><path class="cls-4" d="M1054.83,336.14l20.82-.62,104.06-3.08c0-1.24.09-2.56.22-3.95.1-1,.22-2,.37-3l-125.47,3.71v6.9Z"/><polygon class="cls-4" points="887.2 338.89 887.11 334.26 814.36 336.44 729.29 338.99 729.55 345.88 887.24 341.16 887.2 338.89"/><path class="cls-4" d="M666.44,340.85c0,1.1-.07,2.21-.11,3.33s-.08,2.25-.12,3.37l56.07-1.46-.26-6.88Z"/><polygon class="cls-4" points="894.51 340.94 922.97 340.09 1047.56 336.36 1047.56 335.73 1047.41 335.69 1047.56 335.68 1047.56 329.46 894.38 334.05 894.48 339.13 894.51 340.94"/><polygon class="cls-4" points="887.2 338.89 887.24 341.16 894.51 340.94 894.48 339.13 894.38 334.05 887.11 334.26 887.2 338.89"/><polygon class="cls-4" points="887.2 338.89 887.24 341.16 894.51 340.94 894.48 339.13 894.38 334.05 887.11 334.26 887.2 338.89"/><polygon class="cls-4" points="1047.56 335.68 1047.56 335.73 1047.56 336.36 1049.46 336.3 1054.83 336.14 1054.83 335.05 1054.83 329.24 1047.56 329.46 1047.56 335.68"/><polygon class="cls-4" points="1047.56 335.68 1047.56 335.73 1047.56 336.36 1049.46 336.3 1054.83 336.14 1054.83 335.05 1054.83 329.24 1047.56 329.46 1047.56 335.68"/><polygon class="cls-4" points="729.29 338.99 722.02 339.21 722.28 346.1 729.55 345.88 729.29 338.99"/><polygon class="cls-4" points="729.29 338.99 722.02 339.21 722.28 346.1 729.55 345.88 729.29 338.99"/><path class="cls-5" d="M745.26,603.52c40.34,19,78,18.06,97,17.37,22.52-.82,20.9-4.1,48-6.13,35.08-2.64,48,2.08,106.21,7.15,44.82,3.9,67.23,5.85,89.88,3.06,23.35-2.88,50.55-6.23,77.61-23.49,1.19-.75,2.81-1.74,4.92-3.19a141,141,0,0,0,35.8-36.13H686.93C709.51,586.71,736.58,599.44,745.26,603.52Z"/><path class="cls-6" d="M686.93,562.16H1204.7a112.41,112.41,0,0,0,6.89-11.74H677.22A141.83,141.83,0,0,0,686.93,562.16Z"/><path class="cls-7" d="M677.22,550.42h534.37a99.3,99.3,0,0,0,5.74-13.79h-549A131.28,131.28,0,0,0,677.22,550.42Z"/><path class="cls-6" d="M1213.47,468.71H652.38c.19,14,1.1,30.35,7.09,48a120.51,120.51,0,0,0,8.86,19.92h549a91,91,0,0,0,3.85-16.85C1223.41,502.33,1219.94,488.11,1213.47,468.71Z"/><path class="cls-6" d="M1196.1,427.35h-540c-.58,2.62-1.11,5.14-1.58,7.71h545.75C1198.68,432,1197.35,429.62,1196.1,427.35Z"/><path class="cls-8" d="M1202.31,439.14c-.73-1.5-1.41-2.85-2-4.08H654.51a122.81,122.81,0,0,0-1.66,12.21h553C1204.6,444.06,1203.42,441.42,1202.31,439.14Z"/><path class="cls-6" d="M1208.92,455.44c-1.08-3.12-2.09-5.8-3-8.17h-553c-.36,4.31-.56,9.11-.53,14.81h558.9C1210.48,459.93,1209.71,457.73,1208.92,455.44Z"/><path class="cls-8" d="M1211.22,462.08H652.32c0,2.14,0,4.36.06,6.63h561.09Q1212.39,465.5,1211.22,462.08Z"/><path class="cls-6" d="M789.65,115.48H1181a118.43,118.43,0,0,0-10.24-7.28H1013.32c-14.1,4-31.42,7-57.68,7.15a328,328,0,0,1-67.11-7.15H718.75c-2.47,2.37-4.79,4.81-7,7.28h77.87Z"/><path class="cls-8" d="M857.6,98a121.9,121.9,0,0,0-33.7-14.3c-7.27-1.87-35.7-8.86-66.38,1A99.9,99.9,0,0,0,719,108H887.5C874.29,105.05,863.53,101.55,857.6,98Z"/><path class="cls-8" d="M1170.37,108l-1.28-.8c-9.24-5.7-30-16.56-76.6-16.34-38.17.18-53.26,10-78.36,17.14h156.24Z"/><path class="cls-9" d="M1619.47,716.19V0H259.75V721.3M1222,521.24a90.2,90.2,0,0,1-3.85,16.85,99.27,99.27,0,0,1-5.73,13.79,111.44,111.44,0,0,1-6.9,11.74,141,141,0,0,1-35.79,36.13c-2.12,1.45-3.74,2.44-4.92,3.19-27.07,17.26-54.27,20.61-77.62,23.49-22.64,2.79-45.05.84-89.87-3.06-58.21-5.07-71.14-9.79-106.21-7.15-27.11,2-25.49,5.31-48,6.13-19,.69-56.68,1.61-97-17.37-8.67-4.08-35.74-16.81-58.33-41.36a139.77,139.77,0,0,1-9.7-11.74,128.14,128.14,0,0,1-8.89-13.79,120.78,120.78,0,0,1-8.86-19.91c-6-17.66-6.91-34-7.1-48,0-2.28,0-4.5,0-6.64,0-5.7.16-10.5.53-14.81,0,0,.19-2.27.5-4.79,2.12-17.46,11.71-55.36,13.29-93.6,0-.64,0-1.15.05-1.35-.41-15.53-.81-38.11-.61-65.42.28-37.7.42-56.55,2.07-66.34,0,0,9.49-56.17,47.27-103.65,1.57-2,2.77-3.31,3.32-3.91,13.69-15.06,30.3-20.72,38.77-23.49,0,0,29.15-9.58,62.55-2,1.61.36,2.9.69,3.83.93a121.74,121.74,0,0,1,33.7,14.3c5.93,3.56,16.7,7.07,29.9,10l1,.23h0a328.85,328.85,0,0,0,67.12,7.14c26.25-.1,43.57-3.19,57.68-7.14l.8-.23c16.71-4.76,29-10.7,46.58-14.19,10.26-2,17.38-2.62,31.79-3,0,0,48.38-1.1,75,14.82,1.54.93,3,1.92,3,1.92,1.58,1.07,2.82,2,4.27,3.19,3.53,2.82,6.32,5.26,6.66,5.57,6.13,5.51,42.8,58,33.15,101.25-.45,2-1.48,6.16-2.47,10.12-2.47,10-5.32,21.41-9.44,35.23-2.63,8.82-4,13.23-5.66,17.69-3.14,8.21-7.88,18.58-9.47,22a90.32,90.32,0,0,0-5.11,12.51,77.57,77.57,0,0,0-2.55,11.11c-.2,2-.46,4.9-.65,8.34a203.34,203.34,0,0,0,3.2,47.06,214.36,214.36,0,0,0,14.16,46.57c.19.35,2.37,4.3,3.68,6.83.63,1.23,1.31,2.58,2,4.08,1.12,2.28,2.29,4.92,3.58,8.13.95,2.37,1.95,5,3,8.17.8,2.29,1.56,4.49,2.3,6.64s1.54,4.49,2.25,6.64C1220.71,489.57,1224.18,503.79,1222,521.24Z"/><rect class="cls-9" x="1524.69" width="215.49" height="716.19"/></g><path class="cls-10" d="M636.43,688s36.68,4.8,44.25,1.58-4.71-9.37-25.94-11.27-47.21-1.53-49.35,1.79S619,686.17,636.43,688Z"/><path class="cls-10" d="M573.8,681.58s22.89,2.79,10.79,9-30.43,9.63-42.22,6.18-8.84-11.53,2.55-14.06S573.8,681.58,573.8,681.58Z"/><path class="cls-10" d="M688.1,677.35s-14.84,9.33-.43,10.68,38.23-2.42,43.17-7.69-.17-11.37-14.24-11.42S693.33,673,688.1,677.35Z"/><path class="cls-10" d="M706.14,661.66s-8.44,5.79-35.72,3.78-44.16-5.85-31.45-9.12,46.6-3.68,58.7-1.34S706.14,661.66,706.14,661.66Z"/><path class="cls-10" d="M587.44,669.05s-12.14,7.65-.35,8.75,31.3-2,35.35-6.3-.14-9.31-11.67-9.35S591.72,665.48,587.44,669.05Z"/><path class="cls-10" d="M602.21,656.2S595.29,661,573,659.31s-36.16-4.8-25.75-7.48,38.16-3,48.06-1.09S602.21,656.2,602.21,656.2Z"/><path class="cls-10" d="M334.81,688.94s22.89,2.79,10.78,9-30.42,9.63-42.21,6.18-8.84-11.53,2.56-14.06S334.81,688.94,334.81,688.94Z"/><path class="cls-10" d="M467.15,669s-8.44,5.79-35.72,3.78S387.27,667,400,663.68s46.6-3.68,58.7-1.34S467.15,669,467.15,669Z"/><path class="cls-10" d="M348.45,676.41s-12.15,7.64-.35,8.74,31.3-2,35.35-6.29-.14-9.31-11.67-9.35S352.73,672.84,348.45,676.41Z"/><path class="cls-10" d="M363.22,663.56s-6.91,4.75-29.25,3.1-36.16-4.79-25.75-7.47,38.16-3,48.06-1.09S363.22,663.56,363.22,663.56Z"/><path class="cls-10" d="M1312.07,666.81s36.68,4.8,44.25,1.58-4.71-9.37-26-11.27-47.21-1.53-49.35,1.79S1294.68,665,1312.07,666.81Z"/><path class="cls-10" d="M1249.44,660.38s22.88,2.79,10.78,9-30.43,9.62-42.22,6.17-8.84-11.53,2.56-14.06S1249.44,660.38,1249.44,660.38Z"/><path class="cls-10" d="M1363.73,656.15s-14.83,9.33-.43,10.68,38.23-2.42,43.18-7.69-.17-11.37-14.25-11.42S1369,651.79,1363.73,656.15Z"/><path class="cls-10" d="M1381.77,640.46s-8.44,5.8-35.72,3.78-44.16-5.85-31.45-9.12,46.61-3.68,58.7-1.34S1381.77,640.46,1381.77,640.46Z"/><path class="cls-10" d="M1263.07,647.85s-12.14,7.65-.35,8.75,31.3-2,35.35-6.3-.14-9.31-11.67-9.35S1267.36,644.28,1263.07,647.85Z"/><path class="cls-10" d="M1277.84,635s-6.91,4.75-29.24,3.11-36.17-4.8-25.76-7.48,38.16-3,48.06-1.09S1277.84,635,1277.84,635Z"/><path class="cls-11" d="M1268.48,333.5l-52.2-19.56-4.54,5.76s39.86,46.06,56.36,45.23S1268.48,333.5,1268.48,333.5Z"/><path class="cls-1" d="M1261.46,329.82s9.94,2.5,9.94,2.71S1279,349,1279,349l-.69,11.54-5.84,7.44-5.29-1-22.14-12.17-.94-5.87s2.23-10,2.23-10.19,2-3.13,2.22-3.76S1261.46,329.82,1261.46,329.82Z"/><path class="cls-12" d="M1252.34,326.14s-14,7.09-14.53,22.38l7.27,6.26s3.16-19.95,16.38-25Z"/><path class="cls-11" d="M1211.74,319.7s-8.2.36-11.31-4.13-1.11-10.11-1.11-10.11l12,12.19s2,0,.42-2.41-6.23-7.88-6.23-7.88,8.18.09,10.77,6.58Z"/><path class="cls-13" d="M1262.5,330.09s-2.39,26.84-.6,33.94l5.32,2.92s.24-25.8,0-27.11-3.58-9.46-3.58-9.46Z"/><path class="cls-1" d="M1276.65,289s-12.33,20.85-13.16,44.22,9.72,74,9.72,74,14.68-17.24,15-18.36,1.08-55.07,0-56.18S1276.65,289,1276.65,289Z"/><path class="cls-14" d="M1275.65,293.59s-7.25,21.3-7.34,63.58,0,68.23,0,68.23l4.88,17.15,15.47,4.07,21.24,2.26s-9.7-34.15-9.15-35-8.06-33.37-9.73-40.33-6.68-31.15-6.68-35.59,2-15,2-19.75S1275.65,293.59,1275.65,293.59Z"/><path class="cls-15" d="M1268.31,425.4s-15.74,51-16,94.65,12.32,101.89,12.32,101.89h8.61s26.24-31.53,19.94-88.26l1-78.62L1278.49,431Z"/><path class="cls-11" d="M1263.21,615.1c.85,4.34,1.39,6.84,1.39,6.84h8.52a30.09,30.09,0,0,0,4-5.32Q1270.16,616,1263.21,615.1Z"/><path class="cls-16" d="M1268.31,425.4s5.47,77.22,18.26,101.14S1345,614.7,1345,614.7l6.39-5.56s4.45-69.25-31.43-90.38c0,0,31.43-63.79,21.14-93.36C1341.08,425.4,1293.43,437.73,1268.31,425.4Z"/><path class="cls-11" d="M1339.47,606.9c3.41,4.86,5.51,7.8,5.51,7.8l6.39-5.56s.26-4.12.14-10.65Q1345.51,602.72,1339.47,606.9Z"/><path class="cls-12" d="M1341.88,610.32s-10.63,14.95-10,25c0,0,28.74-20.09,28.65-25s-9-6.74-9-6.74S1350.46,611.87,1341.88,610.32Z"/><path class="cls-12" d="M1264.31,620.25s-24.47,5.41-27.73,11.52c0,0,37.06,1.33,39.07,0s-1.88-10.5-1.88-10.5S1267.7,623.25,1264.31,620.25Z"/><path class="cls-11" d="M1294.85,272.06s-7.28-11.81-7.65-17.48-1.09-12.66-9.65-16.81-25.44,1.75-22.51,12.5,5.63,22,9.6,23.77c0,0,6.21.51,8.2,3.59s5.66,18.88,5.66,18.88l27.62-4.73Z"/><path class="cls-17" d="M1291.23,254.69s6.2-10,3-17.95-10.45-11.12-17.58-9.08c0,0-12.63-7.78-23.35-2s-5.18,22.8,5,20.47,10-4,10-4,3,10.94,9.77,10.24l3.11,9.88Z"/><path class="cls-11" d="M1283.93,253.49s4.16-4,6.66-1.24.94,8.27-4.31,9.85-3.42-5.33-3.42-5.33Z"/><path class="cls-18" d="M1277.35,275.68a22.33,22.33,0,0,0-2.62,6.75,24.57,24.57,0,0,0-1.89-4.8c-1.31-2-4.44-2.94-6.44-3.32C1268.69,273.73,1274.79,272.67,1277.35,275.68Z"/><polygon class="cls-17" points="1275.65 293.59 1274.73 292.62 1275.46 291.19 1275.65 293.59"/><path class="cls-17" d="M1200.46,300.82a1.87,1.87,0,0,0-1.29-.62h-3.05c-.44,0-.58.28-.32.62l12.4,16.45a1.79,1.79,0,0,0,1.27.64h3.8c.43,0,.57-.28.3-.62Z"/><polygon class="cls-17" points="1195.67 300.46 1195.67 301.14 1208.21 317.91 1210.06 317.91 1195.67 300.46"/><path class="cls-7" d="M1209.38,317.12l-.13-.05a1,1,0,0,1-.25-.13l-.12-.07-12-15.88h2.34l.12,0a1,1,0,0,1,.32.16l.1.07,12.63,15.87Z"/><path class="cls-13" d="M1342.59,448.88l-42.74,6.42,1.37-6.42,38.47-7.85,3.29,3.32S1342.69,448.05,1342.59,448.88Z"/><path class="cls-1" d="M1300.75,275.26s44.76,13.77,50.79,168.68l-52.45,9.73s-26.73-94.56-25.88-124.59,2.44-35.49,2.44-35.49l19.2-21.53Z"/><g class="cls-19"><path class="cls-7" d="M1315.78,288.11s-4.63-12.24-9.18-10.57-6.86,10.29-3.43,16.5,9.92,11.13,13.26,8.25S1318.35,293.48,1315.78,288.11Z"/><path class="cls-7" d="M1325.19,307.26s-3.06-7.44,5.08-11.13,15.43-3.41,15.29,2.43-7.72,13.28-12.58,13.49S1325.19,307.26,1325.19,307.26Z"/><path class="cls-7" d="M1293.13,309s11.91-5.42,9.94-9.85-10.71-6.17-16.69-2.34-10.45,10.62-7.36,13.77S1287.94,311.93,1293.13,309Z"/><path class="cls-7" d="M1274.64,319.66s7.22-3.54,11.43,4.34,4.41,15.18-1.43,15.42-13.75-6.83-14.28-11.67S1274.64,319.66,1274.64,319.66Z"/><path class="cls-7" d="M1313.23,321.34s11.9-5.43,9.94-9.85-10.71-6.17-16.68-2.34-10.46,10.62-7.37,13.76S1308,324.25,1313.23,321.34Z"/><path class="cls-20" d="M1294.74,332s7.22-3.54,11.43,4.34,4.41,15.18-1.43,15.42-13.76-6.83-14.28-11.68S1294.74,332,1294.74,332Z"/><path class="cls-7" d="M1301.56,373.23s11.9-5.42,10-9.85-10.72-6.17-16.7-2.34-10.45,10.62-7.37,13.77S1296.37,376.15,1301.56,373.23Z"/><path class="cls-7" d="M1283.07,383.87s7.22-3.54,11.43,4.34,4.41,15.18-1.43,15.43-13.75-6.84-14.28-11.68S1283.07,383.87,1283.07,383.87Z"/><path class="cls-7" d="M1318.6,417.94s11.91-5.42,9.94-9.85-10.71-6.17-16.68-2.34-10.46,10.62-7.37,13.76S1313.41,420.85,1318.6,417.94Z"/><path class="cls-7" d="M1300.11,428.58s7.23-3.54,11.43,4.34,4.41,15.18-1.43,15.42-13.75-6.83-14.28-11.68S1300.11,428.58,1300.11,428.58Z"/><path class="cls-7" d="M1357.66,417.94s11.91-5.42,9.95-9.85-10.72-6.17-16.69-2.34-10.45,10.62-7.37,13.76S1352.47,420.85,1357.66,417.94Z"/><path class="cls-7" d="M1339.17,428.58s7.23-3.54,11.44,4.34,4.4,15.18-1.43,15.42-13.76-6.83-14.28-11.68S1339.17,428.58,1339.17,428.58Z"/><path class="cls-7" d="M1341.42,333.17s11.91-5.42,9.94-9.85-10.72-6.17-16.69-2.34-10.45,10.62-7.37,13.76S1336.23,336.08,1341.42,333.17Z"/><path class="cls-7" d="M1322.93,343.81s7.22-3.53,11.44,4.34,4.4,15.18-1.44,15.43-13.75-6.84-14.28-11.69S1322.93,343.81,1322.93,343.81Z"/><path class="cls-7" d="M1349.11,377.82s11.91-5.43,10-9.85-10.72-6.17-16.69-2.35-10.45,10.63-7.37,13.78S1343.92,380.73,1349.11,377.82Z"/><path class="cls-7" d="M1330.62,388.46s7.23-3.54,11.44,4.34,4.4,15.18-1.43,15.42-13.76-6.83-14.29-11.68S1330.62,388.46,1330.62,388.46Z"/></g><polygon class="cls-12" points="1275.65 293.59 1294.85 272.06 1300.75 275.26 1288.38 301.26 1275.65 293.59 1275.65 293.59"/><path class="cls-13" d="M1291.35,309.05s-6.76,7.57-1.46,31.41,8.08,51.31,8.08,51.31l14.4-.82s4-29,1.75-31.89-9.65-12.36-10-16.47S1291.35,309.05,1291.35,309.05Z"/><path class="cls-1" d="M1318.55,308.67s-9-11.73-21.65-5.67-4.89,30.41-2.18,37.23,4.38,50.25,4.38,50.25l26.15,4.12S1332.85,324.77,1318.55,308.67Z"/><path class="cls-11" d="M1298.45,397.89s-.58,49.09-.77,49.09-4.12,3.67-4.12,3.67,5.54,8.11,9.33,9.72a21.77,21.77,0,0,0,1.62-12s18.67-36.07,18-50.44Z"/><path class="cls-12" d="M1297,388s19.58,6.32,30,5.35l-3.86,10.82s-17.78,3.42-26.93-6.05Z"/><polygon class="cls-17" points="1275.65 293.59 1277.35 291.69 1276.45 288.38 1274.73 292.62 1275.65 293.59"/><path class="cls-21" d="M1274.59,657a6.16,6.16,0,1,1-6.16-6.14A6.16,6.16,0,0,1,1274.59,657Z"/><path class="cls-22" d="M1271.67,657a3.24,3.24,0,1,1-3.24-3.24A3.24,3.24,0,0,1,1271.67,657Z"/><path class="cls-21" d="M1330.1,657a6.16,6.16,0,1,0,6.15-6.14A6.15,6.15,0,0,0,1330.1,657Z"/><path class="cls-22" d="M1333,657a3.24,3.24,0,1,0,3.23-3.24A3.23,3.23,0,0,0,1333,657Z"/><path class="cls-12" d="M1325.43,530.38h-46.17v-72h46.17ZM1284,525.65h36.7V463.12H1284Z"/><path class="cls-1" d="M1336.25,570.75c0,2.46-2.27,4.46-5,4.46h-57.71c-2.78,0-5.06-2-5.06-4.46V513.38c0-2.46,2.28-4.47,5.06-4.47h57.71c2.78,0,5,2,5,4.47Z"/><path class="cls-1" d="M1346.7,652.83A4.5,4.5,0,0,1,1342,657h-79.23a4.5,4.5,0,0,1-4.74-4.17V574.48a4.5,4.5,0,0,1,4.74-4.18H1342a4.5,4.5,0,0,1,4.74,4.18Z"/><path class="cls-12" d="M1331.32,458.49a5.11,5.11,0,0,1-5.11,5.11h-47.73a5.11,5.11,0,0,1-5.11-5.11h0a5.11,5.11,0,0,1,5.11-5.11h47.73a5.11,5.11,0,0,1,5.11,5.11Z"/><path class="cls-1" d="M1101.58,258.91c2.82,8.13,20.17,9.47,38.75,3s31.35-18.28,28.53-26.39-20.17-9.47-38.75-3S1098.76,250.79,1101.58,258.91Z"/><path class="cls-23" d="M1150.9,238.74a13.18,13.18,0,0,1,8.4,12.07c.16,9.2,2.21,12.2,5.17,13.7s10.49,5,7.47,11.7-8.41,7.59-4.89,11.46,8.69,6.84.37,11.94-16.35-1.52-17.37,5.52-40.25,32.27-48.86,30.53c-26.91-5.41-4.45-30,9.52-44.51,3.84-4,4-8.79.11-10.22s-6.56-4.78-2.94-9.68,8.15-7.18,8.51-14.48S1126.22,226.47,1150.9,238.74Z"/><path class="cls-24" d="M1134,242.83a26.26,26.26,0,0,0-7.51,10.69,18.39,18.39,0,0,0-1.15,5,.75.75,0,0,0,0,.11.23.23,0,0,1-.23.23h0a.23.23,0,0,1-.23-.24,4.19,4.19,0,0,1,0-.5c.2-2,1.44-9.26,8.78-15.67a59.8,59.8,0,0,0,7.07-7.06l.55.08A59.43,59.43,0,0,1,1134,242.83Z"/><path class="cls-24" d="M1122.52,255.92l-.16,0a5.23,5.23,0,0,0-.56,0c-.39-2.92-.9-7.19-1.06-10.93l.44-.66c.12,3.33.53,7.19.9,10.17a39.66,39.66,0,0,1,1.14-7.27,26.87,26.87,0,0,1,4.71-9.36c.33-.19.68-.38,1-.56a26.93,26.93,0,0,0-5.29,10A35.8,35.8,0,0,0,1122.52,255.92Z"/><path class="cls-24" d="M1156.12,259.78A15.62,15.62,0,0,0,1160,263c.59.39,1.2.79,1.78,1.22,2.52,1.87,3.82,4.17,3.56,6.29s-1.92,3.71-3.15,4.74c-.25.21-.5.42-.76.62a12.23,12.23,0,0,0-3.17,3.29,3.86,3.86,0,0,0-.56,2.16,6.12,6.12,0,0,0,1.46,3l.2.28a10.43,10.43,0,0,1,2.31,5.61,5.37,5.37,0,0,1,0,.89l-.47,0a4.57,4.57,0,0,0,0-.9,10.15,10.15,0,0,0-2.24-5.36l-.19-.27a6.53,6.53,0,0,1-1.55-3.24,4.29,4.29,0,0,1,.61-2.41,12.49,12.49,0,0,1,3.29-3.43l.75-.61c1.18-1,2.77-2.51,3-4.44.32-2.78-2.26-5-3.39-5.87-.57-.42-1.18-.82-1.76-1.2a15.86,15.86,0,0,1-4-3.36l-.21-.29c0-.28,0-.56,0-.85A8.54,8.54,0,0,0,1156.12,259.78Z"/><path class="cls-24" d="M1149.5,279.1a1.74,1.74,0,0,0-.1.19,9.08,9.08,0,0,0-1.19,6.15,11.22,11.22,0,0,0,1.82,3.62,19,19,0,0,1,1.49,2.6,8,8,0,0,1,.66,3l-.47.1a7.45,7.45,0,0,0-.62-2.93,15.87,15.87,0,0,0-1.46-2.52,12.31,12.31,0,0,1-1.87-3.77,9.34,9.34,0,0,1,1.1-6.24A3.69,3.69,0,0,0,1149.5,279.1Z"/><path class="cls-24" d="M1122.37,272.15a10.17,10.17,0,0,1-.6-4.46,4.66,4.66,0,0,0,.45.22,9.92,9.92,0,0,0,.58,4.07c.86,2.2,2.51,3.85,4.28,5.59a25.14,25.14,0,0,1,3.41,3.87,11.91,11.91,0,0,1,1,11.45.61.61,0,0,0,0,.12l-.54,0a3,3,0,0,0,.17-.36,11.48,11.48,0,0,0-.92-11,25.12,25.12,0,0,0-3.36-3.79C1125,276.2,1123.25,274.45,1122.37,272.15Z"/><path class="cls-24" d="M1115.36,261.54v0a1,1,0,0,0-.07.15C1115.31,261.65,1115.34,261.6,1115.36,261.54Z"/><path class="cls-24" d="M1115.24,268c-.08,3.72,0,7.27,2.1,9.83a14.72,14.72,0,0,0,4.14,3.17c.25.15.5.29.74.45,1.72,1,3.59,2.38,4.43,4.37.95,2.22.44,4.67-.21,7.2h0l-.29,0-.2.07a1,1,0,0,0,0-.17c.63-2.44,1.12-4.81.24-6.89-.8-1.87-2.59-3.16-4.24-4.17l-.75-.44a15.31,15.31,0,0,1-4.26-3.28c-2.17-2.69-2.28-6.32-2.21-10.13l.1-5.19c.14-.34.29-.7.42-1.07a1,1,0,0,1,.07-.15c0,.07,0,.14,0,.21Z"/><path class="cls-25" d="M1097.16,466.11H1114l.12-.08s-4.71-47.83-5.26-71.63a.69.69,0,0,0-1.36-.1C1104.5,412.34,1097.54,454.92,1097.16,466.11Z"/><path class="cls-26" d="M1177.24,461.85s-16.3-7.64-31.47-1.83-36.31,13.51-56,.66c0,0,.82-5.79,10.63-10s55.08-.57,55.08-.57l6.49.69,8.56,3C1170.86,453.86,1177.24,461.85,1177.24,461.85Z"/><path class="cls-25" d="M1093.24,445.89s-10.77,87.6-.25,165.43h13.46s20.86-149,20-165.43S1093.24,445.89,1093.24,445.89Z"/><path class="cls-12" d="M1093.72,639.66l-.73-28.34h13.46s2.41,15.87,6.68,21.24,18.16,8,18.16,8,4.16.32,4.79,4.26l-25.32-.47s-10.49-15.62-11.68-14.75-.7,14.67-.7,14.67l-4.74-.16Z"/><path class="cls-7" d="M1105.52,600.27s-3.15-12.85.06-15.3,2.59,2.41,1.73,6.66S1107.85,603.76,1105.52,600.27Z"/><path class="cls-7" d="M1107.16,573.88s1.61-8.12,3.09-6.5-1.26,7.32-2,7.7S1107.09,576.06,1107.16,573.88Z"/><path class="cls-27" d="M1093.24,445.89s2.72-1.38,6.61-2.94c2.39-16.74,5.79-37.43,7.67-48.65a.69.69,0,0,1,1.36.1c.28,11.93,1.6,29.89,2.85,44.84,7.43-1.49,14.36-.83,14.74,6.65a131.09,131.09,0,0,1-.84,14.28c-3.46-.64-10.79-1.42-14.29,2.58l-3.2-44.58-6,41.51s-6.13-1-10.44,1.73C1092.53,451.61,1093.24,445.89,1093.24,445.89Z"/><path class="cls-25" d="M1137.07,446.14s-7.94,89.59,13.34,165.18l13.33-1.87s9.35-151.82,6.24-167.94S1137.07,446.14,1137.07,446.14Z"/><path class="cls-12" d="M1155.09,639.29l-4.68-28,13.33-1.87s4.61,15.38,9.58,20.1,19.11,5.43,19.11,5.43,4.16-.26,5.33,3.55l-25.13,3.06s-12.57-14-13.62-13,1.34,14.62,1.34,14.62l-4.7.51Z"/><path class="cls-7" d="M1141.76,468.31s-6.16,11.7-3.64,14.85,3.1-1.71,3.29-6S1144.87,465.48,1141.76,468.31Z"/><path class="cls-7" d="M1139.43,494.92s-.4,8.26,1.42,7.05.54-7.41-.09-8S1139.89,492.79,1139.43,494.92Z"/><path class="cls-27" d="M1162.45,449.3l8.15,9.92c0,2.48-.06,5.15-.11,8-6.32,3.05-20.66,8-34.52-1.09.43-12.48,1.1-20,1.1-20s.87-.61,2.33-1.53a53.41,53.41,0,0,1,6.72-2Z"/><path class="cls-1" d="M1153.74,294.81s18.41-1,22.61,12.66,3.22,47.07,1.09,53.8-8.93,9.72-13.45,7.62-7.45-12.75-7.45-12.75-5.9,15.62,0,26,21.39,36.6,20.7,79.71c0,0-20.74,9.35-37.85,1.14s-25.55-4.2-25.55-4.2l-5.74-53.13-7.94,51.23s-8.52.45-10.4,3.79c0,0,1.06-53.65,6.74-68.72s8.75-22,8.75-22-10.37-1.19-10.2-13.28-2-56.73,14.8-61S1128.5,294,1128.5,294l11.41,3.54,8.77-.38,3.1.66Z"/><g class="cls-28"><g class="cls-29"><path class="cls-30" d="M1154.91,442.19l-.55.11c-3.56,1.2-6.64-2.61-10.2-1.41-2.55.9-4.93,2.43-7.74,3.2-7,2-13.7,3.47-19.84,7.74-10.64,7.45,9.11,11.21,13.68,12.32s7.83,2.92,12.63,1.54c3.44-1,7.32-3.95,10.15-6.29,3.22-2.64,9.41-6,10.48-10.25C1164.87,444.08,1162.05,440.23,1154.91,442.19Z"/><path class="cls-31" d="M1165.92,444.13c-14.06,10.86-50.88,12.2-51.26,12.21v-.29c.38,0,38.8-1.42,52-12.91l.2.23Z"/><path class="cls-32" d="M1189.35,401.35c-6.33,3-12.84,10.66-14.3,17.06a52,52,0,0,1-3.56,9.52c-2,3.79-1.53,5.33-1.23,9.62l.3.88c-.69,10.32,13.7-.78,16.71-2.73,6.73-4.45,15.42-9.27,16.24-18.94C1204,409.6,1197.94,397.36,1189.35,401.35Z"/><path class="cls-33" d="M1141.41,424.06c-3.11-.6-7.27.35-10.3.8-4.7.25-22.22,1-13.77,8,4.22,3.52,35.15,4.1,33.32-3.15l-.06-.32C1147.53,426.87,1145.35,424.79,1141.41,424.06Z"/><path class="cls-32" d="M1157.84,423.42c-6.35-6.76-2.24-15.58,1-22.59,1.5-3.43,6.07-17.49,11.48-10,2.55,3.3-.29,8.88-1,12.41-.73,3.94-.13,7.62-.61,11.39-.94,5.62-4.93,10.19-10.73,9"/><path class="cls-31" d="M1142.28,414l-.42-.05c-1.91,0-27.25-1.17-21.57,4.23,1.88,1.94,11.21.38,13.77.29,4-.12,6.25-.68,9.07-2.87C1143,414.93,1143.8,414.87,1142.28,414Z"/><path class="cls-30" d="M1148.37,398c-2.39,3.72-2.25,9.27-2.37,13.5l.08.12c2.08,3.29,8-10.13,7.78-13.34C1153.08,394.35,1151,394.08,1148.37,398Z"/><path class="cls-32" d="M1132.71,386c-5.36.38-6.26,12.36-5.67,16.05.84,5,6.11,6.95,11.18,7.17l.21,0c4.37-.92,4.3-5.39,3-10.44C1140.65,395.29,1137.18,385.94,1132.71,386Z"/><path class="cls-31" d="M1156.41,428.94c-3.78,1.45-13.51,2.8-38.48.89l-1.23-.09v-.3l1.27.09c24.9,1.91,34.59.58,38.34-.87Z"/><path class="cls-31" d="M1156.11,427.09a2.45,2.45,0,0,1-.52.32l-.1-.28s3.17-1.31,4.37-10.67c0-.2,3.42-19.64,7.66-25.53l.24.17c-4.2,5.84-7.57,25.2-7.61,25.4C1159.21,423.88,1157.1,426.34,1156.11,427.09Z"/><path class="cls-31" d="M1146.09,415.69c-4-.62-24.76,1.22-25,1.24l0-.29c.86-.08,21-1.87,25-1.25Z"/><path class="cls-31" d="M1146.08,415.64l-.28.08a53.11,53.11,0,0,1,1.59-8.06c.93-3.71,2.38-8.61,4-10.84l.24.17C1148.65,401.13,1146,415.14,1146.08,415.64Z"/><path class="cls-31" d="M1178.36,465.6l-.28.09c-2.37-6.9-10.09-19.83-10.17-20-6.12-11.07-21.51-29.35-21.66-29.53-11.68-12.23-14.73-21.71-14.75-21.81l.28-.08c0,.09,3.06,9.51,14.69,21.69.16.19,15.56,18.49,21.71,29.58C1168.25,445.7,1176,458.67,1178.36,465.6Z"/><path class="cls-31" d="M1167.38,444.28l-.21-.21c.26-.25,25.33-24.59,27.12-39.32l.29,0C1192.78,419.61,1167.63,444,1167.38,444.28Z"/></g><g class="cls-29"><path class="cls-30" d="M1085.8,431.81l.54.11c3.56,1.2,6.65-2.6,10.21-1.4,2.55.89,4.93,2.42,7.74,3.2,7,2,13.7,3.47,19.84,7.73,10.64,7.45-9.12,11.21-13.68,12.32s-7.83,2.93-12.63,1.55c-3.44-1-7.32-3.95-10.15-6.3-3.22-2.64-9.42-6-10.48-10.25C1075.84,433.71,1078.66,429.85,1085.8,431.81Z"/><path class="cls-31" d="M1074.79,433.76c14.06,10.85,50.88,12.2,51.26,12.21v-.3c-.39,0-38.8-1.42-52-12.9l-.2.22C1074.15,433.25,1074.47,433.5,1074.79,433.76Z"/><path class="cls-32" d="M1051.36,391c6.33,3,12.83,10.67,14.3,17.07a52.29,52.29,0,0,0,3.56,9.52c2,3.78,1.53,5.32,1.23,9.61l-.31.89c.69,10.32-13.69-.79-16.7-2.74-6.73-4.44-15.42-9.27-16.24-18.93C1036.7,399.23,1042.77,387,1051.36,391Z"/><path class="cls-33" d="M1099.3,413.69c3.11-.61,7.27.34,10.3.8,4.7.24,22.21,1,13.77,8-4.22,3.52-35.15,4.09-33.33-3.15l.07-.33C1093.18,416.49,1095.36,414.41,1099.3,413.69Z"/><path class="cls-32" d="M1082.87,413c6.35-6.76,2.24-15.58-1-22.59-1.5-3.42-6.07-17.49-11.48-10-2.55,3.3.29,8.88,1,12.4.72,3.94.13,7.63.61,11.39.94,5.62,4.93,10.2,10.72,9"/><path class="cls-31" d="M1098.43,403.61l.42-.05c1.9,0,27.25-1.18,21.57,4.23-1.88,1.94-11.21.38-13.77.28-4.05-.11-6.25-.68-9.07-2.86C1097.7,404.55,1096.9,404.5,1098.43,403.61Z"/><path class="cls-30" d="M1092.34,387.61c2.39,3.73,2.25,9.27,2.37,13.5l-.08.12c-2.08,3.29-8-10.13-7.78-13.33C1087.62,384,1089.71,383.7,1092.34,387.61Z"/><path class="cls-32" d="M1108,375.62c5.37.37,6.27,12.36,5.68,16-.84,5-6.11,6.95-11.18,7.18l-.21,0c-4.37-.92-4.3-5.39-3-10.44C1100.06,384.92,1103.53,375.56,1108,375.62Z"/><path class="cls-31" d="M1084.3,418.57c3.77,1.45,13.51,2.79,38.47.89l1.24-.1v-.29l-1.27.09c-24.9,1.9-34.58.58-38.33-.87Z"/><path class="cls-31" d="M1084.6,416.71a2,2,0,0,0,.52.32l.1-.28s-3.17-1.3-4.37-10.67c0-.2-3.42-19.63-7.66-25.53l-.24.18c4.2,5.83,7.57,25.2,7.6,25.39C1081.5,413.51,1083.61,416,1084.6,416.71Z"/><path class="cls-31" d="M1094.61,405.31c4-.62,24.77,1.22,25,1.25l0-.3c-.86-.08-21-1.87-25-1.25Z"/><path class="cls-31" d="M1094.63,405.26l.28.08a54.53,54.53,0,0,0-1.59-8.06c-.93-3.71-2.37-8.6-4-10.84l-.25.17C1092.05,390.75,1094.7,404.76,1094.63,405.26Z"/><path class="cls-31" d="M1062.35,455.22l.28.1c2.37-6.9,10.09-19.83,10.16-20,6.13-11.07,21.52-29.34,21.67-29.53,11.67-12.22,14.73-21.71,14.75-21.8l-.28-.09c0,.1-3.06,9.52-14.69,21.7-.16.19-15.57,18.48-21.71,29.57C1072.46,435.33,1064.72,448.29,1062.35,455.22Z"/><path class="cls-31" d="M1073.33,433.9l.2-.21c-.25-.25-25.32-24.59-27.11-39.32l-.29,0C1047.93,409.24,1073.07,433.66,1073.33,433.9Z"/></g></g><path class="cls-9" d="M1117.44,240.79a.44.44,0,0,0,.35-.4.42.42,0,0,0,.18-.32.43.43,0,0,0-.12-.43c-.77-2.15-1.42-4.58-2.87-6.37-.88-1.09-2.67-2.42-4.14-1.58s-.59,2.91.22,3.95a7.88,7.88,0,0,0,1,1c-.81-.34-1.63-.65-2.44-.92-1.64-.53-3.66-.15-4,1.87C1104.82,242.69,1114.87,241.48,1117.44,240.79Zm-2.24-5.26a29.69,29.69,0,0,1,1.18,2.92c-.68-.48-1.4-.91-2.11-1.37-1-.64-3.33-2.16-3.22-3.6.16-2.27,2.64-.21,3.1.36A8,8,0,0,1,1115.2,235.53Zm-8.15,1.37c1.27-1.28,4.75.81,6,1.34s2.38,1.12,3.52,1.76a16.73,16.73,0,0,1-4.52.44C1110.81,240.38,1104.34,239.63,1107.05,236.9Z"/><path class="cls-34" d="M1117.25,238.32a76.65,76.65,0,0,1,12.86-5.8,74.38,74.38,0,0,1,16.13-3.74,8.89,8.89,0,0,0-11.32-5.32l-12.05,4.29A8.88,8.88,0,0,0,1117.25,238.32Z"/><path class="cls-25" d="M1117.44,260.77c.14,9,7.89,8.72,7.89,8.72l.13,1.51c.36,1.55,1.49,4.17,5,7.34,5.67,5.13,7.51,6.52,6.75,11.79-.5,3.35-5.51,3.86-8.7,3.83,10.65,18.79,12.25,56.6,12.25,56.6s8.67-22.13,11.41-36.16a82.52,82.52,0,0,0,1.58-19.59,7.21,7.21,0,0,1-5.74.54c-4.46-1.51-3.77-6.2-3.56-7.26l0-3.33,0-4.26,2,0a7.45,7.45,0,0,0,3.85-1.05,7.86,7.86,0,0,0,3.65-5.37c.18-1,.36-2.14.52-3.37.21-1.51.4-3.17.54-4.95a83,83,0,0,0,.2-11.16c-.7-13.37-3.8-14.64-3.8-14.64,1.83,6.9-26.61,19.57-26.61,19.57a3.69,3.69,0,0,0-2.69-2.77A4,4,0,0,0,1117.44,260.77Z"/><path class="cls-35" d="M1118.83,259.1a15.3,15.3,0,0,1,2,1.68,16,16,0,0,1,1.69,2,16.24,16.24,0,0,1,1.37,2.23c.22.38.37.79.57,1.19s.33.82.53,1.23v0a.23.23,0,0,0,.31.12.26.26,0,0,0,.13-.25,12.15,12.15,0,0,0-.29-1.36,12.93,12.93,0,0,0-.44-1.33,12.55,12.55,0,0,0-1.35-2.46,10.7,10.7,0,0,0-1.92-2.06,7.71,7.71,0,0,0-2.44-1.41.23.23,0,0,0-.2.41Z"/><path class="cls-35" d="M1119.21,263.68a5.74,5.74,0,0,1,1.17-.12,7.66,7.66,0,0,1,1.17.07,7.93,7.93,0,0,1,1.15.26c.18.05.37.13.56.19s.37.15.56.21h0a.1.1,0,0,0,.13-.06.09.09,0,0,0,0-.12,5.17,5.17,0,0,0-1.09-.61,5.74,5.74,0,0,0-1.21-.34,5.4,5.4,0,0,0-1.27,0,3.5,3.5,0,0,0-1.21.35.11.11,0,0,0-.05.14.11.11,0,0,0,.12.05Z"/><path class="cls-23" d="M1136.12,280.5s2.43,4.05,5.94,4.5a4.58,4.58,0,0,0,2.36-.24l0-4.26Z"/><path class="cls-35" d="M1135.12,279.65a.23.23,0,0,0,.23-.19.22.22,0,0,0-.18-.27c-.07,0-7.07-1.35-8.82-9.9a.23.23,0,0,0-.27-.18.24.24,0,0,0-.19.27,13.17,13.17,0,0,0,5.28,8.49,11,11,0,0,0,3.92,1.78Z"/><path class="cls-36" d="M1173.09,322.06a.3.3,0,0,1,.33.27c0,.09.85,9.34,2.5,14.58,1.54,4.93,3.06,11.31,2.83,13.4a.29.29,0,0,1-.29.26h0a.29.29,0,0,1-.26-.32c.2-1.74-1-7.52-2.81-13.16-1.66-5.31-2.51-14.61-2.52-14.71A.3.3,0,0,1,1173.09,322.06Z"/><path class="cls-36" d="M1163,345.22c.72-5.36,1-22.28,1-22.45a.29.29,0,0,1,.3-.29.29.29,0,0,1,.3.3c0,.17-.33,17.13-1.05,22.52s-5.8,11.07-6,11.31a.28.28,0,0,1-.22.1.3.3,0,0,1-.22-.5S1162.29,350.5,1163,345.22Z"/><path class="cls-36" d="M1102.63,356.21a11.3,11.3,0,0,1,8.09-3.17l5.29-36a.3.3,0,0,1,.59.09l-5.3,36c1.42.38,8.43,2.45,18.49,8.37,11.07,6.51,15.13,6.62,15.17,6.62a.29.29,0,0,1,.24.12.3.3,0,0,1,0,.26l-2.4,8.26a.3.3,0,0,1-.29.22h0c-.29,0-28.88-3.47-37.11-6.6a.29.29,0,0,1,.21-.55c7.75,2.94,33.88,6.18,36.72,6.53l2.23-7.67c-1.25-.16-5.61-1.1-15.1-6.67-10.86-6.39-18.11-8.25-18.55-8.37a11,11,0,0,0-7.88,3,.32.32,0,0,1-.42,0A.31.31,0,0,1,1102.63,356.21Z"/><path class="cls-9" d="M1131.75,293.57c1.32,7.74,6.51,35.29,13,35.29,6.1,0,8-23.24,8.57-32.44l-.59,0c-.64,11.4-2.88,31.88-8,31.88-2,0-5.11-3.17-9-18.27-1.7-6.67-2.94-13.4-3.49-16.59Z"/><path class="cls-9" d="M1130.67,293.8c1.31,9.42,7.69,52.19,15.1,52.19,7,0,9-37.75,9.51-49.77-.2,0-.4.08-.6.11-.62,16.49-3.06,49.07-8.91,49.07-6.11,0-12.33-35.82-14.52-51.71Z"/><path class="cls-25" d="M1166.11,318.46s-4.71,6.9-.11,9.51,15.38-12.55,12.13-19.24-10.87-11.19-13.59-10,.73,10.25.73,10.25-1.68-2.41-2.62-2.2S1164.54,315.53,1166.11,318.46Z"/><path class="cls-27" d="M1165.3,308.93a8.44,8.44,0,0,1,1.06,1.47,16.16,16.16,0,0,1,.79,1.62c.5,1.09,1,2.18,1.48,3.29,0,0,0,0,0,0s0,0,0,0c-.63-1-1.24-2.05-1.85-3.09a16.13,16.13,0,0,1-.88-1.57,9.71,9.71,0,0,1-.6-1.72,0,0,0,0,1,0,0S1165.28,308.91,1165.3,308.93Z"/><path class="cls-27" d="M1163.42,301.67a2.57,2.57,0,0,1,1.62.4,7.38,7.38,0,0,1,1.35,1,16.38,16.38,0,0,1,2.12,2.51,49.66,49.66,0,0,1,3.45,5.54s0,0,0,0,0,0,0,0c-.58-.91-1.2-1.81-1.83-2.69s-1.27-1.75-1.95-2.59-1.42-1.61-2.16-2.38a11.75,11.75,0,0,0-1.15-1.08,3.16,3.16,0,0,0-1.4-.68s0,0,0,0S1163.4,301.67,1163.42,301.67Z"/><path class="cls-27" d="M1168.13,300.67a14.82,14.82,0,0,0-1.25-1.13,3.38,3.38,0,0,0-1.47-.72h0a0,0,0,0,1,0,0,0,0,0,0,1,0,0,2.86,2.86,0,0,1,1.7.44,8,8,0,0,1,1.42,1,18.14,18.14,0,0,1,2.31,2.58,57.06,57.06,0,0,1,3.89,5.68s0,0,0,0,0,0,0,0c-.66-.93-1.34-1.85-2-2.75s-1.41-1.79-2.15-2.65S1168.92,301.46,1168.13,300.67Z"/><path class="cls-25" d="M1141.29,373.32s0-1.58,3.67-4.91,10-6.09,15-5.16,3,4,1.06,3.69c0,0,4.26,2.05,2.91,4a2.19,2.19,0,0,1-1.45.84,1.23,1.23,0,0,1,.24,1.22c-.53,1.65-3.86,1.19-5,1,.68.16,2.07.61,1.91,1.63-.21,1.35-4,1.42-6,1s-8.08,2.42-10.57,1.43S1141.29,373.32,1141.29,373.32Z"/><path class="cls-27" d="M1151,373.93a4.68,4.68,0,0,1,1.67-.5,8.25,8.25,0,0,1,1.72,0,22.51,22.51,0,0,1,3.37.53l0,0a0,0,0,0,1,0,0c-1.13-.09-2.26-.13-3.38-.12-.56,0-1.11.09-1.67.08s-1.1,0-1.69,0l0,0S1151,373.94,1151,373.93Z"/><path class="cls-27" d="M1154.94,371c-.43,0-.85.08-1.28.09s-.85.08-1.3.08l0,0a0,0,0,0,1,0,0,10.56,10.56,0,0,1,2.53-.7,11.47,11.47,0,0,1,2.62,0,14.93,14.93,0,0,1,2.58.42,9.09,9.09,0,0,1,2.4,1s0,0,0,0,0,0,0,0h0a8.71,8.71,0,0,0-2.43-.77,12.78,12.78,0,0,0-2.54-.24C1156.63,370.82,1155.78,370.93,1154.94,371Z"/><path class="cls-27" d="M1158.76,366.78a16.61,16.61,0,0,0-2.23.17c-.74.11-1.46.3-2.2.41-.37.05-.74.13-1.11.17a10.75,10.75,0,0,1-1.14.14h0s0,0,0,0a9.33,9.33,0,0,1,2.14-.84,11.05,11.05,0,0,1,2.28-.3,17.5,17.5,0,0,1,2.29,0,10.06,10.06,0,0,1,2.25.43s0,0,0,0,0,0,0,0A9.87,9.87,0,0,0,1158.76,366.78Z"/><path class="cls-21" d="M1030.44,653.12a6.16,6.16,0,1,1-6.16-6.15A6.16,6.16,0,0,1,1030.44,653.12Z"/><path class="cls-22" d="M1027.52,653.12a3.24,3.24,0,1,1-3.24-3.24A3.23,3.23,0,0,1,1027.52,653.12Z"/><path class="cls-21" d="M1086,653.12a6.16,6.16,0,1,0,6.15-6.15A6.15,6.15,0,0,0,1086,653.12Z"/><path class="cls-22" d="M1088.86,653.12a3.24,3.24,0,1,0,3.24-3.24A3.23,3.23,0,0,0,1088.86,653.12Z"/><path class="cls-12" d="M1081.28,526.49h-46.16v-72h46.16Zm-41.43-4.72h36.7V459.24h-36.7Z"/><path class="cls-1" d="M1092.1,566.87c0,2.46-2.28,4.46-5,4.46h-57.71c-2.78,0-5.06-2-5.06-4.46V509.5c0-2.46,2.28-4.47,5.06-4.47h57.71c2.77,0,5,2,5,4.47Z"/><path class="cls-1" d="M1102.54,649a4.49,4.49,0,0,1-4.73,4.17h-79.23a4.5,4.5,0,0,1-4.74-4.17V570.6a4.5,4.5,0,0,1,4.74-4.18h79.23a4.49,4.49,0,0,1,4.73,4.18Z"/><path class="cls-12" d="M1087.16,454.6a5.1,5.1,0,0,1-5.1,5.11h-47.73a5.11,5.11,0,0,1-5.11-5.11h0a5.11,5.11,0,0,1,5.11-5.1h47.73a5.1,5.1,0,0,1,5.1,5.1Z"/><line class="cls-37" x1="1030.44" y1="508.91" x2="1082.87" y2="508.91"/><line class="cls-37" x1="1030.44" y1="571.33" x2="1082.87" y2="571.33"/><line class="cls-38" x1="1019.06" y1="649.88" x2="1095.33" y2="649.88"/><line class="cls-37" x1="1275.59" y1="511.07" x2="1328.02" y2="511.07"/><line class="cls-37" x1="1275.59" y1="573.49" x2="1328.02" y2="573.49"/><line class="cls-38" x1="1264.21" y1="652.03" x2="1340.49" y2="652.03"/><path class="cls-12" d="M1235.41,179.6l-1.23-.24c.07-.38,7.73-38.69,46.55-43.38,7.91-1,15.3-1.3,21.82-1.6,26-1.19,41.67-1.91,48.06-37.33l1.23.22c-6.56,36.4-23.54,37.18-49.23,38.36-6.5.3-13.86.64-21.73,1.59C1243,141.81,1235.48,179.22,1235.41,179.6Z"/><path class="cls-12" d="M1241.7,189.3l-1.22-.23c.07-.39,7.73-38.69,46.54-43.39,7.92-1,15.3-1.29,21.82-1.59,26-1.2,41.67-1.92,48.07-37.33l1.23.22c-6.57,36.4-23.55,37.18-49.24,38.36-6.49.3-13.86.63-21.73,1.58C1249.26,151.51,1241.77,188.92,1241.7,189.3Z"/><path class="cls-12" d="M1249.83,198.92l-1.23-.23c.07-.39,7.73-38.7,46.55-43.39,7.92-1,15.3-1.3,21.82-1.6,26-1.19,41.67-1.91,48.06-37.33l1.24.23C1359.69,153,1342.72,153.77,1317,155c-6.5.29-13.86.63-21.73,1.58C1257.38,161.13,1249.9,198.54,1249.83,198.92Z"/><path class="cls-12" d="M825.09,545.14l-1.56-.3c.1-.49,9.8-49,59-55,10-1.21,19.39-1.64,27.64-2,32.92-1.52,52.8-2.43,60.9-47.3l1.55.29c-8.32,46.11-29.82,47.1-62.37,48.59-8.23.38-17.56.81-27.53,2C834.66,497.27,825.18,544.66,825.09,545.14Z"/><path class="cls-12" d="M833.06,557.43l-1.55-.29c.09-.49,9.79-49,59-55,10-1.21,19.38-1.64,27.64-2,32.92-1.51,52.79-2.42,60.89-47.29l1.56.28c-8.32,46.11-29.83,47.1-62.38,48.6-8.23.37-17.55.8-27.52,2C842.63,509.56,833.15,557,833.06,557.43Z"/><path class="cls-12" d="M843.36,569.61l-1.56-.29c.09-.49,9.8-49,59-55,10-1.22,19.38-1.65,27.64-2,32.92-1.51,52.79-2.42,60.89-47.29l1.56.29c-8.32,46.1-29.83,47.09-62.38,48.59-8.22.38-17.55.81-27.52,2C852.92,521.74,843.45,569.14,843.36,569.61Z"/><rect class="cls-39" x="309.37" y="595.39" width="14.42" height="61.21"/><polygon class="cls-40" points="311.41 609.14 316.92 614.12 316.92 652.8 311.41 652.8 311.41 609.14"/><path class="cls-41" d="M304.56,664.64h24v-6.25a3.38,3.38,0,0,0-3.37-3.36h-17.3a3.38,3.38,0,0,0-3.37,3.36Z"/><rect class="cls-39" x="579" y="595.39" width="14.43" height="61.21"/><polygon class="cls-40" points="581.04 609.14 586.55 614.12 586.55 652.8 581.04 652.8 581.04 609.14"/><path class="cls-41" d="M574.2,664.64h24v-6.25a3.38,3.38,0,0,0-3.37-3.36h-17.3a3.37,3.37,0,0,0-3.36,3.36Z"/><rect class="cls-42" x="290.18" y="594.89" width="320.97" height="10.95"/><path class="cls-43" d="M305.87,448H290.18V597.65h15.69a7.61,7.61,0,0,0,7.59-7.59V455.58A7.61,7.61,0,0,0,305.87,448Z"/><path class="cls-44" d="M290.18,565.08v32.57h15.69a7.61,7.61,0,0,0,7.59-7.59v-25Z"/><path class="cls-45" d="M290.18,585.38v12.27h15.69a7.61,7.61,0,0,0,7.59-7.59v-4.68Z"/><path class="cls-46" d="M302.77,451.35H290.18v112h12.59a7.46,7.46,0,0,0,7.44-7.44V458.79A7.46,7.46,0,0,0,302.77,451.35Z"/><path class="cls-46" d="M302.77,567.28H290.18V593h12.59a7.47,7.47,0,0,0,7.44-7.45V574.72A7.46,7.46,0,0,0,302.77,567.28Z"/><path class="cls-47" d="M302.77,567.28H290.18v5.54h12.59a7.46,7.46,0,0,1,7.44,7.44v-5.54A7.46,7.46,0,0,0,302.77,567.28Z"/><path class="cls-47" d="M302.77,451.35H290.18v12.51h12.59a7.47,7.47,0,0,1,7.44,7.45V458.79A7.46,7.46,0,0,0,302.77,451.35Z"/><path class="cls-43" d="M327.28,448H450.13a7.62,7.62,0,0,1,7.59,7.6V590.06a7.61,7.61,0,0,1-7.59,7.59H327.28a7.6,7.6,0,0,1-7.58-7.59V455.58A7.61,7.61,0,0,1,327.28,448Z"/><path class="cls-44" d="M457.72,565.08v25a7.61,7.61,0,0,1-7.59,7.59H327.28a7.6,7.6,0,0,1-7.58-7.59v-25Z"/><path class="cls-45" d="M457.72,585.38v4.68a7.61,7.61,0,0,1-7.59,7.59H327.28a7.6,7.6,0,0,1-7.58-7.59v-4.68Z"/><path class="cls-46" d="M330.39,451.35H447a7.45,7.45,0,0,1,7.44,7.44v97.08a7.46,7.46,0,0,1-7.44,7.44H330.39a7.46,7.46,0,0,1-7.44-7.44V458.79A7.46,7.46,0,0,1,330.39,451.35Z"/><path class="cls-47" d="M419.86,563.31h-62.3V504.52a31.24,31.24,0,0,1,31.15-31.15h0a31.24,31.24,0,0,1,31.15,31.15Z"/><path class="cls-46" d="M330.39,567.28H447a7.46,7.46,0,0,1,7.44,7.44v10.82A7.47,7.47,0,0,1,447,593H330.39a7.47,7.47,0,0,1-7.44-7.45V574.72A7.46,7.46,0,0,1,330.39,567.28Z"/><path class="cls-47" d="M330.39,572.82H447a7.45,7.45,0,0,1,7.44,7.44v-5.54a7.46,7.46,0,0,0-7.44-7.44H330.39a7.46,7.46,0,0,0-7.44,7.44v5.54A7.46,7.46,0,0,1,330.39,572.82Z"/><path class="cls-47" d="M330.39,463.86H447a7.46,7.46,0,0,1,7.44,7.45V458.79a7.45,7.45,0,0,0-7.44-7.44H330.39a7.46,7.46,0,0,0-7.44,7.44v12.52A7.47,7.47,0,0,1,330.39,463.86Z"/><path class="cls-43" d="M471.54,448H594.38a7.61,7.61,0,0,1,7.59,7.6V590.06a7.61,7.61,0,0,1-7.59,7.59H471.54a7.61,7.61,0,0,1-7.59-7.59V455.58A7.61,7.61,0,0,1,471.54,448Z"/><path class="cls-44" d="M602,565.08v25a7.61,7.61,0,0,1-7.59,7.59H471.54a7.61,7.61,0,0,1-7.59-7.59v-25Z"/><path class="cls-45" d="M602,585.38v4.68a7.61,7.61,0,0,1-7.59,7.59H471.54a7.61,7.61,0,0,1-7.59-7.59v-4.68Z"/><path class="cls-46" d="M474.65,451.35H591.27a7.46,7.46,0,0,1,7.45,7.44v97.08a7.46,7.46,0,0,1-7.45,7.44H474.65a7.46,7.46,0,0,1-7.45-7.44V458.79A7.46,7.46,0,0,1,474.65,451.35Z"/><path class="cls-47" d="M564.11,563.31h-62.3V504.52A31.24,31.24,0,0,1,533,473.37h0a31.24,31.24,0,0,1,31.15,31.15Z"/><path class="cls-46" d="M474.65,567.28H591.27a7.47,7.47,0,0,1,7.45,7.44v10.82a7.47,7.47,0,0,1-7.45,7.45H474.65a7.47,7.47,0,0,1-7.45-7.45V574.72A7.47,7.47,0,0,1,474.65,567.28Z"/><path class="cls-47" d="M474.65,572.82H591.27a7.46,7.46,0,0,1,7.45,7.44v-5.54a7.47,7.47,0,0,0-7.45-7.44H474.65a7.47,7.47,0,0,0-7.45,7.44v5.54A7.46,7.46,0,0,1,474.65,572.82Z"/><path class="cls-47" d="M474.65,463.86H591.27a7.47,7.47,0,0,1,7.45,7.45V458.79a7.46,7.46,0,0,0-7.45-7.44H474.65a7.46,7.46,0,0,0-7.45,7.44v12.52A7.47,7.47,0,0,1,474.65,463.86Z"/><path class="cls-44" d="M319.67,527.81v-10L355,547.48c2,1.73,8.5,7.46,9.2,15.75l.37,4.31h-9.33l-.3-3.55c-.44-5.12-3.74-7.42-6.13-9.6Z"/><polygon class="cls-45" points="355.05 565.61 364.38 565.61 364.55 567.54 355.22 567.54 355.05 565.61"/><path class="cls-40" d="M364.23,563.85H354.9c-.48-5-3.74-7.31-6.11-9.46l-25.86-23.61V520.55L355,547.48c2,1.73,8.5,7.46,9.2,15.75Z"/><path class="cls-40" d="M364.23,563.85h-6.69v-14c2.67,2.77,6.14,7.41,6.64,13.36Z"/><path class="cls-48" d="M311.11,605.85h10.42V521.31c0-6.43-10.42-6.43-10.42,0Z"/><path class="cls-40" d="M312.58,605.85h6.15V522.41c0-3.79-6.15-3.79-6.15,0Z"/><path class="cls-49" d="M464,527.81v-10l35.3,29.67c2.05,1.73,8.49,7.46,9.2,15.75l.37,4.31h-9.33l-.3-3.55c-.44-5.12-3.74-7.42-6.13-9.6Z"/><polygon class="cls-45" points="499.33 565.61 508.65 565.61 508.82 567.54 499.49 567.54 499.33 565.61"/><path class="cls-40" d="M508.5,563.85h-9.32c-.49-5-3.76-7.31-6.12-9.46L467.2,530.78V520.55l32.05,26.93c2.05,1.73,8.49,7.46,9.2,15.75Z"/><path class="cls-40" d="M508.5,563.85h-6.69v-14c2.68,2.77,6.13,7.41,6.64,13.36Z"/><path class="cls-48" d="M455.48,605.85h10.43V521.31c0-6.43-10.43-6.43-10.43,0Z"/><path class="cls-40" d="M457,605.85h6.15V522.41c0-3.79-6.15-3.79-6.15,0Z"/><path class="cls-48" d="M600.73,605.85h10.42V521.31c0-6.43-10.42-6.43-10.42,0Z"/><path class="cls-40" d="M602.2,605.85h6.15V522.41c0-3.79-6.15-3.79-6.15,0Z"/><path class="cls-17" d="M549.05,384.55a17.24,17.24,0,0,0-6.8-10.76c-11.31-8.29-24.29-3.83-29.69,7.92s-2.7,20.54-13.78,25.41-26.08,15-32.43,35.94,9.86,25.27,2,43.38S439.45,518.6,470,531.3s73.78-2.43,92.43-2.7,57.61-3.69,57.84-29.19c.3-33.13-31.22-22.7-42.84-36.35s5.27-19.86-14.19-35.81c-11-9-23-12.16-18.64-23.24S551.14,387.52,549.05,384.55Z"/><path class="cls-50" d="M536.61,410.22s-1.21,9.06,0,13.11c0,0-6.89,2.57-12.16-2.43,0,0,1.76-11.62-.67-18S536.61,410.22,536.61,410.22Z"/><path class="cls-50" d="M523.78,402.93a27.16,27.16,0,0,1,1.28,9.07c1.71,1.23,4.71,2.62,10,3.4a5.22,5.22,0,0,0,1.11.05c.15-2.85.46-5.23.46-5.23S521.35,396.57,523.78,402.93Z"/><path class="cls-50" d="M594.65,483.94c-6.22-1.36-7.14,1.42-7.14,1.42s-32.32,1.15-40.7-13.85c-4-7.22-3.89-16.66-2.67-24.51a32.88,32.88,0,0,1-8.21,1.05,29.6,29.6,0,0,1-11.73-2.44c-3.09,13.53-3.62,29.52,6.67,39.27,20.54,19.46,55.13,5.68,55.13,5.68s9.06-4.19,11.35-1.49c0,0,.88,1.49,2,.95S600.87,485.29,594.65,483.94Z"/><path class="cls-51" d="M616.34,509.25s25.54-3.22,51.48,20.29,55.55,56,55.55,56L714,595.62S670.66,577,644.31,549.41,616.34,509.25,616.34,509.25Z"/><path class="cls-52" d="M503.25,509.18s-12.77,12-7.9,33.85,63.64,23.31,92,12.36,34-14.18,34-14.18S603.7,570.4,634.11,642.15H648s9-114.63-10.54-126.91S503.25,509.18,503.25,509.18Z"/><path class="cls-50" d="M547.83,385.63s-1.42,29-12.37,27.36-12.16-5.87-12.16-5.87S518,386,529.79,381,547.83,385.63,547.83,385.63Z"/><path class="cls-14" d="M524.45,420.9a41.66,41.66,0,0,0-28.65,19.86s11.76,2.71,15.14,10.82c0,0-12,36.21-6.35,54.85,0,0,25.94,9.74,42.16,2.71,0,0-1.08-27.84,3-35.94s10.88-16.83,5.41-26.76-12.81-20.27-18.52-23.11A26.91,26.91,0,0,0,524.45,420.9Z"/><path class="cls-17" d="M549.05,384.55a39.73,39.73,0,0,1-9.6,7.84c-5.27,2.84-10.4,2.43-11.22,5.67,0,0-1.21-7.15-3.64-4.86s1.21,7.16,1.21,7.16,5,7.3-3.67,10-14.43-3.65-13.35-12.7,13-19.87,18.78-21.35S542.69,365.5,549.05,384.55Z"/><path class="cls-12" d="M633.9,638.14h13.93V648s21,21.74,18.47,23.45-24-10.52-24.58-10.94,1.28-6.1-1.28-5.61a4.69,4.69,0,0,0-3.41,2.48l-7.25-4.69S635.75,647.81,633.9,638.14Z"/><path class="cls-12" d="M712.89,595.14l6.31-12.41,8.74,4.45s28.92-8.87,29.28-5.82S737,598,736.31,598.3s-4.84-3.9-5.57-1.4a4.67,4.67,0,0,0,.66,4.16l-7.47,4.33S722.33,597.88,712.89,595.14Z"/><polygon class="cls-53" points="553.5 511.03 537.12 509.11 549.58 504.18 633.76 505.71 630.26 511.03 553.5 511.03"/><path class="cls-50" d="M495.8,440.76s-22.56,44.33-2,63.78,55.13,5.68,55.13,5.68,9.05-4.19,11.35-1.49c0,0,.88,1.49,2,.95s1.49-4.73-4.73-6.08-7.15,1.42-7.15,1.42-32.31,1.15-40.69-13.86,1.22-39.58,1.22-39.58S508.91,441.71,495.8,440.76Z"/><path class="cls-12" d="M579.59,472.38a4.67,4.67,0,0,0-3.53,1.95l-21.87,34.76c-.67,1.06-.19,1.94,1.07,1.94H628a4.74,4.74,0,0,0,3.56-1.92L654.4,474.3c.7-1.05.23-1.92-1-1.92Z"/><path class="cls-54" d="M476.7,574.36v-3.87c0-6-3.28-11-7.16-11H447.68c-3.89,0-7.17,5.06-7.17,11v3.87h-5.2v-3.87c0-9,5.55-16.33,12.37-16.33h21.86c6.81,0,12.36,7.33,12.36,16.33v3.87Z"/><path class="cls-5" d="M384.74,643.68a7.33,7.33,0,0,0,7.27,7.39h95.61a7.33,7.33,0,0,0,7.27-7.39v-64a7.34,7.34,0,0,0-7.27-7.4H392a7.33,7.33,0,0,0-7.27,7.4Z"/><path class="cls-7" d="M395.86,577.94v67.43a7.25,7.25,0,0,0,2.75,5.7H397a8.4,8.4,0,0,1-2.22-5.7V577.94a8.43,8.43,0,0,1,2.22-5.7h1.62A7.28,7.28,0,0,0,395.86,577.94Z"/><path class="cls-6" d="M408.29,643.68a7.34,7.34,0,0,0,7.28,7.39h95.6a7.34,7.34,0,0,0,7.28-7.39v-64a7.34,7.34,0,0,0-7.28-7.4h-95.6a7.34,7.34,0,0,0-7.28,7.4Z"/><rect class="cls-5" x="496.45" y="572.24" width="7.27" height="78.83"/><polygon class="cls-9" points="496.95 592.66 503.11 592.66 503.11 584.92 504.65 584.92 504.65 594.73 495.41 594.73 495.41 584.92 496.95 584.92 496.95 592.66"/><rect class="cls-5" x="429.25" y="572.24" width="7.27" height="78.83"/><polygon class="cls-9" points="429.75 592.66 435.91 592.66 435.91 584.92 437.45 584.92 437.45 594.73 428.21 594.73 428.21 584.92 429.75 584.92 429.75 592.66"/><rect class="cls-55" x="371.12" y="642.73" width="143.11" height="51.23"/><rect class="cls-56" x="388.68" y="644.33" width="139.96" height="48.04"/><rect class="cls-54" x="388.68" y="665.57" width="139.96" height="1.28"/><path class="cls-55" d="M530.21,694H387.1V642.73H530.21Zm-140-3.2h136.8V645.93H390.26Z"/><path class="cls-55" d="M435.71,668.77a4.45,4.45,0,0,1-4.41,4.49h-1.68a4.46,4.46,0,0,1-4.42-4.49v-6.83a4.45,4.45,0,0,1,4.42-4.48h1.68a4.45,4.45,0,0,1,4.41,4.48Z"/><path class="cls-57" d="M434.29,667.85a3.24,3.24,0,0,1-3.21,3.27h-1.23a3.25,3.25,0,0,1-3.23-3.27v-5a3.26,3.26,0,0,1,3.23-3.27h1.23a3.25,3.25,0,0,1,3.21,3.27Z"/><path class="cls-55" d="M489.51,668.77a4.45,4.45,0,0,1-4.41,4.49h-1.68a4.45,4.45,0,0,1-4.41-4.49v-6.83a4.45,4.45,0,0,1,4.41-4.48h1.68a4.45,4.45,0,0,1,4.41,4.48Z"/><path class="cls-57" d="M488.09,667.85a3.24,3.24,0,0,1-3.22,3.27h-1.22a3.24,3.24,0,0,1-3.22-3.27v-5a3.25,3.25,0,0,1,3.22-3.27h1.22a3.25,3.25,0,0,1,3.22,3.27Z"/><path class="cls-9" d="M484.26,664.72a3.17,3.17,0,0,1-3.15,3.2h-47a3.17,3.17,0,0,1-3.15-3.2h0a3.18,3.18,0,0,1,3.15-3.21h47a3.18,3.18,0,0,1,3.15,3.21Z"/><path class="cls-58" d="M483.84,664.72h-47a3.17,3.17,0,0,1-3.14-3.16,3.2,3.2,0,0,0,.41,6.36h47a3.17,3.17,0,0,0,3.15-3.2v0C484.12,664.69,484,664.72,483.84,664.72Z"/><path class="cls-10" d="M306.64,681.58s22.88,2.79,10.78,9-30.43,9.63-42.22,6.18-8.84-11.53,2.56-14.06S306.64,681.58,306.64,681.58Z"/><path class="cls-10" d="M320.27,669.05s-12.14,7.65-.35,8.75,31.3-2,35.35-6.3-.14-9.31-11.67-9.35S324.56,665.48,320.27,669.05Z"/><rect class="cls-39" x="19.19" y="595.39" width="14.42" height="61.21"/><polygon class="cls-40" points="21.23 609.14 26.73 614.12 26.73 652.8 21.23 652.8 21.23 609.14"/><path class="cls-41" d="M14.38,664.64h24v-6.25A3.37,3.37,0,0,0,35.05,655H17.75a3.38,3.38,0,0,0-3.37,3.36Z"/><rect class="cls-39" x="163.74" y="595.39" width="14.43" height="61.21"/><polygon class="cls-40" points="165.78 609.14 171.29 614.12 171.29 652.8 165.78 652.8 165.78 609.14"/><path class="cls-41" d="M158.93,664.64h24v-6.25A3.38,3.38,0,0,0,179.6,655H162.3a3.38,3.38,0,0,0-3.37,3.36Z"/><rect class="cls-42" y="594.89" width="320.97" height="10.95"/><path class="cls-43" d="M15.69,448H0V597.65H15.69a7.61,7.61,0,0,0,7.59-7.59V455.58A7.61,7.61,0,0,0,15.69,448Z"/><path class="cls-44" d="M0,565.08v32.57H15.69a7.61,7.61,0,0,0,7.59-7.59v-25Z"/><path class="cls-45" d="M0,585.38v12.27H15.69a7.61,7.61,0,0,0,7.59-7.59v-4.68Z"/><path class="cls-46" d="M12.58,451.35H0v112H12.58A7.46,7.46,0,0,0,20,555.87V458.79A7.46,7.46,0,0,0,12.58,451.35Z"/><path class="cls-46" d="M12.58,567.28H0V593H12.58A7.47,7.47,0,0,0,20,585.54V574.72A7.47,7.47,0,0,0,12.58,567.28Z"/><path class="cls-47" d="M12.58,567.28H0v5.54H12.58A7.46,7.46,0,0,1,20,580.26v-5.54A7.47,7.47,0,0,0,12.58,567.28Z"/><path class="cls-47" d="M12.58,451.35H0v12.51H12.58A7.47,7.47,0,0,1,20,471.31V458.79A7.46,7.46,0,0,0,12.58,451.35Z"/><path class="cls-43" d="M37.1,448H159.94a7.62,7.62,0,0,1,7.6,7.6V590.06a7.61,7.61,0,0,1-7.6,7.59H37.1a7.61,7.61,0,0,1-7.59-7.59V455.58A7.61,7.61,0,0,1,37.1,448Z"/><path class="cls-44" d="M167.54,565.08v25a7.61,7.61,0,0,1-7.6,7.59H37.1a7.61,7.61,0,0,1-7.59-7.59v-25Z"/><path class="cls-45" d="M167.54,585.38v4.68a7.61,7.61,0,0,1-7.6,7.59H37.1a7.61,7.61,0,0,1-7.59-7.59v-4.68Z"/><path class="cls-46" d="M40.21,451.35H156.84a7.46,7.46,0,0,1,7.44,7.44v97.08a7.46,7.46,0,0,1-7.44,7.44H40.21a7.47,7.47,0,0,1-7.45-7.44V458.79A7.47,7.47,0,0,1,40.21,451.35Z"/><path class="cls-47" d="M129.67,563.31H67.37V504.52a31.24,31.24,0,0,1,31.15-31.15h0a31.24,31.24,0,0,1,31.15,31.15Z"/><path class="cls-46" d="M40.21,567.28H156.84a7.46,7.46,0,0,1,7.44,7.44v10.82a7.47,7.47,0,0,1-7.44,7.45H40.21a7.48,7.48,0,0,1-7.45-7.45V574.72A7.47,7.47,0,0,1,40.21,567.28Z"/><path class="cls-47" d="M40.21,572.82H156.84a7.46,7.46,0,0,1,7.44,7.44v-5.54a7.46,7.46,0,0,0-7.44-7.44H40.21a7.47,7.47,0,0,0-7.45,7.44v5.54A7.47,7.47,0,0,1,40.21,572.82Z"/><path class="cls-47" d="M40.21,463.86H156.84a7.47,7.47,0,0,1,7.44,7.45V458.79a7.46,7.46,0,0,0-7.44-7.44H40.21a7.47,7.47,0,0,0-7.45,7.44v12.52A7.48,7.48,0,0,1,40.21,463.86Z"/><rect class="cls-59" x="173.77" y="447.98" width="138.02" height="149.66" rx="7.59"/><path class="cls-44" d="M311.79,565.08v25a7.61,7.61,0,0,1-7.6,7.59H181.36a7.61,7.61,0,0,1-7.59-7.59v-25Z"/><path class="cls-45" d="M311.79,585.38v4.68a7.61,7.61,0,0,1-7.6,7.59H181.36a7.61,7.61,0,0,1-7.59-7.59v-4.68Z"/><path class="cls-46" d="M184.47,451.35H301.09a7.47,7.47,0,0,1,7.45,7.44v97.08a7.47,7.47,0,0,1-7.45,7.44H184.47a7.46,7.46,0,0,1-7.45-7.44V458.79A7.46,7.46,0,0,1,184.47,451.35Z"/><path class="cls-47" d="M273.93,563.31h-62.3V504.52a31.24,31.24,0,0,1,31.15-31.15h0a31.24,31.24,0,0,1,31.15,31.15Z"/><rect class="cls-56" x="177.02" y="567.28" width="131.52" height="25.71" rx="7.45"/><path class="cls-47" d="M184.47,572.82H301.09a7.47,7.47,0,0,1,7.45,7.44v-5.54a7.47,7.47,0,0,0-7.45-7.44H184.47a7.47,7.47,0,0,0-7.45,7.44v5.54A7.46,7.46,0,0,1,184.47,572.82Z"/><path class="cls-47" d="M184.47,463.86H301.09a7.48,7.48,0,0,1,7.45,7.45V458.79a7.47,7.47,0,0,0-7.45-7.44H184.47a7.46,7.46,0,0,0-7.45,7.44v12.52A7.47,7.47,0,0,1,184.47,463.86Z"/><path class="cls-44" d="M29.49,527.81v-10L64.8,547.48c2,1.73,8.5,7.46,9.2,15.75l.36,4.31H65L64.73,564c-.43-5.12-3.73-7.42-6.12-9.6Z"/><polygon class="cls-45" points="64.87 565.61 74.2 565.61 74.36 567.54 65.04 567.54 64.87 565.61"/><path class="cls-40" d="M74.05,563.85H64.72c-.49-5-3.74-7.31-6.11-9.46L32.75,530.78V520.55L64.8,547.48c2,1.73,8.5,7.46,9.2,15.75Z"/><path class="cls-40" d="M74.05,563.85h-6.7v-14c2.68,2.77,6.14,7.41,6.65,13.36Z"/><path class="cls-48" d="M20.93,605.85H31.35V521.31c0-6.43-10.42-6.43-10.42,0Z"/><path class="cls-40" d="M22.4,605.85h6.15V522.41c0-3.79-6.15-3.79-6.15,0Z"/><path class="cls-49" d="M173.77,527.81v-10l35.3,29.67c2,1.73,8.49,7.46,9.2,15.75l.37,4.31h-9.33L209,564c-.44-5.12-3.74-7.42-6.13-9.6Z"/><polygon class="cls-45" points="209.15 565.61 218.47 565.61 218.64 567.54 209.31 567.54 209.15 565.61"/><path class="cls-40" d="M218.32,563.85H209c-.48-5-3.75-7.31-6.11-9.46L177,530.78V520.55l32,26.93c2,1.73,8.49,7.46,9.2,15.75Z"/><path class="cls-40" d="M218.32,563.85h-6.69v-14c2.67,2.77,6.13,7.41,6.64,13.36Z"/><path class="cls-48" d="M165.3,605.85h10.43V521.31c0-6.43-10.43-6.43-10.43,0Z"/><path class="cls-40" d="M166.78,605.85h6.15V522.41c0-3.79-6.15-3.79-6.15,0Z"/><path class="cls-48" d="M310.55,605.85H321V521.31c0-6.43-10.42-6.43-10.42,0Z"/><path class="cls-40" d="M312,605.85h6.15V522.41c0-3.79-6.15-3.79-6.15,0Z"/><line class="cls-54" x1="261.47" y1="666.85" x2="261.47" y2="665.57"/><path class="cls-55" d="M259.89,690.76V645.93"/><path class="cls-12" d="M1464.06,585.34l-22.49,7.59-.16,1.92,29.63-1a2.92,2.92,0,0,0,3-2.89l0-5.26Z"/><path class="cls-60" d="M1482.79,533.87c-1.85,10.16-6.23,40.21-8.93,52.61l-9.95-1s1.88-32.78,1.54-53.32Z"/><path class="cls-6" d="M1561.54,466.22s-45.1-26.31-79.54-17.33-18.68,123.57-18.68,123.57l13.72,2.83s20.82-48,21.1-84.59c0,0,35.25,30.55,67.92,32.9s52.31-12,58.29-23.53l-1.12-22.42-28.65-4.42Z"/><path class="cls-12" d="M1561.54,466.22s-3.61-2.11-9.58-4.93c-.39,4.94-.19,22.9,22.07,29.83,20.6,6.41,39.68,5.54,48.5,11.92a24.76,24.76,0,0,0,1.82-3l-1.12-22.42-28.65-4.42Z"/><path class="cls-14" d="M1569,326.63c9.87-5.19,35-12.67,44.17,17.7,14.14,46.66,40.65,38.71,45.31,71.84,3.89,27.62-57.32,82.94-104,38.7S1539,342.36,1569,326.63Z"/><path class="cls-61" d="M1600.91,376.11s27.21,16.06-4.77,41.13c-28.08,22-68.64,28.15-112.41,32.75,0,0-9.45,8-12.8,3.79s.23-9.63,11.1-9.69c0,0,41-18.84,56.73-26.14S1575.62,362.56,1600.91,376.11Z"/><path class="cls-7" d="M1592,372.69s-29.34,3.32-36.22,29.66-4.82,72.13,13.63,80.57,52.89,8.59,54.95,17.15c0,0,11.68-9.95,9.57-52.22S1620.64,369.63,1592,372.69Z"/><path class="cls-60" d="M1581,356.82l-2.9,19.34a10,10,0,0,0,9.12,11.53,11.66,11.66,0,0,0,12.28-9.77l2.92-19.48a9.93,9.93,0,0,0-9.11-11.39,11.68,11.68,0,0,0-12.31,9.77Z"/><path class="cls-62" d="M1580.32,356.76,1577.44,376a13.69,13.69,0,0,0,4,.9c9.49.78,18.5-7.46,20.33-18.47a9.92,9.92,0,0,0-9.11-11.38,11.68,11.68,0,0,0-12.3,9.76Z"/><path class="cls-60" d="M1586.45,332.1c-9.58-.79-18.1,7.7-19,19a23.92,23.92,0,0,0,.68,7.95c2,7.59,7.76,13.29,15,13.89,9.58.79,18.1-7.71,19-19S1596,332.89,1586.45,332.1Z"/><path class="cls-14" d="M1581.3,329.52c-2,4.67-1.88,24.59,18.75,24.41,15.11-.14,11.43-14.49,1.17-21.35S1584,323.21,1581.3,329.52Z"/><path class="cls-60" d="M1599,352.69c-1.94,2.94-2.18,6.2-.54,7.29s4.64-.37,6.49-3.37c1-1.61,1.09-5-.68-6.67C1601.51,347.37,1601,349.75,1599,352.69Z"/><path class="cls-62" d="M1612.18,402.4s-21,11.58-20.54,12.09.06,1.35.06,1.35l-39.55,17.73a125.56,125.56,0,0,0,1.57,20.14C1628.54,439.16,1612.18,402.4,1612.18,402.4Z"/><path class="cls-60" d="M1604.65,391.71s25.52,18.62-8.75,40.48c-30.09,19.18-71.05,21.35-115.06,21.68,0,0-10.18,7.06-13.1,2.53s1.16-9.57,12-8.57c0,0,42.63-14.77,59-20.51S1580.78,375.77,1604.65,391.71Z"/><path class="cls-63" d="M1602.49,350.91a3.49,3.49,0,0,1,.83,1.14,3.88,3.88,0,0,1,.32,1.41,2.87,2.87,0,0,1-.36,1.43,2.45,2.45,0,0,1-1,1,6.26,6.26,0,0,0,.59-1.19,4.17,4.17,0,0,0,.18-1.21A10.13,10.13,0,0,0,1602.49,350.91Z"/><path class="cls-63" d="M1599.72,355a2.45,2.45,0,0,1,.57-.94,2.8,2.8,0,0,1,.94-.64,2.09,2.09,0,0,1,1.16-.1,1.78,1.78,0,0,1,1,.57,5.3,5.3,0,0,0-1-.07,3,3,0,0,0-.89.2A10.35,10.35,0,0,0,1599.72,355Z"/><path class="cls-5" d="M1566.06,523.6c22.74,1.63,39.16-4.84,49.07-12.8-33.51,14.47-63.07,3.94-86.28-5.95-28.15-12-35.63-25.64-35.63-25.64,3.58,31.17-14.8,88.25-18.13,95.68l2,.4s20.82-48,21.1-84.59C1498.14,490.7,1533.39,521.25,1566.06,523.6Z"/><path class="cls-64" d="M1642.25,556.58V553c0-5.65-3.14-10.42-6.86-10.42h-20.91c-3.72,0-6.86,4.77-6.86,10.42v3.63h-5V553c0-8.49,5.31-15.39,11.83-15.39h20.91c6.52,0,11.83,6.9,11.83,15.39v3.63Z"/><rect class="cls-14" x="1554.27" y="554.6" width="105.38" height="74.23" rx="6.96"/><path class="cls-65" d="M1564.91,560v63.5a6.77,6.77,0,0,0,2.63,5.36H1566a7.8,7.8,0,0,1-2.13-5.36V560a7.8,7.8,0,0,1,2.13-5.36h1.55A6.77,6.77,0,0,0,1564.91,560Z"/><rect class="cls-7" x="1576.8" y="554.6" width="105.38" height="74.23" rx="6.96"/><rect class="cls-14" x="1661.14" y="554.6" width="6.96" height="74.23"/><polygon class="cls-9" points="1661.62 573.82 1667.51 573.82 1667.51 566.53 1668.98 566.53 1668.98 575.77 1660.14 575.77 1660.14 566.53 1661.62 566.53 1661.62 573.82"/><rect class="cls-14" x="1596.85" y="554.6" width="6.96" height="74.23"/><polygon class="cls-9" points="1597.33 573.82 1603.22 573.82 1603.22 566.53 1604.7 566.53 1604.7 575.77 1595.85 575.77 1595.85 566.53 1597.33 566.53 1597.33 573.82"/><rect class="cls-51" x="1515.61" y="506.66" width="136.9" height="48.25"/><rect class="cls-52" x="1532.41" y="508.16" width="133.89" height="45.23"/><rect class="cls-12" x="1532.41" y="528.17" width="133.89" height="1.21"/><path class="cls-12" d="M1667.81,554.91H1530.9V506.66h136.91Zm-133.89-3h130.87V509.67H1533.92Z"/><rect class="cls-51" x="1567.35" y="520.53" width="10.05" height="14.88" rx="4.22"/><rect class="cls-52" x="1568.71" y="522.54" width="7.34" height="10.86" rx="3.08"/><rect class="cls-51" x="1618.82" y="520.53" width="10.05" height="14.88" rx="4.22"/><rect class="cls-52" x="1620.18" y="522.54" width="7.34" height="10.86" rx="3.08"/><path class="cls-16" d="M1623.84,527.36a3,3,0,0,1-3,3h-44.94a3,3,0,0,1-3-3h0a3,3,0,0,1,3-3h44.94a3,3,0,0,1,3,3Z"/><path class="cls-12" d="M1623.44,527.36H1578.5a3,3,0,0,1-3-3,3,3,0,0,0,.4,6h44.94a3,3,0,0,0,3-3v0A2.58,2.58,0,0,1,1623.44,527.36Z"/></g></g></g></svg>