<svg xmlns="http://www.w3.org/2000/svg" xmlns:xlink="http://www.w3.org/1999/xlink" viewBox="0 0 803.61 511.39"><defs><style>.cls-1{isolation:isolate;}.cls-2{fill:url(#linear-gradient);}.cls-3{fill:#6db9d1;opacity:0.7;}.cls-4{fill:#fdeebb;mix-blend-mode:screen;opacity:0.3;}.cls-5{fill:#eaf7f9;}.cls-6{fill:#ffffe5;}.cls-7{fill:#a1d3e2;mix-blend-mode:multiply;opacity:0.5;}.cls-8{fill:#233542;}.cls-9{fill:#fa0;}.cls-10{opacity:0.8;}.cls-11{fill:#fff;}.cls-12{fill:#f4eed8;}.cls-13{fill:#302d4a;}.cls-14{fill:none;}</style><linearGradient id="linear-gradient" x1="394.63" y1="437.74" x2="393.45" y2="0.96" gradientUnits="userSpaceOnUse"><stop offset="0" stop-color="#ffffe5"/><stop offset="1" stop-color="#a1d3e2"/></linearGradient></defs><g class="cls-1"><g id="Layer_2" data-name="Layer 2"><g id="Layer_7" data-name="Layer 7"><rect class="cls-2" x="3.9" width="780.31" height="448.68"/><polygon class="cls-3" points="803.61 252.5 798.13 252.5 799.47 210.9 770.71 210.9 771.38 231.65 748.07 231.65 750.44 132.86 741.34 132.86 743.14 116.56 730.02 116.56 728.69 78.27 728.15 78.27 726.82 116.56 714.37 116.56 716.17 132.86 707.07 132.86 708.37 187.28 679.07 187.28 682.18 253.93 668.98 253.93 671.3 168.2 653.03 168.2 651.83 149.09 651.29 149.09 650.1 168.2 633.6 168.2 634.76 210.9 613.15 210.9 614.89 264.49 603.51 264.49 607.68 162.75 588.52 162.75 588.67 157.81 572.13 157.81 573.72 66.45 541.55 66.45 542.54 123.29 524.11 123.29 525.75 202.4 519.29 202.4 518 181.76 517.46 181.76 516.17 202.4 494.89 202.4 497.5 262 483.78 262 487.38 145.35 478.74 145.35 481.4 107.63 474.89 107.63 476.43 85.67 470.15 85.67 471.62 76.73 463.28 76.73 461.96 40.17 461.55 40.17 460.24 76.73 451.89 76.73 453.37 85.67 447.09 85.67 448.62 107.63 442.11 107.63 444.77 145.35 436.13 145.35 437.61 193.26 420.65 193.26 421.17 175.26 416.8 160.26 419.08 137.15 410.05 137.15 403.54 114.82 396.07 137.15 386.63 137.15 388.79 158.95 383.33 175.26 385.54 251.63 374.51 251.63 376.94 202.4 368.99 202.4 370.08 191.91 335.05 191.91 336.14 202.4 328.2 202.4 329.3 224.71 321.65 224.71 323.96 139.41 277.1 139.41 278.54 192.48 267.81 192.48 267.82 192.18 231.06 192.18 231.91 218.71 202.12 218.71 205.15 92.44 193.52 92.44 161.35 92.44 149.71 92.44 151.38 161.99 113.93 161.99 117.9 247.18 101.03 247.18 104 137.6 93 114.25 82.39 113.18 75.45 113.4 66.79 114.06 55.81 137.6 57.29 192.18 29.68 192.18 31.89 260.67 17.36 260.67 2.5 265.19 0 308.37 271.98 283.74 272.02 282.53 802.73 282.53 803.61 252.5"/><path class="cls-4" d="M551,81.65c4.36,2.26,10.14,2.18,15,2.37a36.63,36.63,0,0,0,8.49-.19,1.77,1.77,0,0,0,1.55,2.41l.35,0a4,4,0,0,0,.46.62,45.94,45.94,0,0,0-13.09,2.43,2.56,2.56,0,0,0-1.68,2l-.67.16a1.64,1.64,0,0,0,0,3.11c2.23.71,4.76.58,7.21.56a34.59,34.59,0,0,0,3.83.13,43.42,43.42,0,0,0,8.75-.36,81.67,81.67,0,0,1,11.65-1.25l2.22,0a164.18,164.18,0,0,0,21.55,1.75c2.85.08,8.61.46,12.74-.89,4.64-.3,9.25-1.05,13.37-3.37a1.64,1.64,0,0,0,0-2.79l-.39-.18a21.8,21.8,0,0,0,6.1-1.83c1.5-.73.35-2.81-1.06-2.55-3.08.57-6.54-.38-9.65-.56a.91.91,0,0,0-.7-1.06l-.36-.07c1.28-.06,2.56-.14,3.83-.25C649.83,81,659,80,668.35,79.46c5,.49,9.95.7,14.95.81,3,.07,6.15.33,9.19.21,2.88-.11,5.62-1.07,8.49-1.17a4.56,4.56,0,0,0,4.38-5.48,27.36,27.36,0,0,0,5.08-.8c.5-.14,1-.3,1.5-.47,1.6-.07,3.2-.16,4.79-.35A2.92,2.92,0,0,0,719,70.85c.91-.09,1.84-.2,2.81-.36,5.76-1,13.1-1,18.29-3.88l.54,0c4.77-.21,9.55-.55,14.33-.69a54.79,54.79,0,0,0,5.73-.05c5.79,0,12-.45,16.68-4.26,2.16-1.76,1-6-1.68-6.49a248.35,248.35,0,0,0-37-4.22c-4.87-.14-9.68-.1-14.5.14a4.6,4.6,0,0,0,.37-.94,2,2,0,0,0-.09-1.27c1.71.19,3.43.28,5,.44,3.79.4,6.83.56,9.68-2.38.94-1,.67-3.15-.87-3.36l-.39-.06a.75.75,0,0,0-.15,0l0,0c-3.39,0-7.29-1.33-10.68-1.92A13.86,13.86,0,0,0,717.71,43a2.32,2.32,0,0,0-.26,3.72c-1.26-.31-2.51-.62-3.69-.79-4-.57-7.86-1.62-11.83-2.26-1.52-.24-3-.44-4.58-.6a6.2,6.2,0,0,0,2.56-2.43,2.73,2.73,0,0,0-.41-3.22l-.22-.18c-1.33-1.16-3.88-1.67-5.47-2.4a22.79,22.79,0,0,0-9.45-1.87c-7.28-.07-14.5.44-19.93,5.92a3.06,3.06,0,0,0-.18,4c-3.91-.3-7.82-.64-11.74-.85-5.67-.29-11-1.74-16.63-.55-3.64.77-7.88,3-8.21,6.82-1.37.1-2.73.22-4.08.33-2.65.22-5.8.27-8.25,1.32-2.26,1-4.31,2.3-6.67,3.18-2.93,1.09-3.84,5.22-.89,7a26.83,26.83,0,0,0,17.86,4c6-.6,12.19-1.41,18.26-1.29l1.21,0a34.88,34.88,0,0,0-6.9,2.71,3.15,3.15,0,0,0-1.69,2.15c-10,.11-20-.41-30-.49-8.53-.07-20.1-2.33-27.81,2.3a6.15,6.15,0,0,0-.73.44,7.06,7.06,0,0,0-3.15,4.67c-2.84-.75-6.07-.65-8.84-.76-4.87-.19-10.58-.58-15,1.64C548.71,76.61,548.76,80.47,551,81.65ZM690.82,52.53l.58-.22,1.17.2c0,.06.07.13.11.18h-.14Zm-31,8.93c2.28-.76,4.08-1.94,4.8-3.74,1.82-.17,3.61-.39,5.4-.71a3.91,3.91,0,0,0,1.71,4.46,20.54,20.54,0,0,0,6.14,2.08c-.73,0-1.44,0-2.17,0h-.61c-.66-.15-1.29-.32-1.91-.49a1.73,1.73,0,0,0-.81-.22h0a17.72,17.72,0,0,0-4.89-.7l-2.39,0C663.27,61.9,661.53,61.63,659.78,61.46ZM600.46,98c6.78-2.44,15.52-1,22.59-.8,1.59,0,3.18.11,4.76.22a1.21,1.21,0,0,1,.89-1,31,31,0,0,1,11.43-.82c3.3.27,6.77-.19,9.5,2,.62.5.26,1.38-.23,1.76-2.55,2-6.56,1.75-9.69,1.77a3.5,3.5,0,0,1-.58,1,1.67,1.67,0,0,1-1.69,1.38c-.13,0-.26,0-.4,0-3,1.17-7.52,1-9.56,1.12-4.3.31-8.64.28-13,.4-4.54.12-9.73.52-14.06-1A3.13,3.13,0,0,1,600.46,98Zm-63.8,6c9.67-1.31,19.38-.93,29.07-.37a2,2,0,0,1,1,3.63,35.66,35.66,0,0,1,9.12,1.27,1.78,1.78,0,0,1,0,3.39c-4.42,1.32-9.13,1.15-13.73,1.35l-.38.22a6.34,6.34,0,0,1,.56.68,1.34,1.34,0,0,1,0,1.34c-2.09,3.07-6,2.51-9.32,2.58-4.66.1-9.15.16-13.65-1.27a2.08,2.08,0,0,1,0-4,26.69,26.69,0,0,1,5.49-1.09,2.37,2.37,0,0,1,1.56-2.42,23,23,0,0,1,3.18-.89l.06-.12a2.07,2.07,0,0,1,.15-.25,105.42,105.42,0,0,1-13.14-.86A1.62,1.62,0,0,1,536.66,104ZM678.14,93.27c3.78-1.25,7.89-.18,11.93.52a11.54,11.54,0,0,1,5-.73,1,1,0,0,1,.55-1,4.7,4.7,0,0,1,2.83-.31A2.46,2.46,0,0,1,700.1,90c3.74-1.33,7.78-.43,11.61.12,2.22.32,4.47.55,6.68,1,1.62.3,4.88,1.71,6.51,1.17s2.42,1.5,1.47,2.57c-2.65,3-7,2-10.48,2a76.06,76.06,0,0,1-7.85-.37,5.11,5.11,0,0,1-.28.46,5.79,5.79,0,0,1,.91.61,1.19,1.19,0,0,1,0,1.66c-4.6,3.91-11.84,1.58-17.6,0-4.26.18-9.12.45-12.93-1.08A2.53,2.53,0,0,1,678.14,93.27Zm-95.37,24.29c2.78-1.32,6-.2,9-.27,3.4-.09,8-.64,10.9,1.38a1.66,1.66,0,0,1,0,2.79c-2.76,1.91-7,1.45-10.28,1.48a22.89,22.89,0,0,1-9.16-1.49C581.79,120.86,581,118.43,582.77,117.56ZM494.21,121c12.38-3.34,25.31.94,37.93-.28a1.06,1.06,0,0,1,.6.11c3.85-.44,7.82-.16,11.67-.45a57.71,57.71,0,0,1,7.44-.09c2.23.11,5.39,1.08,7.34-.18,1.15-.74,2.87.82,2,2-3,3.95-8.17,2.75-12.6,3.21-6.52.67-13.06,1.73-19.5-.13a1.77,1.77,0,0,1-1.16-1.08,76.05,76.05,0,0,1-15.77.72c-3.3-.21-6.56-.58-9.87-.51-2.74.06-5.38.79-8.05.07A1.79,1.79,0,0,1,494.21,121ZM356.08,170.19a46.88,46.88,0,0,1,15.61-1.91l.34,0c-1.83-.43-3.54-.87-5-1.21s-1.41-2.65,0-3.11c3.2-1,6.6-.32,9.84.27,2.79.51,7.37,1.74,11.05,1.58a1.86,1.86,0,0,1,1-2.73c5.88-1.82,12.19.07,18.21,1-1-1.31-.69-3.69.85-4.38,7.31-3.28,15.37-1.46,23.08-2.14,7.49-.66,14.87,1.63,22.3,1.67a1.7,1.7,0,0,1,.44,3.32c-7.36,2-14.85,2.83-22.43,3.87l-2.74.34c1.78.09,3.57.19,5.35.31,1.13.07,1.56,2,.28,2.16-14.65,2.08-29.88,3.75-44.75,2.61a2.58,2.58,0,0,1-.24.37c-2.82,3.41-10.26,1.7-14,1.43-6.24-.46-13.08.7-19.16-.91A1.34,1.34,0,0,1,356.08,170.19Zm-119.21,2.22c4.95-3.19,11.65-2.79,17.29-3a61.93,61.93,0,0,1,10.1.24,31.32,31.32,0,0,1,4.42,1.42c5.05-.55,10.37.82,15.39.25,1.16-.13,1.61,1.09,1.28,2,1.18,0,2.37.07,3.54.12,5.73-1.41,12.4-.75,18-.52,5.34.22,13.36-.37,17.64,3.39a1.58,1.58,0,0,1,0,2.18,11.1,11.1,0,0,1-4,2.15,8.49,8.49,0,0,0,4.25-.3,1.15,1.15,0,0,1,1.68,1.16,99.15,99.15,0,0,1,17.63-.59,1.69,1.69,0,0,1,1.38.78,27.62,27.62,0,0,1,5.53,0c2.45.1,4.86.31,7.31.54a1.1,1.1,0,0,1,0,2.2,39.66,39.66,0,0,1-7.31-.19,51.44,51.44,0,0,1-5.54-.55,1.69,1.69,0,0,1-1.37.75c-4.56.23-9.13.45-13.69.78-3.64.27-7.69,1.23-11.24.19a1.52,1.52,0,0,1-1-1.25c-2.41,0-4.82-.17-6.68-.17-5.79,0-11.87,0-17.56-1.08a1.32,1.32,0,0,1-1-.86,25.27,25.27,0,0,1-6.47-1.41c-8.14,1.86-16.47,3.27-24.4.34a2.34,2.34,0,0,1-1.25-3.5c-1,0-1.89,0-2.63,0-6.48.22-15.39,2.94-21.39-.39A2.77,2.77,0,0,1,236.87,172.41ZM484.47,163c6.13-1.5,13.68-.25,19.89.37a1.54,1.54,0,0,1,0,3.08c-6.22.63-13.76,1.88-19.89.37A2,2,0,0,1,484.47,163Zm-31.37-33.2a58,58,0,0,1,11.47-1,33.88,33.88,0,0,1,4.48.25,43.41,43.41,0,0,1,9.87-1.73c5.53-.35,12.11,1.43,17.35-.6,1.39-.54,2.23,1.67,1,2.41a14.58,14.58,0,0,1-5.18,1.81l1.37,0a38.49,38.49,0,0,1,4.7.11,1.76,1.76,0,0,1,.71-.79c1.89-1.06,17.93-1.42,16.74,2-1,2.73-4.33,3.21-6.78,3.42a16.87,16.87,0,0,1-3.76-.12,1.91,1.91,0,0,1-1.14,1.46c-2.93,1.59-7.53,1-10.67,1.46a29.25,29.25,0,0,1-12.11-.26c-2-.51-2.15-3.23-.55-4.29a18.16,18.16,0,0,1,7.53-2.58c-1.94,0-3.9,0-5.83,0-5.22.09-11.12,2.87-16.19,1.16v0a1.31,1.31,0,0,1-.78-.78c-2,.14-3.87.32-4.28.33a45,45,0,0,1-7.94-.51C452.27,131.34,452.28,129.89,453.1,129.76Zm141.76,15.79c2.43-.81,5.17-.27,7.69-.1a37.48,37.48,0,0,1,7.59,1.18,1.88,1.88,0,0,1,1,2.77c4.68-.13,9.36-.21,14-.34,1.68-.06,1.64,2.51,0,2.64a174.84,174.84,0,0,1-24.55.51,1.16,1.16,0,0,1-1-1.57,14.71,14.71,0,0,1-4.72-.71A2.3,2.3,0,0,1,594.86,145.55Zm-166.35-13.3c4-1.31,8.4-.74,12.55-1.28,1-.14,1.28,1.68.24,1.87a105.21,105.21,0,0,1-12.52,1.43C427.61,134.34,427.47,132.59,428.51,132.25Zm87-54.08c2.15-.84,4.63-.34,6.88-.39,1.8,0,3.65-.88,5.29.16a1.49,1.49,0,0,1,0,2.53c-3.19,1.65-8.81,2.39-12.17,1.09A1.79,1.79,0,0,1,515.53,78.17ZM214,186.73l.78-.21a2.63,2.63,0,0,1,.9-3.37c1.53-1.06,2.68-.92,4.49-.92a37.79,37.79,0,0,1,6,.1c3.56.53,8.52,1,10.88,4.15a2.2,2.2,0,0,1,.21,2.64c1.51.16,3.18.26,4.16-.54s2.27.58,1.32,1.35c-1.58,1.29-3.48,1.13-5.42,1-1-.06-2.08-.06-3.12,0a13.49,13.49,0,0,1-4.44,0c-.85,0-1.7-.09-2.54-.2h0a1.3,1.3,0,0,1-1.14,1.07,6,6,0,0,1-3.74,1,13,13,0,0,1-5.24-.47,1.89,1.89,0,0,1-1-2.75,11.94,11.94,0,0,1-2.09-.45A1.27,1.27,0,0,1,214,186.73ZM94.64,167.83c.32-.13.64-.24,1-.35a6.56,6.56,0,0,1-1.1-.54,3.24,3.24,0,0,1,0-5.45c3.52-2.5,8.19-1.32,12-.52s9.33-.29,12.39,2.68c1.47-.08,2.92-.13,4.33-.22a59.89,59.89,0,0,1,12.43.43c2,.3,2.92,3.24,1.78,4.83a4.27,4.27,0,0,1,.55,2.5,30.67,30.67,0,0,1,9.48-.5,5.25,5.25,0,0,1-.14-.71c-.36-3.51,3.54-6.17,6.91-7.43-1.09-.1-2.17-.22-3.23-.22a23.22,23.22,0,0,1-9.42-1.74,2,2,0,0,1,0-3.3,22.53,22.53,0,0,1,9.42-1.77l2.14.06c2.88-1.86,6.71-1.37,10-.62a33.19,33.19,0,0,1,8.25,2.8c2.36.05,4.76.36,7,.6,3.47.38,7.54.51,10.27,2.87a2.46,2.46,0,0,1-.57,3.92l.07,0c-2.95,1.67-6,1.21-9.23.85a6.3,6.3,0,0,1-.81,4.74c6.34-1,13.13,1,19.45,0a2.14,2.14,0,0,1,1.7,3.82,13.77,13.77,0,0,0,2.48.21c1.2,0,2.28-.47,3.48-.45a2.46,2.46,0,0,1,1.68,4.13c-2.75,2.73-6.78,1.66-10.35.33-1.42,1.7-2.15,2.45-4.55,2.64a55.35,55.35,0,0,1-7.16.2,8.2,8.2,0,0,1-1.42,1.24c2.74-.2,5.47-.3,8.23-.33a1.47,1.47,0,0,1,0,2.93c-3.47,0-6.87-.18-10.33-.51a1,1,0,0,1-.87-.74,33.22,33.22,0,0,1-8.31.71,1.51,1.51,0,0,1-1.16.61c-4.07.31-8.61.78-12.62-.26a1.24,1.24,0,0,1-.9-1.16,22.9,22.9,0,0,1-5.59-1.82,3,3,0,0,1-1.6-2.66c-5.67,0-11.77-.34-16.59-2.9a2.08,2.08,0,0,1-1-1.34,16.33,16.33,0,0,1-7.58.31c-2.47-.56-5.23-.7-7.34-2.15-1.67.63-3.86.43-5.72.55-5.43.34-12.28,1.83-17.43-.32A3.13,3.13,0,0,1,94.64,167.83ZM54.4,145.55c2-1.47,3.63-.89,5.92-1l2.07-.11a4.38,4.38,0,0,1,1.13-2.87c.1-.11.22-.2.33-.31h-.5c-2.64,0-6.31.14-8-2.2a2.42,2.42,0,0,1,.36-2.85C57.08,134.43,60,134.94,62,135s4.54.36,6.31-.77c2.28-1.46,4.81,1.5,3.56,3.59,6.28-.68,13.84,1.19,18.35,3.27,2.57,1.19,3,5.48.92,7.3-2.44,2.14-5.3,2.75-8.32,2.9-3.13,2.83-8.58,2.24-12.5,2.38-5,.18-11.58,1-15.9-2.45A3.4,3.4,0,0,1,54.4,145.55Zm306-30.1c3.55-1.28,7.82-1,11.86-.68a2.78,2.78,0,0,1,2.11-2.88,48.92,48.92,0,0,1,7-.89c2.46-.23,4.82-1.07,7.26-1.53a2,2,0,0,1,1.34-3,95.61,95.61,0,0,1,13.54,0c2.15.08,4.31.07,6.45.24,1.6.14,4.44,1.07,5.88.42,1.15-.51,2.64,1,1.48,2-2.89,2.46-7.73,1.93-11.31,2.1-1.29.06-2.54.06-3.77,0a1.72,1.72,0,0,1-.17,2.08c-3.32,3.81-7.91,4-12.51,5.31a24.11,24.11,0,0,1-10.73.11,2.16,2.16,0,0,1-1.78,1c-5.22.25-11.67,1.51-16.69-.29A2.09,2.09,0,0,1,360.41,115.45Zm-13.29,3.62a28.32,28.32,0,0,1,5.52.17c2.33.11,4.68,0,7,0a1.47,1.47,0,0,1,0,2.94c-2.2,0-4.45.15-6.64,0-1.93-.13-3.69-1-5.64-1.1C346.3,121.06,346,119.24,347.12,119.07Zm-258.58,3.7a18.73,18.73,0,0,1,7.21-1.66,15.48,15.48,0,0,1,4.9.34,2.5,2.5,0,0,1,1.07-.48,100.15,100.15,0,0,1,17.82-1.58,36.27,36.27,0,0,1,4.66.23c1.39.2,3.7,1.27,5.06,1,2.06-.35,4.33,1.8,3,3.93-1.81,2.79-4.79,3.74-7.87,4a1.33,1.33,0,0,1,.18.38,19.58,19.58,0,0,1,6.46.27c3.39.7,8.06,1,11,2.73a1.5,1.5,0,0,1,0,2.54l-.26.16a25.69,25.69,0,0,1,3.58.26c2.81.42,6.05,1.19,8.87.87a2.06,2.06,0,0,1,1.95,2.6c-1.18,3.33-5.35,3.74-8.37,3.54-4.53-.29-10.66-.42-14.54-3.1a2.09,2.09,0,0,1-.82-1.36c-.38,0-.76,0-1.15,0-4-.27-8.51.49-12-1.86a2.7,2.7,0,0,1-1.22-2.81c-.71.08-1.41.15-2,.25-2.28.34-4.64-.12-6.94-.19-2.64-.07-5.22,0-7.7-1a1.94,1.94,0,0,1,0-3.68,12.89,12.89,0,0,1,2.28-.74l-2-.31a2.46,2.46,0,0,1-1-.43c-4,1.23-8.33,2-12.16-.06A2.24,2.24,0,0,1,88.54,122.77Zm-2.79-8c3.09-.4,5.79-1.15,9-1.18a47.65,47.65,0,0,0,7.36-.59c1.35-.22,3.05,1.25,2,2.7-1.84,2.58-3.56,3.16-6.73,3l-5.05-.2c-2.3-.09-4.3-.84-6.57-1.13A1.32,1.32,0,0,1,85.75,114.79ZM10.29,143.91c4.19-2.82,10.25-2.64,15.25-2.89l-.35-.08a1.86,1.86,0,0,1,0-3.54A44.55,44.55,0,0,1,37.39,136a28.68,28.68,0,0,1,6.63.85,1.92,1.92,0,0,1,1.34,1.79c.07,2.83-3,3.8-6.74,3.92.33.24.66.5,1,.79,1.28,1.1.64,3-.48,3.8a26.55,26.55,0,0,1-13.66,5.32c-4.67.59-11.16.46-15.19-2.26A3.76,3.76,0,0,1,10.29,143.91Zm36.32-11.42c2.62-.88,5.41-.15,8.11-.61,1.23-.21,2.42-.69,3.66-.88a15,15,0,0,0,2.52-.21c1-.34,1.7.86,1.29,1.73-1,2.18-4,2.3-6,2.84a16.83,16.83,0,0,1-9.54-.05A1.48,1.48,0,0,1,46.61,132.49ZM26.19,113c5.46-2.68,11.42.1,17.05-.44,2.34-.23,3.19,2.42,2.32,4.18a65.74,65.74,0,0,1,11.55-.41c2.06.07,6.94,0,7.78,2.78,1.25,4.06-4.55,4.62-7,4.7-6.21.23-12.16,2-18.09-.66-1.84-.82-1.59-2.91-.53-4.19l-1.64,0c-3.77,0-7.95.71-11.43-1A2.91,2.91,0,0,1,26.19,113Zm104.13,68a121.58,121.58,0,0,1,12.2,1c1.08.16,4.67.18,5,1.72,1.51,7.12-15.46,2.48-17.8,1.9C127.22,185,127.71,180.85,130.32,181Z"/><path class="cls-5" d="M790.23,481.76V351.59c-11.17-7.13-10-13.65,0-19.57V252.5c-338,2.21-600.6,20-790.23,39.58V511.39H793A159.11,159.11,0,0,1,790.23,481.76Z"/><polygon class="cls-6" points="533.16 340.69 544.03 344.52 589.91 336.86 580.25 335.9 533.16 340.69"/><path class="cls-6" d="M494.62,357.53H471.08S501.86,346,518.16,344.6L530.83,346S503.67,350.35,494.62,357.53Z"/><path class="cls-6" d="M420.37,380.5l43.46-1.43s3.62-8.62,14.49-14.36l-32.6,1.43S433.05,366.14,420.37,380.5Z"/><polygon class="cls-6" points="389.5 428.78 493.32 424.95 469.18 392.39 413.64 392.39 389.5 428.78"/><polygon class="cls-7" points="790.23 363.56 0 332.23 0 427.4 790.23 380.23 790.23 363.56"/><polygon class="cls-5" points="387.08 444.1 495.74 440.27 527.13 497.72 350.86 501.55 387.08 444.1"/><rect class="cls-8" y="441.02" width="798.25" height="47.6"/><rect class="cls-6" y="430.89" width="798.25" height="10.13"/><rect class="cls-9" x="678.51" y="462.71" width="109.37" height="4.23"/><rect class="cls-9" x="456.03" y="462.71" width="109.37" height="4.23"/><rect class="cls-9" x="233.56" y="462.71" width="109.37" height="4.23"/><rect class="cls-9" x="10.77" y="462.71" width="109.37" height="4.23"/><rect class="cls-9" x="10.77" y="452.92" width="109.37" height="4.23"/><rect class="cls-9" x="10.77" y="443.13" width="109.37" height="4.23"/><rect class="cls-9" x="10.77" y="472.5" width="109.37" height="4.23"/><rect class="cls-9" x="10.77" y="482.29" width="109.37" height="4.23"/><rect class="cls-6" y="488.66" width="798.25" height="10.13"/><g class="cls-10"><rect class="cls-8" x="587.07" y="262.86" width="121.33" height="13.52"/><rect class="cls-11" x="588.17" y="264.47" width="18.27" height="10.49"/><polygon class="cls-8" points="588.79 274.97 592.29 264.52 594.97 264.52 590.99 274.97 588.79 274.97"/><polygon class="cls-8" points="599.35 274.97 602.85 264.52 605.53 264.52 601.55 274.97 599.35 274.97"/><polygon class="cls-8" points="592.27 274.96 595.74 264.52 597.24 264.52 593.1 274.97 592.27 274.96"/><rect class="cls-11" x="608.09" y="264.47" width="18.27" height="10.49"/><polygon class="cls-8" points="608.71 274.97 612.21 264.52 614.89 264.52 610.91 274.97 608.71 274.97"/><polygon class="cls-8" points="619.27 274.97 622.76 264.52 625.45 264.52 621.47 274.97 619.27 274.97"/><polygon class="cls-8" points="612.19 274.96 615.66 264.52 617.16 264.52 613.02 274.97 612.19 274.96"/><rect class="cls-11" x="628" y="264.47" width="18.27" height="10.49"/><polygon class="cls-8" points="628.63 274.97 632.12 264.52 634.8 264.52 630.82 274.97 628.63 274.97"/><polygon class="cls-8" points="639.19 274.97 642.68 264.52 645.36 264.52 641.38 274.97 639.19 274.97"/><polygon class="cls-8" points="632.1 274.96 635.58 264.52 637.08 264.52 632.94 274.97 632.1 274.96"/><rect class="cls-11" x="647.92" y="264.47" width="18.27" height="10.49"/><polygon class="cls-8" points="648.55 274.97 652.04 264.52 654.72 264.52 650.74 274.97 648.55 274.97"/><polygon class="cls-8" points="659.11 274.97 662.6 264.52 665.28 264.52 661.3 274.97 659.11 274.97"/><polygon class="cls-8" points="652.02 274.96 655.49 264.52 657 264.52 652.85 274.97 652.02 274.96"/><rect class="cls-11" x="667.84" y="264.47" width="18.27" height="10.49"/><polygon class="cls-8" points="668.47 274.97 671.96 264.52 674.64 264.52 670.66 274.97 668.47 274.97"/><polygon class="cls-8" points="679.03 274.97 682.52 264.52 685.2 264.52 681.22 274.97 679.03 274.97"/><polygon class="cls-8" points="671.94 274.96 675.41 264.52 676.91 264.52 672.77 274.97 671.94 274.96"/><rect class="cls-11" x="687.76" y="264.47" width="18.27" height="10.49"/><polygon class="cls-8" points="688.39 274.97 691.88 264.52 694.56 264.52 690.58 274.97 688.39 274.97"/><polygon class="cls-8" points="698.95 274.97 702.44 264.52 705.12 264.52 701.14 274.97 698.95 274.97"/><polygon class="cls-8" points="691.86 274.96 695.33 264.52 696.83 264.52 692.69 274.97 691.86 274.96"/><rect class="cls-8" x="597.77" y="222.5" width="101.36" height="40.09"/><rect class="cls-12" x="590.46" y="219.81" width="116.71" height="2.69"/><rect class="cls-11" x="601.26" y="225.86" width="2.39" height="6.46"/><rect class="cls-11" x="605.89" y="225.86" width="2.39" height="6.46"/><rect class="cls-11" x="610.52" y="225.86" width="2.39" height="6.46"/><rect class="cls-11" x="615.15" y="225.86" width="2.39" height="6.46"/><rect class="cls-11" x="619.78" y="225.86" width="2.39" height="6.46"/><rect class="cls-11" x="624.41" y="225.86" width="2.39" height="6.46"/><rect class="cls-11" x="629.04" y="225.86" width="2.39" height="6.46"/><rect class="cls-11" x="633.67" y="225.86" width="2.39" height="6.46"/><rect class="cls-11" x="638.3" y="225.86" width="2.39" height="6.46"/><rect class="cls-11" x="642.93" y="225.86" width="2.39" height="6.46"/><rect class="cls-11" x="647.56" y="225.86" width="2.39" height="6.46"/><rect class="cls-11" x="652.19" y="225.86" width="2.39" height="6.46"/><rect class="cls-11" x="656.82" y="225.86" width="2.39" height="6.46"/><rect class="cls-11" x="661.45" y="225.86" width="2.39" height="6.46"/><rect class="cls-11" x="665.98" y="225.86" width="2.39" height="6.46"/><rect class="cls-11" x="670.51" y="225.86" width="2.39" height="6.46"/><rect class="cls-11" x="675.04" y="225.86" width="2.39" height="6.46"/><rect class="cls-11" x="679.57" y="225.86" width="2.39" height="6.46"/><rect class="cls-11" x="684.1" y="225.86" width="2.39" height="6.46"/><rect class="cls-11" x="688.63" y="225.86" width="2.39" height="6.46"/><rect class="cls-11" x="693.16" y="225.86" width="2.39" height="6.46"/><rect class="cls-11" x="601.26" y="233.93" width="2.39" height="26.91"/><rect class="cls-11" x="605.89" y="233.93" width="2.39" height="26.91"/><rect class="cls-11" x="610.52" y="233.93" width="2.39" height="26.91"/><rect class="cls-11" x="615.15" y="233.93" width="2.39" height="26.91"/><rect class="cls-11" x="619.78" y="233.93" width="2.39" height="26.91"/><rect class="cls-11" x="624.41" y="233.93" width="2.39" height="26.91"/><rect class="cls-11" x="629.04" y="233.93" width="2.39" height="26.91"/><rect class="cls-11" x="633.67" y="233.93" width="2.39" height="26.91"/><rect class="cls-11" x="638.3" y="233.93" width="2.39" height="26.91"/><rect class="cls-11" x="642.93" y="233.93" width="2.39" height="26.91"/><rect class="cls-11" x="647.56" y="233.93" width="2.39" height="26.91"/><rect class="cls-11" x="652.19" y="233.93" width="2.39" height="26.91"/><rect class="cls-11" x="656.82" y="233.93" width="2.39" height="26.91"/><rect class="cls-11" x="661.45" y="233.93" width="2.39" height="26.91"/><rect class="cls-11" x="665.98" y="233.93" width="2.39" height="26.91"/><rect class="cls-11" x="670.51" y="233.93" width="2.39" height="26.91"/><rect class="cls-11" x="675.04" y="233.93" width="2.39" height="26.91"/><rect class="cls-11" x="679.57" y="233.93" width="2.39" height="26.91"/><rect class="cls-11" x="684.1" y="233.93" width="2.39" height="26.91"/><rect class="cls-11" x="688.63" y="233.93" width="2.39" height="26.91"/><rect class="cls-11" x="693.16" y="233.93" width="2.39" height="26.91"/><rect class="cls-11" x="583.1" y="204.2" width="1.23" height="10.76"/><rect class="cls-11" x="578.11" y="204.2" width="1.23" height="10.76"/><rect class="cls-11" x="580.61" y="204.2" width="1.23" height="10.76"/><rect class="cls-8" x="566.82" y="201.78" width="18.76" height="74.8"/><rect class="cls-12" x="563.17" y="198.55" width="25.58" height="3.23"/><rect class="cls-12" x="563.17" y="218.93" width="25.58" height="3.23"/><rect class="cls-12" x="563.17" y="250.61" width="25.58" height="3.23"/><rect class="cls-11" x="568.13" y="204.2" width="1.23" height="10.76"/><rect class="cls-11" x="570.62" y="204.2" width="1.23" height="10.76"/><rect class="cls-11" x="573.12" y="204.2" width="1.23" height="10.76"/><rect class="cls-11" x="575.61" y="204.2" width="1.23" height="10.76"/><rect class="cls-11" x="568.37" y="223.17" width="16.21" height="26.36"/><polygon class="cls-13" points="568.93 249.54 572.03 223.29 574.4 223.29 570.88 249.54 568.93 249.54"/><polygon class="cls-13" points="578.29 249.54 581.39 223.29 583.77 223.29 580.24 249.54 578.29 249.54"/><polygon class="cls-13" points="572.01 249.53 575.09 223.29 576.42 223.29 572.75 249.54 572.01 249.53"/><rect class="cls-8" x="573.4" y="187.25" width="5.36" height="11.3"/><rect class="cls-12" x="575.35" y="179.18" width="1.46" height="8.07"/><rect class="cls-8" x="529.87" y="175.14" width="17.46" height="102.45"/><polygon class="cls-8" points="522.89 175.07 553.26 175.07 556.59 158.67 519.8 158.67 522.89 175.07"/><polygon class="cls-11" points="515.35 156.22 561.25 156.22 558.81 147.65 518.46 147.9 515.35 156.22"/><rect class="cls-8" x="524.55" y="134.38" width="27.9" height="13.45"/><rect class="cls-12" x="533.32" y="116.89" width="9.99" height="17.62"/><polygon class="cls-8" points="535.84 116.81 537.8 66.32 540.9 116.76 535.84 116.81"/><rect class="cls-8" x="521.26" y="226.54" width="34.11" height="22.33"/><rect class="cls-8" x="511.64" y="156.04" width="52.39" height="2.55"/><rect class="cls-8" x="516.27" y="175.15" width="44.47" height="2.56"/><rect class="cls-11" x="522.57" y="230.64" width="3.32" height="14.53"/><rect class="cls-11" x="528.05" y="230.64" width="3.32" height="14.53"/><rect class="cls-11" x="533.52" y="230.64" width="3.32" height="14.53"/><rect class="cls-11" x="539" y="230.64" width="3.32" height="14.53"/><rect class="cls-11" x="544.47" y="230.64" width="3.32" height="14.53"/><rect class="cls-11" x="549.95" y="230.64" width="3.32" height="14.53"/><rect class="cls-11" x="529.76" y="182.75" width="17.91" height="12.51"/><rect class="cls-11" x="529.76" y="200.3" width="17.91" height="12.51"/><rect class="cls-12" x="518.43" y="141.99" width="0.76" height="5.85"/><rect class="cls-12" x="524.1" y="141.99" width="0.76" height="5.85"/><rect class="cls-12" x="529.77" y="141.99" width="0.76" height="5.85"/><rect class="cls-12" x="535.44" y="141.99" width="0.76" height="5.85"/><rect class="cls-12" x="541.11" y="141.99" width="0.76" height="5.85"/><rect class="cls-12" x="546.78" y="141.99" width="0.76" height="5.85"/><rect class="cls-12" x="552.45" y="141.99" width="0.76" height="5.85"/><rect class="cls-12" x="516.63" y="141.08" width="44.53" height="0.84"/><rect class="cls-12" x="516.63" y="144.4" width="44.53" height="0.84"/><rect class="cls-12" x="558.11" y="141.99" width="0.76" height="5.85"/><rect class="cls-12" x="518.43" y="169.03" width="0.76" height="5.85"/><rect class="cls-12" x="524.1" y="169.03" width="0.76" height="5.85"/><rect class="cls-12" x="529.77" y="169.03" width="0.76" height="5.85"/><rect class="cls-12" x="535.44" y="169.03" width="0.76" height="5.85"/><rect class="cls-12" x="541.11" y="169.03" width="0.76" height="5.85"/><rect class="cls-12" x="546.78" y="169.03" width="0.76" height="5.85"/><rect class="cls-12" x="552.45" y="169.03" width="0.76" height="5.85"/><rect class="cls-12" x="516.63" y="168.12" width="44.53" height="0.84"/><rect class="cls-12" x="516.63" y="171.44" width="44.53" height="0.84"/><rect class="cls-12" x="558.11" y="169.03" width="0.76" height="5.85"/><rect class="cls-11" x="715.7" y="268.51" width="2.39" height="6.46"/><rect class="cls-11" x="720.33" y="268.51" width="2.39" height="6.46"/><rect class="cls-11" x="724.96" y="268.51" width="2.39" height="6.46"/><rect class="cls-11" x="729.59" y="268.51" width="2.39" height="6.46"/><rect class="cls-11" x="734.22" y="268.51" width="2.39" height="6.46"/><rect class="cls-11" x="738.85" y="268.51" width="2.39" height="6.46"/><rect class="cls-11" x="743.48" y="268.51" width="2.39" height="6.46"/><rect class="cls-11" x="748.11" y="268.51" width="2.39" height="6.46"/><rect class="cls-11" x="752.74" y="268.51" width="2.39" height="6.46"/><rect class="cls-11" x="757.37" y="268.51" width="2.39" height="6.46"/><rect class="cls-11" x="762" y="268.51" width="2.39" height="6.46"/><rect class="cls-11" x="766.62" y="268.51" width="2.39" height="6.46"/><rect class="cls-11" x="771.25" y="268.51" width="2.39" height="6.46"/><rect class="cls-11" x="775.88" y="268.51" width="2.39" height="6.46"/><rect class="cls-12" x="725.02" y="259.45" width="42.03" height="0.69"/><rect class="cls-8" x="727.26" y="260.14" width="37.22" height="5.54"/><rect class="cls-11" x="728.31" y="260.79" width="1.37" height="3.7"/><rect class="cls-11" x="730.96" y="260.79" width="1.37" height="3.7"/><rect class="cls-11" x="733.61" y="260.79" width="1.37" height="3.7"/><rect class="cls-11" x="736.26" y="260.79" width="1.37" height="3.7"/><rect class="cls-11" x="738.91" y="260.79" width="1.37" height="3.7"/><rect class="cls-11" x="741.55" y="260.79" width="1.37" height="3.7"/><rect class="cls-11" x="744.2" y="260.79" width="1.37" height="3.7"/><rect class="cls-11" x="746.85" y="260.79" width="1.37" height="3.7"/><rect class="cls-11" x="749.5" y="260.79" width="1.37" height="3.7"/><rect class="cls-11" x="752.15" y="260.79" width="1.37" height="3.7"/><rect class="cls-11" x="754.8" y="260.79" width="1.37" height="3.7"/><rect class="cls-11" x="757.45" y="260.79" width="1.37" height="3.7"/><rect class="cls-11" x="760.09" y="260.79" width="1.37" height="3.7"/><rect class="cls-11" x="762.19" y="260.79" width="1.37" height="3.7"/><rect class="cls-8" x="399.25" y="262.86" width="121.33" height="13.52"/><rect class="cls-11" x="400.35" y="264.47" width="18.27" height="10.49"/><polygon class="cls-8" points="400.98 274.97 404.47 264.52 407.15 264.52 403.17 274.97 400.98 274.97"/><polygon class="cls-8" points="411.54 274.97 415.03 264.52 417.71 264.52 413.73 274.97 411.54 274.97"/><polygon class="cls-8" points="404.45 274.96 407.92 264.52 409.43 264.52 405.28 274.97 404.45 274.96"/><rect class="cls-11" x="420.27" y="264.47" width="18.27" height="10.49"/><polygon class="cls-8" points="420.9 274.97 424.39 264.52 427.07 264.52 423.09 274.97 420.9 274.97"/><polygon class="cls-8" points="431.46 274.97 434.95 264.52 437.63 264.52 433.65 274.97 431.46 274.97"/><polygon class="cls-8" points="424.37 274.96 427.84 264.52 429.35 264.52 425.2 274.97 424.37 274.96"/><rect class="cls-11" x="440.19" y="264.47" width="18.27" height="10.49"/><polygon class="cls-8" points="440.82 274.97 444.31 264.52 446.99 264.52 443.01 274.97 440.82 274.97"/><polygon class="cls-8" points="451.37 274.97 454.87 264.52 457.55 264.52 453.57 274.97 451.37 274.97"/><polygon class="cls-8" points="444.29 274.96 447.76 264.52 449.26 264.52 445.12 274.97 444.29 274.96"/><rect class="cls-11" x="460.11" y="264.47" width="18.27" height="10.49"/><polygon class="cls-8" points="460.73 274.97 464.23 264.52 466.9 264.52 462.93 274.97 460.73 274.97"/><polygon class="cls-8" points="471.29 274.97 474.79 264.52 477.46 264.52 473.49 274.97 471.29 274.97"/><polygon class="cls-8" points="464.2 274.96 467.68 264.52 469.18 264.52 465.04 274.97 464.2 274.96"/><rect class="cls-11" x="480.02" y="264.47" width="18.27" height="10.49"/><polygon class="cls-8" points="480.65 274.97 484.14 264.52 486.82 264.52 482.85 274.97 480.65 274.97"/><polygon class="cls-8" points="491.21 274.97 494.7 264.52 497.38 264.52 493.4 274.97 491.21 274.97"/><polygon class="cls-8" points="484.12 274.96 487.6 264.52 489.1 264.52 484.95 274.97 484.12 274.96"/><rect class="cls-11" x="499.94" y="264.47" width="18.27" height="10.49"/><polygon class="cls-8" points="500.57 274.97 504.06 264.52 506.74 264.52 502.76 274.97 500.57 274.97"/><polygon class="cls-8" points="511.13 274.97 514.62 264.52 517.3 264.52 513.32 274.97 511.13 274.97"/><polygon class="cls-8" points="504.04 274.96 507.51 264.52 509.02 264.52 504.87 274.97 504.04 274.96"/><rect class="cls-8" x="409.95" y="222.5" width="101.36" height="40.09"/><rect class="cls-12" x="402.64" y="219.81" width="116.71" height="2.69"/><rect class="cls-11" x="413.45" y="225.86" width="2.39" height="6.46"/><rect class="cls-11" x="418.08" y="225.86" width="2.39" height="6.46"/><rect class="cls-11" x="422.71" y="225.86" width="2.39" height="6.46"/><rect class="cls-11" x="427.34" y="225.86" width="2.39" height="6.46"/><rect class="cls-11" x="431.97" y="225.86" width="2.39" height="6.46"/><rect class="cls-11" x="436.6" y="225.86" width="2.39" height="6.46"/><rect class="cls-11" x="441.22" y="225.86" width="2.39" height="6.46"/><rect class="cls-11" x="445.85" y="225.86" width="2.39" height="6.46"/><rect class="cls-11" x="450.48" y="225.86" width="2.39" height="6.46"/><rect class="cls-11" x="455.12" y="225.86" width="2.39" height="6.46"/><rect class="cls-11" x="459.74" y="225.86" width="2.39" height="6.46"/><rect class="cls-11" x="464.37" y="225.86" width="2.39" height="6.46"/><rect class="cls-11" x="469" y="225.86" width="2.39" height="6.46"/><rect class="cls-11" x="473.63" y="225.86" width="2.39" height="6.46"/><rect class="cls-11" x="478.16" y="225.86" width="2.39" height="6.46"/><rect class="cls-11" x="482.69" y="225.86" width="2.39" height="6.46"/><rect class="cls-11" x="487.23" y="225.86" width="2.39" height="6.46"/><rect class="cls-11" x="491.76" y="225.86" width="2.39" height="6.46"/><rect class="cls-11" x="496.29" y="225.86" width="2.39" height="6.46"/><rect class="cls-11" x="500.82" y="225.86" width="2.39" height="6.46"/><rect class="cls-11" x="505.35" y="225.86" width="2.39" height="6.46"/><rect class="cls-11" x="413.45" y="233.93" width="2.39" height="26.91"/><rect class="cls-11" x="418.08" y="233.93" width="2.39" height="26.91"/><rect class="cls-11" x="422.71" y="233.93" width="2.39" height="26.91"/><rect class="cls-11" x="427.34" y="233.93" width="2.39" height="26.91"/><rect class="cls-11" x="431.97" y="233.93" width="2.39" height="26.91"/><rect class="cls-11" x="436.6" y="233.93" width="2.39" height="26.91"/><rect class="cls-11" x="441.22" y="233.93" width="2.39" height="26.91"/><rect class="cls-11" x="445.85" y="233.93" width="2.39" height="26.91"/><rect class="cls-11" x="450.48" y="233.93" width="2.39" height="26.91"/><rect class="cls-11" x="455.12" y="233.93" width="2.39" height="26.91"/><rect class="cls-11" x="459.74" y="233.93" width="2.39" height="26.91"/><rect class="cls-11" x="464.37" y="233.93" width="2.39" height="26.91"/><rect class="cls-11" x="469" y="233.93" width="2.39" height="26.91"/><rect class="cls-11" x="473.63" y="233.93" width="2.39" height="26.91"/><rect class="cls-11" x="478.16" y="233.93" width="2.39" height="26.91"/><rect class="cls-11" x="482.69" y="233.93" width="2.39" height="26.91"/><rect class="cls-11" x="487.23" y="233.93" width="2.39" height="26.91"/><rect class="cls-11" x="491.76" y="233.93" width="2.39" height="26.91"/><rect class="cls-11" x="496.29" y="233.93" width="2.39" height="26.91"/><rect class="cls-11" x="500.82" y="233.93" width="2.39" height="26.91"/><rect class="cls-11" x="505.35" y="233.93" width="2.39" height="26.91"/><rect class="cls-11" x="448.07" y="214.12" width="2.39" height="6.46"/><rect class="cls-11" x="452.7" y="214.12" width="2.39" height="6.46"/><rect class="cls-11" x="457.33" y="214.12" width="2.39" height="6.46"/><rect class="cls-11" x="461.96" y="214.12" width="2.39" height="6.46"/><rect class="cls-11" x="466.59" y="214.12" width="2.39" height="6.46"/><rect class="cls-11" x="471.22" y="214.12" width="2.39" height="6.46"/><rect class="cls-11" x="475.85" y="214.12" width="2.39" height="6.46"/><rect class="cls-11" x="480.48" y="214.12" width="2.39" height="6.46"/><rect class="cls-11" x="485.11" y="214.12" width="2.39" height="6.46"/><rect class="cls-11" x="489.74" y="214.12" width="2.39" height="6.46"/><rect class="cls-11" x="494.37" y="214.12" width="2.39" height="6.46"/><rect class="cls-11" x="499" y="214.12" width="2.39" height="6.46"/><rect class="cls-11" x="503.63" y="214.12" width="2.39" height="6.46"/><rect class="cls-11" x="508.26" y="214.12" width="2.39" height="6.46"/><rect class="cls-12" x="457.39" y="205.05" width="42.03" height="0.69"/><rect class="cls-8" x="459.63" y="205.75" width="37.22" height="5.54"/><rect class="cls-11" x="460.68" y="206.4" width="1.37" height="3.7"/><rect class="cls-11" x="463.33" y="206.4" width="1.37" height="3.7"/><rect class="cls-11" x="465.98" y="206.4" width="1.37" height="3.7"/><rect class="cls-11" x="468.63" y="206.4" width="1.37" height="3.7"/><rect class="cls-11" x="471.28" y="206.4" width="1.37" height="3.7"/><rect class="cls-11" x="473.92" y="206.4" width="1.37" height="3.7"/><rect class="cls-11" x="476.58" y="206.4" width="1.37" height="3.7"/><rect class="cls-11" x="479.22" y="206.4" width="1.37" height="3.7"/><rect class="cls-11" x="481.87" y="206.4" width="1.37" height="3.7"/><rect class="cls-11" x="484.52" y="206.4" width="1.37" height="3.7"/><rect class="cls-11" x="487.17" y="206.4" width="1.37" height="3.7"/><rect class="cls-11" x="489.82" y="206.4" width="1.37" height="3.7"/><rect class="cls-11" x="492.47" y="206.4" width="1.37" height="3.7"/><rect class="cls-11" x="494.56" y="206.4" width="1.37" height="3.7"/></g><rect class="cls-14" x="2.89" y="56.86" width="781.18" height="381.64"/></g></g></g></svg>