<svg xmlns="http://www.w3.org/2000/svg" xmlns:xlink="http://www.w3.org/1999/xlink" viewBox="0 0 312.84 126.55"><defs><style>.cls-1{isolation:isolate;}.cls-2{fill:url(#linear-gradient);}.cls-3{fill:#d9d9d9;}.cls-4{fill:url(#linear-gradient-2);}.cls-5{fill:url(#linear-gradient-3);}.cls-6{fill:#e6e6e6;}.cls-7{fill:url(#radial-gradient);}.cls-8{fill:url(#linear-gradient-4);}.cls-9{fill:url(#linear-gradient-5);}.cls-10{fill:url(#linear-gradient-6);}.cls-11{fill:url(#linear-gradient-7);}.cls-12{fill:url(#radial-gradient-2);}.cls-13{fill:url(#linear-gradient-8);}.cls-14{fill:url(#linear-gradient-9);}.cls-15{fill:url(#linear-gradient-10);}.cls-16{fill:url(#linear-gradient-11);}.cls-17{fill:url(#linear-gradient-12);}.cls-18{fill:url(#linear-gradient-13);}.cls-19{fill:url(#linear-gradient-14);}.cls-20{mix-blend-mode:overlay;fill:url(#linear-gradient-15);}.cls-21{fill:#15a6cc;}.cls-22,.cls-23{fill:#8c8c8c;}.cls-22,.cls-40{mix-blend-mode:multiply;}.cls-22{opacity:0.3;}.cls-24{fill:#6b6b6b;}.cls-25{fill:url(#linear-gradient-16);}.cls-26{fill:url(#linear-gradient-17);}.cls-27{fill:#b3b3b3;}.cls-28{fill:url(#linear-gradient-18);}.cls-29{fill:url(#linear-gradient-19);}.cls-30{fill:url(#radial-gradient-3);}.cls-31{fill:url(#linear-gradient-20);}.cls-32{fill:url(#linear-gradient-21);}.cls-33{fill:url(#linear-gradient-22);}.cls-34{fill:url(#linear-gradient-23);}.cls-35{fill:url(#radial-gradient-4);}.cls-36{fill:url(#linear-gradient-24);}.cls-37{fill:url(#linear-gradient-25);}.cls-38{fill:url(#linear-gradient-26);}.cls-39{fill:url(#linear-gradient-27);}.cls-40{fill:url(#linear-gradient-28);}</style><linearGradient id="linear-gradient" x1="871.74" y1="144.77" x2="861.26" y2="162.21" gradientTransform="matrix(-0.99, -0.12, -0.12, 0.99, 952.2, 38.9)" gradientUnits="userSpaceOnUse"><stop offset="0" stop-color="#f7f7f7"/><stop offset="1" stop-color="#ccc"/></linearGradient><linearGradient id="linear-gradient-2" x1="879.87" y1="172.71" x2="875.96" y2="161.25" gradientTransform="matrix(-0.99, -0.12, -0.12, 0.99, 952.2, 38.9)" gradientUnits="userSpaceOnUse"><stop offset="0" stop-color="#1a1a1a"/><stop offset="1" stop-color="#4d4d4d"/></linearGradient><linearGradient id="linear-gradient-3" x1="889.75" y1="172.26" x2="884.14" y2="155.89" gradientTransform="matrix(-0.99, -0.12, -0.12, 0.99, 952.2, 38.9)" gradientUnits="userSpaceOnUse"><stop offset="0" stop-color="#8c8c8c"/><stop offset="1" stop-color="#d9d9d9"/></linearGradient><radialGradient id="radial-gradient" cx="880.41" cy="-2150.86" r="8.48" gradientTransform="matrix(-0.99, -0.12, -0.16, 1.39, 565.99, 3178.55)" gradientUnits="userSpaceOnUse"><stop offset="0"/><stop offset="1" stop-color="#262626"/></radialGradient><linearGradient id="linear-gradient-4" x1="895.33" y1="168.85" x2="895.33" y2="152.2" gradientTransform="matrix(-0.99, -0.12, -0.12, 0.99, 952.2, 38.9)" gradientUnits="userSpaceOnUse"><stop offset="0" stop-color="#ccc"/><stop offset="1" stop-color="#a6a6a6"/></linearGradient><linearGradient id="linear-gradient-5" x1="894.36" y1="168.85" x2="894.36" y2="152.2" gradientTransform="matrix(-0.99, -0.12, -0.12, 0.99, 952.2, 38.9)" gradientUnits="userSpaceOnUse"><stop offset="0" stop-color="#727272"/><stop offset="0.5" stop-color="#989898"/><stop offset="1" stop-color="#727272"/></linearGradient><linearGradient id="linear-gradient-6" x1="863.57" y1="161.51" x2="858.74" y2="147.36" xlink:href="#linear-gradient-2"/><linearGradient id="linear-gradient-7" x1="875.78" y1="160.96" x2="868.85" y2="140.74" xlink:href="#linear-gradient-3"/><radialGradient id="radial-gradient-2" cx="867.53" cy="-2160.55" r="10.47" xlink:href="#radial-gradient"/><linearGradient id="linear-gradient-8" x1="882.66" y1="156.74" x2="882.66" y2="136.19" xlink:href="#linear-gradient-4"/><linearGradient id="linear-gradient-9" x1="881.47" y1="156.74" x2="881.47" y2="136.19" xlink:href="#linear-gradient-5"/><linearGradient id="linear-gradient-10" x1="695.69" y1="98.84" x2="720.32" y2="145.22" xlink:href="#linear-gradient"/><linearGradient id="linear-gradient-11" x1="597.85" y1="44.52" x2="622.01" y2="90.01" gradientTransform="matrix(-1, -0.03, -0.03, 1, 839.78, 25.27)" gradientUnits="userSpaceOnUse"><stop offset="0" stop-color="#fff"/><stop offset="0.48" stop-color="#fdfdfd"/><stop offset="0.68" stop-color="#f6f6f6"/><stop offset="0.82" stop-color="#eaeaea"/><stop offset="0.94" stop-color="#d8d8d8"/><stop offset="1" stop-color="#ccc"/></linearGradient><linearGradient id="linear-gradient-12" x1="-2708.98" y1="3171.98" x2="-2705.98" y2="3162.91" gradientTransform="matrix(0.98, 0.19, 0.19, -0.98, 2260.52, 3740.79)" xlink:href="#linear-gradient"/><linearGradient id="linear-gradient-13" x1="709.33" y1="44.23" x2="710.63" y2="40.32" gradientTransform="matrix(-0.99, -0.11, -0.11, 0.99, 908.33, 153.27)" xlink:href="#linear-gradient-11"/><linearGradient id="linear-gradient-14" x1="591.28" y1="62.06" x2="839.65" y2="62.06" gradientTransform="matrix(-1, -0.03, -0.03, 1, 839.78, 25.27)" xlink:href="#linear-gradient"/><linearGradient id="linear-gradient-15" x1="601.1" y1="52.99" x2="829.6" y2="52.99" gradientTransform="matrix(-1, -0.03, -0.03, 1, 839.78, 25.27)" xlink:href="#linear-gradient"/><linearGradient id="linear-gradient-16" x1="805.01" y1="121.34" x2="805.01" y2="115.09" gradientTransform="matrix(-0.99, -0.12, -0.12, 0.99, 952.2, 38.9)" gradientUnits="userSpaceOnUse"><stop offset="0" stop-color="#ccc"/><stop offset="1" stop-color="#fafafa"/></linearGradient><linearGradient id="linear-gradient-17" x1="731.72" y1="98.3" x2="725.97" y2="116.02" xlink:href="#linear-gradient"/><linearGradient id="linear-gradient-18" x1="738.84" y1="121.6" x2="734.01" y2="107.46" xlink:href="#linear-gradient-2"/><linearGradient id="linear-gradient-19" x1="751.04" y1="121.05" x2="744.11" y2="100.83" xlink:href="#linear-gradient-3"/><radialGradient id="radial-gradient-3" cx="742.79" cy="-2189.15" r="10.47" xlink:href="#radial-gradient"/><linearGradient id="linear-gradient-20" x1="757.93" y1="116.84" x2="757.93" y2="96.29" xlink:href="#linear-gradient-4"/><linearGradient id="linear-gradient-21" x1="756.73" y1="116.84" x2="756.73" y2="96.29" xlink:href="#linear-gradient-5"/><linearGradient id="linear-gradient-22" x1="777.55" y1="134.03" x2="772.72" y2="119.88" xlink:href="#linear-gradient-2"/><linearGradient id="linear-gradient-23" x1="789.76" y1="133.48" x2="782.82" y2="113.26" xlink:href="#linear-gradient-3"/><radialGradient id="radial-gradient-4" cx="781.5" cy="-2180.25" r="10.47" xlink:href="#radial-gradient"/><linearGradient id="linear-gradient-24" x1="796.64" y1="129.26" x2="796.64" y2="108.71" xlink:href="#linear-gradient-4"/><linearGradient id="linear-gradient-25" x1="795.44" y1="129.26" x2="795.44" y2="108.71" xlink:href="#linear-gradient-5"/><linearGradient id="linear-gradient-26" x1="677.05" y1="157.58" x2="680.11" y2="148.33" xlink:href="#linear-gradient"/><linearGradient id="linear-gradient-27" x1="548.18" y1="96.34" x2="638.43" y2="116.82" xlink:href="#linear-gradient-11"/><linearGradient id="linear-gradient-28" x1="609.79" y1="75.38" x2="836.54" y2="75.38" gradientTransform="matrix(-1, -0.03, -0.03, 1, 839.78, 25.27)" xlink:href="#linear-gradient"/></defs><g class="cls-1"><g id="Layer_2" data-name="Layer 2"><g id="Layer_5" data-name="Layer 5"><path class="cls-2" d="M120.55,91.34l-16.46,3.5-5.67,1.89L97,98.17l-4.43-.53-20.75,4.6-4.9.7-19,.32s-2.55,2.58-3.5,2.47-10.57-2.86-10.57-2.86L85.71,68.6Z"/><polygon class="cls-3" points="34.57 103.08 81.22 71.87 80.83 71.27 33.4 102.82 34.57 103.08"/><path class="cls-4" d="M63.23,95.83A38.43,38.43,0,0,0,58,94L52,104.5a31.76,31.76,0,0,0,7.21,2.66,6.78,6.78,0,0,0,8.11-4.3C68.83,98.17,63.23,95.83,63.23,95.83Z"/><path class="cls-5" d="M38.16,100.45s12.17,5.21,16.86,6.8c3.33,1.14,7.72-2.11,8.76-6.58a8.49,8.49,0,0,0-1-6.8,7.57,7.57,0,0,0-3.46-2.74S47,85.25,44.86,84.61Z"/><path class="cls-6" d="M39.21,100.7c3.49.41,7.18-2.89,8.23-7.36a8.49,8.49,0,0,0-1-6.8,4.94,4.94,0,0,0-3.51-2.16c-3.49-.41-7.19,2.89-8.23,7.36a8.49,8.49,0,0,0,1,6.8A4.89,4.89,0,0,0,39.21,100.7Z"/><path class="cls-7" d="M47.06,93.25c1-4.29-.86-8.09-4.17-8.48s-6.8,2.77-7.8,7.06.86,8.09,4.16,8.49S46.06,97.55,47.06,93.25Z"/><path class="cls-8" d="M43.71,84.47a4.94,4.94,0,0,1,3.51,2.16,8.49,8.49,0,0,1,1,6.8c-1.05,4.47-4.74,7.78-8.23,7.36l-.77-.09c3.49.41,7.18-2.89,8.23-7.36a8.49,8.49,0,0,0-1-6.8,4.94,4.94,0,0,0-3.51-2.16Z"/><path class="cls-9" d="M41.13,100.93c3.49.41,7.18-2.89,8.23-7.36a8.49,8.49,0,0,0-1-6.8,4.91,4.91,0,0,0-3.51-2.16l-1.15-.14a4.94,4.94,0,0,1,3.51,2.16,8.49,8.49,0,0,1,1,6.8c-1.05,4.47-4.74,7.78-8.23,7.36Z"/><path class="cls-10" d="M81.92,84.05a47.56,47.56,0,0,0-6.43-2.31L68,94.74A38.33,38.33,0,0,0,76.92,98a8.39,8.39,0,0,0,10-5.31C88.83,86.94,81.92,84.05,81.92,84.05Z"/><path class="cls-11" d="M51,89.74s15,6.44,20.82,8.41c4.11,1.4,9.53-2.61,10.82-8.13a10.5,10.5,0,0,0-1.22-8.4,9.36,9.36,0,0,0-4.27-3.37S61.85,71,59.24,70.19Z"/><path class="cls-6" d="M52.26,90.06c4.31.51,8.87-3.57,10.16-9.09a10.5,10.5,0,0,0-1.22-8.4,6.11,6.11,0,0,0-4.34-2.66C52.55,69.4,48,73.48,46.7,79a10.5,10.5,0,0,0,1.23,8.4A6.07,6.07,0,0,0,52.26,90.06Z"/><path class="cls-12" d="M62,80.86c1.24-5.3-1.06-10-5.14-10.47s-8.4,3.42-9.64,8.72,1.06,10,5.15,10.47S60.71,86.16,62,80.86Z"/><path class="cls-13" d="M57.81,70a6.09,6.09,0,0,1,4.34,2.67,10.51,10.51,0,0,1,1.22,8.39c-1.29,5.53-5.85,9.6-10.16,9.09l-1-.11c4.31.51,8.87-3.57,10.16-9.09a10.5,10.5,0,0,0-1.22-8.4,6.11,6.11,0,0,0-4.34-2.66Z"/><path class="cls-14" d="M54.63,90.34c4.31.51,8.87-3.57,10.16-9.09a10.5,10.5,0,0,0-1.22-8.4,6.07,6.07,0,0,0-4.33-2.66L57.81,70a6.09,6.09,0,0,1,4.34,2.67,10.51,10.51,0,0,1,1.22,8.39c-1.29,5.53-5.85,9.6-10.16,9.09Z"/><path class="cls-15" d="M207.67,90.39a2.87,2.87,0,0,1-.52-4.3L239.7,48.64a2.68,2.68,0,0,1,4.2,0l5.12,6a6.48,6.48,0,0,1,1.1,5.53l-14.8,46a2.23,2.23,0,0,1-3.62,1.2Z"/><path class="cls-16" d="M207.15,86.09,239.7,48.64a2.68,2.68,0,0,1,4.2,0l5.12,6a4.13,4.13,0,0,1,.41.59l-5.06-6a2.68,2.68,0,0,0-4.2,0L207.62,86.74a2.87,2.87,0,0,0-.41,3.26A2.87,2.87,0,0,1,207.15,86.09Z"/><path class="cls-17" d="M220.33,124.77l-32.57,1.77a6.29,6.29,0,0,1-3-.72l-3-1.73c-.76-.44-.7-1,.13-1.33l24.76-8.56a4.46,4.46,0,0,1,3,.19S218.85,119,220.33,124.77Z"/><path class="cls-18" d="M181.91,122.76l24.76-8.56a4.46,4.46,0,0,1,3,.19,35.29,35.29,0,0,1,5.33,3.43,35.46,35.46,0,0,0-4.92-3.11,4.46,4.46,0,0,0-3-.19l-24.75,8.56c-.67.23-.84.66-.49,1l-.06,0C181,123.65,181.08,123.05,181.91,122.76Z"/><path class="cls-19" d="M47,6.15,190.05,76.3s29.61,15.83,41.24,27,15.47,15.52,12.65,20.17-40-.09-57.6-3.77-83.57-36.88-104.4-46.4S32.85,50.86,32.85,50.86,5.78,38.79,1.1,21.77s7-15.69,7-15.69S20.3-2.46,31.36.7,47,6.15,47,6.15Z"/><path class="cls-20" d="M91,55.57,41.94,33.09S15.58,21.34,10.4,4.68c4-2.28,12.81-6.31,21-4C42.42,3.86,47,6.15,47,6.15L190.05,76.3s29.61,15.83,41.24,27c1.53,1.47,2.92,2.82,4.17,4.07a323.71,323.71,0,0,1-40-5.44C177.8,98.29,111.86,65.09,91,55.57Z"/><path class="cls-21" d="M10.13,7.54S14,3.47,16.05,3.79,21.5,5,21.5,5l-.16,5.13S11.23,7.71,10.13,7.54Z"/><path class="cls-21" d="M23.23,5.25s4.21,2,4.51,3.13.77,4.31.77,4.31l-5.33-2Z"/><path class="cls-22" d="M3.22,22.85a8.34,8.34,0,0,0,9.39-7.11A8.21,8.21,0,0,0,7.79,7.38l.23,0,.07-.06a8.45,8.45,0,0,1,4.76,8.5A8.59,8.59,0,0,1,3.2,23.09c-.23,0-.46-.08-.68-.12l-.11-.26A7.62,7.62,0,0,0,3.22,22.85Z"/><path class="cls-23" d="M45.33,13.92c.06-.55-.2-1-.59-1.09s-.77.37-.83.92.19,1.05.59,1.1S45.26,14.48,45.33,13.92Z"/><path class="cls-23" d="M205.25,103c.16-1.8.43-8.5.48-9.94V93h.1a5.39,5.39,0,0,1,1.45,0c1.63.19,3.66,1.07,4.07,2.92s.45,8-.8,9.52a.82.82,0,0,1-.65.33,4.87,4.87,0,0,1-.65,0h0C207.69,105.47,205.09,104.7,205.25,103Zm.71-9.83c-.05,1.63-.31,8.08-.47,9.85-.14,1.53,2.31,2.23,3.79,2.4a4.44,4.44,0,0,0,.62,0,.53.53,0,0,0,.46-.25c1.17-1.39,1.17-7.44.76-9.3-.36-1.62-2.2-2.55-3.87-2.75A5.56,5.56,0,0,0,206,93.16Z"/><path class="cls-23" d="M209.36,96.82c0-.43-.16-.81-.46-.84s-.59.28-.64.71.15.81.45.84S209.31,97.25,209.36,96.82Z"/><path class="cls-21" d="M57.62,23.4a.69.69,0,0,1-1,.56l-1.49-.62A1.36,1.36,0,0,1,54.3,22l.46-3.91a.7.7,0,0,1,1-.57l1.49.63a1.35,1.35,0,0,1,.8,1.34Z"/><path class="cls-21" d="M64.26,26.91a.7.7,0,0,1-1,.57l-1.49-.63a1.38,1.38,0,0,1-.8-1.33l.46-3.92a.7.7,0,0,1,1-.56l1.49.63A1.37,1.37,0,0,1,64.73,23Z"/><path class="cls-21" d="M70.47,30.06a.7.7,0,0,1-1,.56L68,30a1.37,1.37,0,0,1-.81-1.33l.47-3.92a.7.7,0,0,1,1-.56l1.49.63a1.38,1.38,0,0,1,.8,1.33Z"/><path class="cls-21" d="M76.83,33.22a.7.7,0,0,1-1,.56l-1.49-.63a1.35,1.35,0,0,1-.8-1.33L74,27.9a.7.7,0,0,1,1-.56l1.49.63a1.35,1.35,0,0,1,.8,1.33Z"/><path class="cls-21" d="M82.89,36.18a.69.69,0,0,1-1,.57l-1.49-.63a1.37,1.37,0,0,1-.81-1.33L80,30.87a.69.69,0,0,1,1-.56l1.49.62a1.38,1.38,0,0,1,.81,1.34Z"/><path class="cls-21" d="M89,39.15a.7.7,0,0,1-1,.56l-1.49-.63a1.35,1.35,0,0,1-.8-1.33l.46-3.92a.7.7,0,0,1,1-.56l1.49.63a1.36,1.36,0,0,1,.8,1.33Z"/><path class="cls-21" d="M94.25,41.86a.69.69,0,0,1-1,.56l-1.49-.62a1.39,1.39,0,0,1-.8-1.34l.46-3.91a.7.7,0,0,1,1-.57l1.49.63A1.37,1.37,0,0,1,94.72,38Z"/><path class="cls-21" d="M100.16,44.81a.7.7,0,0,1-1,.56l-1.49-.63a1.35,1.35,0,0,1-.8-1.33l.46-3.92a.7.7,0,0,1,1-.56l1.49.63a1.35,1.35,0,0,1,.8,1.33Z"/><path class="cls-21" d="M105.63,47.38a.69.69,0,0,1-1,.56l-1.49-.62a1.36,1.36,0,0,1-.8-1.34l.46-3.91a.7.7,0,0,1,1-.57l1.49.63a1.35,1.35,0,0,1,.8,1.34Z"/><path class="cls-21" d="M110.67,49.86a.7.7,0,0,1-1,.57l-1.49-.63a1.35,1.35,0,0,1-.8-1.34l.46-3.91a.7.7,0,0,1,1-.57l1.49.63a1.36,1.36,0,0,1,.8,1.34Z"/><path class="cls-21" d="M126,57.61a.69.69,0,0,1-1,.56l-1.49-.62a1.39,1.39,0,0,1-.8-1.34l.46-3.91a.7.7,0,0,1,1-.57l1.49.63a1.37,1.37,0,0,1,.81,1.33Z"/><path class="cls-21" d="M130.83,59.79a.69.69,0,0,1-1,.56l-1.49-.62a1.38,1.38,0,0,1-.81-1.34l.47-3.91a.7.7,0,0,1,1-.57l1.49.63a1.38,1.38,0,0,1,.8,1.34Z"/><path class="cls-21" d="M177.48,81.06a.52.52,0,0,1-.77.43L175.59,81a1,1,0,0,1-.6-1l.35-2.93a.52.52,0,0,1,.77-.43l1.12.47a1,1,0,0,1,.6,1Z"/><path class="cls-21" d="M181.21,83.45a.52.52,0,0,1-.77.43l-1.12-.47a1,1,0,0,1-.6-1l.35-2.93a.52.52,0,0,1,.77-.43l1.12.47a1,1,0,0,1,.6,1Z"/><path class="cls-21" d="M185,85.57a.52.52,0,0,1-.77.43l-1.12-.48a1,1,0,0,1-.6-1l.35-2.93a.52.52,0,0,1,.77-.43l1.12.47a1,1,0,0,1,.6,1Z"/><path class="cls-21" d="M188.61,87.36a.52.52,0,0,1-.77.42l-1.12-.47a1,1,0,0,1-.6-1l.34-2.94a.52.52,0,0,1,.78-.42l1.11.47a1,1,0,0,1,.61,1Z"/><path class="cls-21" d="M199.08,92.45a.53.53,0,0,1-.78.42l-1.12-.47a1,1,0,0,1-.6-1l.35-2.94a.52.52,0,0,1,.77-.42l1.12.47a1,1,0,0,1,.6,1Z"/><path class="cls-21" d="M202.23,94.26a.52.52,0,0,1-.77.43l-1.12-.47a1.05,1.05,0,0,1-.61-1l.35-2.93a.52.52,0,0,1,.77-.43l1.12.47a1,1,0,0,1,.6,1Z"/><path class="cls-24" d="M39.93,17.55l1.36-5.07a3.93,3.93,0,1,1,7.6,2l-1.35,5.06a3.94,3.94,0,0,1-7.61-2Zm1.63-5-1.35,5.06a3.65,3.65,0,1,0,7,1.89l1.36-5.07a3.65,3.65,0,0,0-7.06-1.88Z"/><path class="cls-25" d="M116.3,63.17A5.36,5.36,0,0,1,121.69,60c4.16.17,40.06-2.31,40.06-2.31l-35.4,6.39Z"/><path class="cls-26" d="M312.84,43.07s-6.25-3.82-9.14-3.27S116.43,63.89,116.43,63.89s39.34,18.63,43.31,18.94,81.74-18.38,81.74-18.38l3.09,1,.37-1.72,7.75-1.81-.49-2.62Z"/><polygon class="cls-3" points="116.42 63.9 307.65 40.51 306.29 40.06 116.32 63.19 116.42 63.9"/><path class="cls-27" d="M231.24,49.2c38.08-4.89,71.24-9.16,72.46-9.4a6.11,6.11,0,0,1,2.62.27Z"/><path class="cls-28" d="M210.48,59.11a46.1,46.1,0,0,0-6.43-2.31l-7.46,13a38.7,38.7,0,0,0,8.9,3.29,8.36,8.36,0,0,0,10-5.31C217.39,62,210.48,59.11,210.48,59.11Z"/><path class="cls-29" d="M179.52,64.8s15,6.44,20.82,8.4c4.11,1.4,9.53-2.6,10.82-8.12a10.46,10.46,0,0,0-1.22-8.4,9.39,9.39,0,0,0-4.27-3.38s-15.26-7.26-17.87-8Z"/><path class="cls-6" d="M180.82,65.11c4.31.52,8.87-3.56,10.16-9.08a10.49,10.49,0,0,0-1.22-8.4A6.07,6.07,0,0,0,185.43,45c-4.31-.51-8.87,3.56-10.16,9.09a10.47,10.47,0,0,0,1.22,8.39A6,6,0,0,0,180.82,65.11Z"/><path class="cls-30" d="M190.52,55.92c1.24-5.31-1.07-10-5.15-10.48s-8.4,3.42-9.64,8.72,1.07,10,5.15,10.48S189.28,61.22,190.52,55.92Z"/><path class="cls-31" d="M186.38,45.08a6.09,6.09,0,0,1,4.33,2.66,10.5,10.5,0,0,1,1.22,8.4c-1.29,5.52-5.85,9.6-10.16,9.09l-1-.12c4.31.52,8.87-3.56,10.16-9.08a10.49,10.49,0,0,0-1.22-8.4A6.07,6.07,0,0,0,185.43,45Z"/><path class="cls-32" d="M183.2,65.4c4.31.51,8.86-3.57,10.16-9.09a10.5,10.5,0,0,0-1.23-8.4,6.07,6.07,0,0,0-4.33-2.66l-1.42-.17a6.09,6.09,0,0,1,4.33,2.66,10.5,10.5,0,0,1,1.22,8.4c-1.29,5.52-5.85,9.6-10.16,9.09Z"/><path class="cls-33" d="M170.58,66.89a47.56,47.56,0,0,0-6.43-2.31l-7.46,13a38.71,38.71,0,0,0,8.89,3.29,8.37,8.37,0,0,0,10-5.31C177.49,69.77,170.58,66.89,170.58,66.89Z"/><path class="cls-34" d="M139.62,72.58s15,6.44,20.82,8.41c4.11,1.4,9.53-2.61,10.82-8.13a10.5,10.5,0,0,0-1.22-8.4,9.44,9.44,0,0,0-4.27-3.38s-15.27-7.26-17.87-8Z"/><path class="cls-6" d="M140.92,72.9c4.31.51,8.87-3.57,10.16-9.09a10.54,10.54,0,0,0-1.22-8.4,6.11,6.11,0,0,0-4.34-2.66c-4.31-.51-8.86,3.57-10.16,9.09a10.5,10.5,0,0,0,1.23,8.4A6.07,6.07,0,0,0,140.92,72.9Z"/><path class="cls-35" d="M150.61,63.7c1.24-5.3-1.06-10-5.14-10.48s-8.4,3.43-9.64,8.73,1.06,10,5.15,10.47S149.37,69,150.61,63.7Z"/><path class="cls-36" d="M146.47,52.86a6.11,6.11,0,0,1,4.34,2.66,10.54,10.54,0,0,1,1.22,8.4c-1.29,5.52-5.85,9.6-10.16,9.09l-1-.11c4.31.51,8.87-3.57,10.16-9.09a10.54,10.54,0,0,0-1.22-8.4,6.11,6.11,0,0,0-4.34-2.66Z"/><path class="cls-37" d="M143.29,73.18c4.31.51,8.87-3.57,10.16-9.09a10.5,10.5,0,0,0-1.22-8.4A6.11,6.11,0,0,0,147.9,53l-1.43-.17a6.11,6.11,0,0,1,4.34,2.66,10.54,10.54,0,0,1,1.22,8.4c-1.29,5.52-5.85,9.6-10.16,9.09Z"/><path class="cls-38" d="M224.56,109.76,288.91,103a4.92,4.92,0,0,1,2.91.78l2.71,2c.72.52.6,1.1-.27,1.3L239,119.6a5.91,5.91,0,0,1-3.06-.26S226.46,115.44,224.56,109.76Z"/><path class="cls-39" d="M294.87,106.22l-2.71-2a4.91,4.91,0,0,0-2.91-.77l-64.5,6.77c-.07-.16-.13-.33-.19-.5L288.91,103a4.92,4.92,0,0,1,2.91.78l2.71,2a1.09,1.09,0,0,1,.46.6Z"/><path class="cls-40" d="M2.71,25.91c26.39,16.86,136.85,66.66,172,82.61a247.74,247.74,0,0,0,51.43,16.65,325.36,325.36,0,0,1-39.81-5.43c-17.64-3.68-83.57-36.88-104.4-46.4S32.85,50.86,32.85,50.86,10.09,40.71,2.71,25.91Z"/></g></g></g></svg>