<svg xmlns="http://www.w3.org/2000/svg" xmlns:xlink="http://www.w3.org/1999/xlink" viewBox="0 0 803.45 473.52"><defs><style>.cls-1{fill:#eaf7f9;}.cls-2{clip-path:url(#clip-path);}.cls-3{fill:#126fb7;}.cls-4{fill:#fa0;}.cls-5{fill:#233542;}.cls-6{fill:#a1d3e2;}.cls-7{fill:#428895;}.cls-8{fill:#294175;}.cls-9{fill:#ffffe5;}.cls-10{fill:#6db9d1;}.cls-11{clip-path:url(#clip-path-2);}</style><clipPath id="clip-path" transform="translate(11.71)"><path class="cls-1" d="M613.12,224.88a23.11,23.11,0,0,1-15.28,28.89L94.25,409.08a23.12,23.12,0,0,1-28.9-15.28L1,185.22A23.12,23.12,0,0,1,16.3,156.33L519.9,1A23.11,23.11,0,0,1,548.79,16.3Z"/></clipPath><clipPath id="clip-path-2" transform="translate(11.71)"><rect class="cls-1" x="218.52" y="203.61" width="573.22" height="264.49" rx="23.11"/></clipPath></defs><g id="Layer_2" data-name="Layer 2"><g id="Layer_1-2" data-name="Layer 1"><path class="cls-1" d="M613.12,224.88a23.11,23.11,0,0,1-15.28,28.89L94.25,409.08a23.12,23.12,0,0,1-28.9-15.28L1,185.22A23.12,23.12,0,0,1,16.3,156.33L519.9,1A23.11,23.11,0,0,1,548.79,16.3Z" transform="translate(11.71)"/><g class="cls-2"><rect class="cls-3" x="26.24" y="141.66" width="98.81" height="272.49" transform="translate(-66.83 34.63) rotate(-17.14)"/></g><path class="cls-4" d="M126.83,190a1.67,1.67,0,1,1,2.1,1.2A1.64,1.64,0,0,1,126.83,190Z" transform="translate(11.71)"/><path class="cls-4" d="M132.37,188.32a1.67,1.67,0,0,1,1.09-2.19,1.77,1.77,0,0,1,1,3.39A1.66,1.66,0,0,1,132.37,188.32Z" transform="translate(11.71)"/><path class="cls-4" d="M137.92,186.61a1.67,1.67,0,0,1,1.09-2.19,1.77,1.77,0,0,1,1,3.39A1.66,1.66,0,0,1,137.92,186.61Z" transform="translate(11.71)"/><path class="cls-4" d="M143.47,184.9a1.67,1.67,0,0,1,1.09-2.19,1.77,1.77,0,0,1,1,3.39A1.66,1.66,0,0,1,143.47,184.9Z" transform="translate(11.71)"/><path class="cls-4" d="M149,183.18a1.67,1.67,0,1,1,2.1,1.21A1.65,1.65,0,0,1,149,183.18Z" transform="translate(11.71)"/><path class="cls-4" d="M154.57,181.47a1.67,1.67,0,1,1,2.1,1.2A1.65,1.65,0,0,1,154.57,181.47Z" transform="translate(11.71)"/><path class="cls-4" d="M160.12,179.76a1.67,1.67,0,1,1,2.1,1.2A1.65,1.65,0,0,1,160.12,179.76Z" transform="translate(11.71)"/><path class="cls-4" d="M165.67,178.05a1.67,1.67,0,1,1,2.1,1.2A1.65,1.65,0,0,1,165.67,178.05Z" transform="translate(11.71)"/><path class="cls-4" d="M171.22,176.34a1.67,1.67,0,1,1,2.1,1.2A1.65,1.65,0,0,1,171.22,176.34Z" transform="translate(11.71)"/><path class="cls-4" d="M176.77,174.63a1.66,1.66,0,0,1,1.08-2.19,1.77,1.77,0,1,1-1.08,2.19Z" transform="translate(11.71)"/><path class="cls-4" d="M182.31,172.92a1.67,1.67,0,0,1,1.09-2.19,1.77,1.77,0,0,1,1,3.39A1.66,1.66,0,0,1,182.31,172.92Z" transform="translate(11.71)"/><path class="cls-4" d="M187.86,171.21A1.67,1.67,0,0,1,189,169a1.77,1.77,0,0,1,1,3.39A1.66,1.66,0,0,1,187.86,171.21Z" transform="translate(11.71)"/><path class="cls-4" d="M193.41,169.5a1.67,1.67,0,0,1,1.09-2.19,1.77,1.77,0,0,1,1,3.39A1.66,1.66,0,0,1,193.41,169.5Z" transform="translate(11.71)"/><path class="cls-4" d="M199,167.78a1.67,1.67,0,1,1,2.1,1.21A1.65,1.65,0,0,1,199,167.78Z" transform="translate(11.71)"/><path class="cls-4" d="M204.51,166.07a1.67,1.67,0,1,1,2.1,1.2A1.65,1.65,0,0,1,204.51,166.07Z" transform="translate(11.71)"/><path class="cls-4" d="M259.21,155.32a1.66,1.66,0,0,1,1.08-2.19,1.77,1.77,0,1,1-1.08,2.19Z" transform="translate(11.71)"/><path class="cls-4" d="M264.76,153.61a1.66,1.66,0,0,1,1.08-2.19,1.77,1.77,0,0,1,1,3.39A1.65,1.65,0,0,1,264.76,153.61Z" transform="translate(11.71)"/><path class="cls-4" d="M270.3,151.9a1.67,1.67,0,0,1,1.09-2.19,1.77,1.77,0,0,1,1,3.39A1.66,1.66,0,0,1,270.3,151.9Z" transform="translate(11.71)"/><path class="cls-4" d="M275.85,150.18a1.66,1.66,0,0,1,1.09-2.18,1.77,1.77,0,0,1,1,3.39A1.66,1.66,0,0,1,275.85,150.18Z" transform="translate(11.71)"/><path class="cls-4" d="M281.4,148.47a1.66,1.66,0,0,1,1.09-2.18,1.77,1.77,0,0,1,1,3.38A1.65,1.65,0,0,1,281.4,148.47Z" transform="translate(11.71)"/><path class="cls-4" d="M287,146.76a1.67,1.67,0,1,1,2.1,1.2A1.65,1.65,0,0,1,287,146.76Z" transform="translate(11.71)"/><path class="cls-4" d="M292.5,145.05a1.67,1.67,0,1,1,2.1,1.2A1.65,1.65,0,0,1,292.5,145.05Z" transform="translate(11.71)"/><path class="cls-4" d="M298.05,143.34a1.65,1.65,0,0,1,1.09-2.18,1.77,1.77,0,1,1-1.09,2.18Z" transform="translate(11.71)"/><path class="cls-4" d="M303.6,141.63a1.66,1.66,0,0,1,1.09-2.19,1.77,1.77,0,1,1-1.09,2.19Z" transform="translate(11.71)"/><path class="cls-4" d="M309.15,139.92a1.66,1.66,0,0,1,1.08-2.19,1.77,1.77,0,1,1-1.08,2.19Z" transform="translate(11.71)"/><path class="cls-4" d="M314.69,138.21a1.67,1.67,0,0,1,1.09-2.19,1.77,1.77,0,0,1,1,3.39A1.66,1.66,0,0,1,314.69,138.21Z" transform="translate(11.71)"/><path class="cls-4" d="M320.24,136.49a1.66,1.66,0,0,1,1.09-2.18,1.77,1.77,0,0,1,1,3.39A1.66,1.66,0,0,1,320.24,136.49Z" transform="translate(11.71)"/><path class="cls-4" d="M325.79,134.78a1.66,1.66,0,0,1,1.09-2.18,1.77,1.77,0,0,1,1,3.38A1.66,1.66,0,0,1,325.79,134.78Z" transform="translate(11.71)"/><path class="cls-4" d="M331.34,133.07a1.66,1.66,0,0,1,1.09-2.18,1.77,1.77,0,0,1,1,3.38A1.65,1.65,0,0,1,331.34,133.07Z" transform="translate(11.71)"/><path class="cls-4" d="M336.89,131.36a1.67,1.67,0,1,1,2.1,1.2A1.65,1.65,0,0,1,336.89,131.36Z" transform="translate(11.71)"/><path class="cls-4" d="M342.44,129.65a1.67,1.67,0,1,1,2.1,1.2A1.65,1.65,0,0,1,342.44,129.65Z" transform="translate(11.71)"/><path class="cls-4" d="M348,127.94a1.67,1.67,0,1,1,2.1,1.2A1.65,1.65,0,0,1,348,127.94Z" transform="translate(11.71)"/><path class="cls-4" d="M353.54,126.23a1.66,1.66,0,0,1,1.08-2.19,1.77,1.77,0,1,1-1.08,2.19Z" transform="translate(11.71)"/><path class="cls-4" d="M359.09,124.52a1.66,1.66,0,0,1,1.08-2.19,1.77,1.77,0,1,1-1.08,2.19Z" transform="translate(11.71)"/><path class="cls-4" d="M364.63,122.81a1.67,1.67,0,0,1,1.09-2.19,1.77,1.77,0,0,1,1,3.39A1.66,1.66,0,0,1,364.63,122.81Z" transform="translate(11.71)"/><path class="cls-4" d="M370.18,121.09a1.66,1.66,0,0,1,1.09-2.18,1.77,1.77,0,0,1,1,3.39A1.67,1.67,0,0,1,370.18,121.09Z" transform="translate(11.71)"/><path class="cls-4" d="M375.73,119.38a1.66,1.66,0,0,1,1.09-2.18,1.77,1.77,0,0,1,1,3.38A1.65,1.65,0,0,1,375.73,119.38Z" transform="translate(11.71)"/><path class="cls-4" d="M381.28,117.67a1.66,1.66,0,0,1,1.09-2.18,1.77,1.77,0,1,1-1.09,2.18Z" transform="translate(11.71)"/><path class="cls-4" d="M386.83,116a1.67,1.67,0,1,1,2.1,1.2A1.65,1.65,0,0,1,386.83,116Z" transform="translate(11.71)"/><path class="cls-4" d="M392.38,114.25a1.67,1.67,0,1,1,2.1,1.2A1.65,1.65,0,0,1,392.38,114.25Z" transform="translate(11.71)"/><path class="cls-4" d="M397.93,112.54a1.66,1.66,0,0,1,1.09-2.19,1.77,1.77,0,1,1-1.09,2.19Z" transform="translate(11.71)"/><path class="cls-4" d="M403.48,110.83a1.66,1.66,0,0,1,1.08-2.19,1.77,1.77,0,1,1-1.08,2.19Z" transform="translate(11.71)"/><path class="cls-4" d="M409,109.12a1.67,1.67,0,1,1,2.1,1.2A1.66,1.66,0,0,1,409,109.12Z" transform="translate(11.71)"/><path class="cls-4" d="M414.57,107.41a1.67,1.67,0,0,1,1.09-2.19,1.77,1.77,0,0,1,1,3.39A1.67,1.67,0,0,1,414.57,107.41Z" transform="translate(11.71)"/><path class="cls-4" d="M420.12,105.69a1.66,1.66,0,0,1,1.09-2.18,1.77,1.77,0,0,1,1,3.39A1.66,1.66,0,0,1,420.12,105.69Z" transform="translate(11.71)"/><path class="cls-4" d="M425.67,104a1.66,1.66,0,0,1,1.09-2.18,1.77,1.77,0,0,1,1,3.38A1.65,1.65,0,0,1,425.67,104Z" transform="translate(11.71)"/><path class="cls-5" d="M450.93,85.86a.92.92,0,0,1,.61-1.22.9.9,0,0,1,1.17.67.93.93,0,1,1-1.78.55Z" transform="translate(11.71)"/><path class="cls-5" d="M454,84.9a.93.93,0,0,1,.61-1.22A1,1,0,1,1,454,84.9Z" transform="translate(11.71)"/><path class="cls-5" d="M457.14,83.94a.92.92,0,0,1,.61-1.22,1,1,0,1,1-.61,1.22Z" transform="translate(11.71)"/><path class="cls-5" d="M460.24,83a.93.93,0,0,1,.61-1.23,1,1,0,0,1,.57,1.9A.93.93,0,0,1,460.24,83Z" transform="translate(11.71)"/><path class="cls-5" d="M463.35,82a.93.93,0,1,1,1.17.67A.92.92,0,0,1,463.35,82Z" transform="translate(11.71)"/><path class="cls-5" d="M466.45,81.07a.92.92,0,0,1,.61-1.22,1,1,0,1,1-.61,1.22Z" transform="translate(11.71)"/><path class="cls-5" d="M469.55,80.12a.93.93,0,0,1,.61-1.23,1,1,0,1,1-.61,1.23Z" transform="translate(11.71)"/><path class="cls-5" d="M472.66,79.16a.92.92,0,0,1,.61-1.22.9.9,0,0,1,1.17.67.93.93,0,1,1-1.78.55Z" transform="translate(11.71)"/><path class="cls-5" d="M475.76,78.2a.92.92,0,0,1,.61-1.22,1,1,0,1,1-.61,1.22Z" transform="translate(11.71)"/><path class="cls-5" d="M478.87,77.24a.93.93,0,1,1,1.17.68A.93.93,0,0,1,478.87,77.24Z" transform="translate(11.71)"/><path class="cls-5" d="M482,76.29a.93.93,0,0,1,.61-1.23,1,1,0,0,1,.57,1.9A.93.93,0,0,1,482,76.29Z" transform="translate(11.71)"/><path class="cls-5" d="M485.07,75.33a.93.93,0,0,1,.61-1.22.91.91,0,0,1,1.18.67.94.94,0,1,1-1.79.55Z" transform="translate(11.71)"/><path class="cls-5" d="M488.18,74.37a.92.92,0,0,1,.61-1.22,1,1,0,1,1-.61,1.22Z" transform="translate(11.71)"/><path class="cls-5" d="M491.28,73.41a.94.94,0,1,1,1.18.68A.93.93,0,0,1,491.28,73.41Z" transform="translate(11.71)"/><path class="cls-5" d="M494.39,72.46a.93.93,0,1,1,1.17.67A.92.92,0,0,1,494.39,72.46Z" transform="translate(11.71)"/><path class="cls-5" d="M497.49,71.5a.92.92,0,0,1,.61-1.22,1,1,0,0,1,.56,1.89A.92.92,0,0,1,497.49,71.5Z" transform="translate(11.71)"/><path class="cls-5" d="M500.59,70.54a.93.93,0,0,1,.61-1.22,1,1,0,1,1-.61,1.22Z" transform="translate(11.71)"/><path class="cls-5" d="M503.7,69.59a.93.93,0,0,1,.61-1.23,1,1,0,1,1-.61,1.23Z" transform="translate(11.71)"/><path class="cls-5" d="M506.8,68.63a.94.94,0,1,1,1.18.67A.92.92,0,0,1,506.8,68.63Z" transform="translate(11.71)"/><path class="cls-5" d="M509.91,67.67a.93.93,0,1,1,1.17.67A.92.92,0,0,1,509.91,67.67Z" transform="translate(11.71)"/><path class="cls-5" d="M513,66.71a.92.92,0,0,1,.61-1.22.91.91,0,0,1,1.17.67.93.93,0,1,1-1.78.55Z" transform="translate(11.71)"/><path class="cls-5" d="M516.11,65.76a.94.94,0,0,1,.61-1.23,1,1,0,1,1-.61,1.23Z" transform="translate(11.71)"/><path class="cls-5" d="M519.22,64.8a.92.92,0,0,1,.61-1.22.9.9,0,0,1,1.17.67.93.93,0,1,1-1.78.55Z" transform="translate(11.71)"/><path class="cls-5" d="M522.32,63.84a.94.94,0,1,1,1.18.67A.92.92,0,0,1,522.32,63.84Z" transform="translate(11.71)"/><path class="cls-5" d="M525.43,62.89a.92.92,0,0,1,.61-1.23,1,1,0,0,1,.56,1.9A.92.92,0,0,1,525.43,62.89Z" transform="translate(11.71)"/><path class="cls-5" d="M528.53,61.93a.92.92,0,0,1,.61-1.22.9.9,0,0,1,1.17.67.91.91,0,0,1-.6,1.22A.93.93,0,0,1,528.53,61.93Z" transform="translate(11.71)"/><path class="cls-5" d="M531.63,61a.94.94,0,1,1,1.18.67A.93.93,0,0,1,531.63,61Z" transform="translate(11.71)"/><path class="cls-5" d="M534.74,60a.92.92,0,0,1,.61-1.22.91.91,0,0,1,1.17.67.93.93,0,1,1-1.78.55Z" transform="translate(11.71)"/><path class="cls-5" d="M537.84,59.06a.94.94,0,0,1,.61-1.23,1,1,0,1,1-.61,1.23Z" transform="translate(11.71)"/><path class="cls-5" d="M541,58.1a.92.92,0,0,1,.61-1.22.9.9,0,0,1,1.17.67.93.93,0,1,1-1.78.55Z" transform="translate(11.71)"/><path class="cls-5" d="M457.61,107.52a.92.92,0,0,1,.61-1.22.9.9,0,0,1,1.17.67.93.93,0,1,1-1.78.55Z" transform="translate(11.71)"/><path class="cls-5" d="M460.71,106.56a.94.94,0,1,1,1.18.67A.92.92,0,0,1,460.71,106.56Z" transform="translate(11.71)"/><path class="cls-5" d="M463.82,105.6a.93.93,0,1,1,1.17.68A.92.92,0,0,1,463.82,105.6Z" transform="translate(11.71)"/><path class="cls-5" d="M466.92,104.65a.93.93,0,0,1,.61-1.23,1,1,0,0,1,.57,1.9A.93.93,0,0,1,466.92,104.65Z" transform="translate(11.71)"/><path class="cls-5" d="M470,103.69a.93.93,0,1,1,1.17.67A.92.92,0,0,1,470,103.69Z" transform="translate(11.71)"/><path class="cls-5" d="M473.13,102.73a.92.92,0,0,1,.61-1.22,1,1,0,1,1-.61,1.22Z" transform="translate(11.71)"/><path class="cls-5" d="M476.23,101.77a.94.94,0,1,1,1.79-.55.94.94,0,1,1-1.79.55Z" transform="translate(11.71)"/><path class="cls-5" d="M479.34,100.82a.93.93,0,0,1,.61-1.23,1,1,0,1,1-.61,1.23Z" transform="translate(11.71)"/><path class="cls-5" d="M482.44,99.86a.92.92,0,0,1,.61-1.22,1,1,0,0,1,.57,1.89A.93.93,0,0,1,482.44,99.86Z" transform="translate(11.71)"/><path class="cls-5" d="M485.55,98.9a.93.93,0,1,1,1.17.67A.91.91,0,0,1,485.55,98.9Z" transform="translate(11.71)"/><path class="cls-5" d="M488.65,98a.93.93,0,0,1,.61-1.23,1,1,0,1,1-.61,1.23Z" transform="translate(11.71)"/><path class="cls-5" d="M491.75,97a.93.93,0,0,1,.61-1.22.91.91,0,0,1,1.18.67.94.94,0,1,1-1.79.55Z" transform="translate(11.71)"/><path class="cls-5" d="M494.86,96a.92.92,0,0,1,.61-1.22,1,1,0,1,1-.61,1.22Z" transform="translate(11.71)"/><path class="cls-5" d="M498,95.07a.94.94,0,1,1,1.79-.55.94.94,0,1,1-1.79.55Z" transform="translate(11.71)"/><path class="cls-5" d="M501.07,94.12a.93.93,0,0,1,.6-1.23,1,1,0,1,1-.6,1.23Z" transform="translate(11.71)"/><path class="cls-5" d="M504.17,93.16a.92.92,0,0,1,.61-1.22.9.9,0,0,1,1.17.67.93.93,0,1,1-1.78.55Z" transform="translate(11.71)"/><path class="cls-5" d="M507.27,92.2a.93.93,0,0,1,.61-1.22,1,1,0,1,1-.61,1.22Z" transform="translate(11.71)"/><path class="cls-5" d="M510.38,91.24A.92.92,0,0,1,511,90a.91.91,0,0,1,1.17.67.93.93,0,1,1-1.78.55Z" transform="translate(11.71)"/><path class="cls-5" d="M513.48,90.29a.93.93,0,0,1,.61-1.23,1,1,0,0,1,.57,1.9A.93.93,0,0,1,513.48,90.29Z" transform="translate(11.71)"/><path class="cls-5" d="M516.58,89.33a.93.93,0,0,1,.61-1.22.92.92,0,0,1,1.18.67.91.91,0,0,1-.61,1.22A.93.93,0,0,1,516.58,89.33Z" transform="translate(11.71)"/><path class="cls-5" d="M519.69,88.37a.92.92,0,0,1,.61-1.22,1,1,0,1,1-.61,1.22Z" transform="translate(11.71)"/><path class="cls-5" d="M522.79,87.42a.94.94,0,0,1,.61-1.23,1,1,0,1,1-.61,1.23Z" transform="translate(11.71)"/><path class="cls-5" d="M525.9,86.46a.92.92,0,0,1,.61-1.22.9.9,0,0,1,1.17.67.93.93,0,1,1-1.78.55Z" transform="translate(11.71)"/><path class="cls-5" d="M529,85.5a.94.94,0,1,1,1.18.67A.92.92,0,0,1,529,85.5Z" transform="translate(11.71)"/><path class="cls-5" d="M532.11,84.54a.93.93,0,1,1,1.17.68A.92.92,0,0,1,532.11,84.54Z" transform="translate(11.71)"/><path class="cls-5" d="M535.21,83.59a.93.93,0,0,1,.61-1.23,1,1,0,1,1-.61,1.23Z" transform="translate(11.71)"/><path class="cls-5" d="M538.31,82.63a.93.93,0,0,1,.61-1.22.91.91,0,0,1,1.18.67.94.94,0,1,1-1.79.55Z" transform="translate(11.71)"/><path class="cls-5" d="M541.42,81.67a.92.92,0,0,1,.61-1.22,1,1,0,1,1-.61,1.22Z" transform="translate(11.71)"/><path class="cls-5" d="M544.52,80.71a.94.94,0,1,1,1.79-.55.94.94,0,1,1-1.79.55Z" transform="translate(11.71)"/><path class="cls-5" d="M547.63,79.76a.94.94,0,0,1,.6-1.23,1,1,0,1,1-.6,1.23Z" transform="translate(11.71)"/><path class="cls-5" d="M201,267.92c1.28-3.59,1.65-7,1-9.18a3.15,3.15,0,0,0-.93-1.53,1.45,1.45,0,0,0-.33-.24,1.6,1.6,0,0,0-.36-.13,3.06,3.06,0,0,0-1.8.1c-2.16.66-4.79,2.9-7,6a72.43,72.43,0,0,0-5.61,10.15c-.37.76-.76,1.55-1.18,2.39l-6.91.05v0a1.46,1.46,0,0,0,.1-1.12,1.44,1.44,0,0,0-.72-.88l-1.49-.79a1.55,1.55,0,0,0-1.14-.11,1.47,1.47,0,0,0-.87.73l-1.18,2.23h-1a1.49,1.49,0,0,0-.69-1.83l-1.5-.8a1.48,1.48,0,0,0-1.13-.1,1.45,1.45,0,0,0-.87.72l-1.09,2.05-7,.06a1.66,1.66,0,0,0-.48.08,1.75,1.75,0,0,0-1,.84l-1.56,3a1.42,1.42,0,0,0-.11,1.06,1.36,1.36,0,0,0,1,.95L173,284.93a2.57,2.57,0,0,1,.41.15l5,2.66c-2.43,4.92-4.51,9.59-6,13.56l-.4,1.08-10.75,2.28a.74.74,0,0,0-.18,0,2,2,0,0,0-1.13.93L159.2,307a1.33,1.33,0,0,0-.12,1.06,1.36,1.36,0,0,0,1.13.95l8.43,1.22a1.93,1.93,0,0,1,.34.11l.8.43a4.82,4.82,0,0,0,.15,1.5,1.91,1.91,0,0,0,.93,1.2h0a2,2,0,0,0,1.51.1,4.62,4.62,0,0,0,1.31-.73l.81.43a1.51,1.51,0,0,1,.28.22l5.75,6.26a1.34,1.34,0,0,0,1.41.41h0a1.37,1.37,0,0,0,.81-.68l.75-1.41a2.09,2.09,0,0,0,.11-1.46l0-.13-4.19-10.2.67-.94c2.43-3.49,5.12-7.85,7.8-12.61l5,2.67a2.9,2.9,0,0,1,.36.25L205,306.84a1.36,1.36,0,0,0,1.38.35,1.39,1.39,0,0,0,.82-.69l1.57-3a1.79,1.79,0,0,0,.1-1.33,1.3,1.3,0,0,0-.2-.43l-3.91-5.84,1.09-2.05a1.53,1.53,0,0,0,.1-1.13,1.51,1.51,0,0,0-.72-.87l-1.5-.79a1.48,1.48,0,0,0-1.13-.11,1.49,1.49,0,0,0-.78.57l-.54-.82,1.18-2.24a1.48,1.48,0,0,0,.1-1.13,1.42,1.42,0,0,0-.72-.87l-1.49-.79a1.51,1.51,0,0,0-1.14-.11,1.44,1.44,0,0,0-.87.73h0l-3.85-5.74c.47-.82.9-1.61,1.33-2.35A73.69,73.69,0,0,0,201,267.92Z" transform="translate(11.71)"/><path class="cls-5" d="M217.89,273a1.42,1.42,0,0,1,.93-1.86,1.51,1.51,0,1,1-.93,1.86Z" transform="translate(11.71)"/><path class="cls-5" d="M222.63,271.51a1.43,1.43,0,1,1,1.79,1A1.4,1.4,0,0,1,222.63,271.51Z" transform="translate(11.71)"/><path class="cls-5" d="M227.36,270.05a1.43,1.43,0,1,1,1.8,1A1.41,1.41,0,0,1,227.36,270.05Z" transform="translate(11.71)"/><path class="cls-5" d="M232.1,268.59a1.41,1.41,0,0,1,.93-1.86,1.51,1.51,0,1,1-.93,1.86Z" transform="translate(11.71)"/><path class="cls-5" d="M236.84,267.13a1.43,1.43,0,1,1,1.79,1A1.4,1.4,0,0,1,236.84,267.13Z" transform="translate(11.71)"/><path class="cls-5" d="M241.57,265.67a1.43,1.43,0,1,1,1.8,1A1.43,1.43,0,0,1,241.57,265.67Z" transform="translate(11.71)"/><path class="cls-5" d="M246.31,264.21a1.41,1.41,0,0,1,.93-1.86,1.39,1.39,0,0,1,1.79,1,1.43,1.43,0,1,1-2.72.84Z" transform="translate(11.71)"/><path class="cls-5" d="M251.05,262.75a1.43,1.43,0,1,1,1.79,1A1.41,1.41,0,0,1,251.05,262.75Z" transform="translate(11.71)"/><path class="cls-5" d="M255.78,261.29a1.42,1.42,0,0,1,.93-1.87,1.52,1.52,0,0,1,.87,2.9A1.43,1.43,0,0,1,255.78,261.29Z" transform="translate(11.71)"/><path class="cls-5" d="M260.52,259.83a1.42,1.42,0,0,1,.93-1.87,1.51,1.51,0,1,1-.93,1.87Z" transform="translate(11.71)"/><path class="cls-5" d="M265.26,258.37a1.43,1.43,0,1,1,1.79,1A1.41,1.41,0,0,1,265.26,258.37Z" transform="translate(11.71)"/><path class="cls-5" d="M270,256.91a1.42,1.42,0,0,1,.93-1.87,1.51,1.51,0,1,1-.93,1.87Z" transform="translate(11.71)"/><path class="cls-5" d="M274.73,255.45a1.42,1.42,0,0,1,.93-1.87,1.51,1.51,0,1,1-.93,1.87Z" transform="translate(11.71)"/><path class="cls-5" d="M279.47,254a1.42,1.42,0,0,1,.92-1.87,1.51,1.51,0,1,1-.92,1.87Z" transform="translate(11.71)"/><path class="cls-5" d="M227.51,302.21a2.08,2.08,0,1,1,2.62,1.5A2.05,2.05,0,0,1,227.51,302.21Z" transform="translate(11.71)"/><path class="cls-5" d="M234.43,300.08a2.06,2.06,0,0,1,1.35-2.73,2.21,2.21,0,1,1-1.35,2.73Z" transform="translate(11.71)"/><path class="cls-5" d="M241.35,297.94a2.08,2.08,0,1,1,2.62,1.5A2.05,2.05,0,0,1,241.35,297.94Z" transform="translate(11.71)"/><path class="cls-5" d="M248.27,295.81a2.06,2.06,0,0,1,1.35-2.73,2.21,2.21,0,1,1-1.35,2.73Z" transform="translate(11.71)"/><path class="cls-5" d="M255.19,293.67a2.08,2.08,0,1,1,2.62,1.5A2.06,2.06,0,0,1,255.19,293.67Z" transform="translate(11.71)"/><path class="cls-5" d="M262.11,291.54a2.08,2.08,0,1,1,2.62,1.5A2.06,2.06,0,0,1,262.11,291.54Z" transform="translate(11.71)"/><path class="cls-5" d="M269,289.41a2.06,2.06,0,0,1,1.35-2.73,2.21,2.21,0,1,1-1.35,2.73Z" transform="translate(11.71)"/><path class="cls-5" d="M276,287.27a2.08,2.08,0,1,1,2.62,1.5A2.06,2.06,0,0,1,276,287.27Z" transform="translate(11.71)"/><path class="cls-5" d="M282.87,285.14a2.09,2.09,0,1,1,4-1.23,2.09,2.09,0,1,1-4,1.23Z" transform="translate(11.71)"/><path class="cls-5" d="M522.81,178.94a1.43,1.43,0,1,1,1.8,1A1.43,1.43,0,0,1,522.81,178.94Z" transform="translate(11.71)"/><path class="cls-5" d="M527.55,177.48a1.4,1.4,0,0,1,.93-1.86,1.39,1.39,0,0,1,1.79,1,1.43,1.43,0,1,1-2.72.84Z" transform="translate(11.71)"/><path class="cls-5" d="M532.29,176a1.43,1.43,0,1,1,1.79,1A1.42,1.42,0,0,1,532.29,176Z" transform="translate(11.71)"/><path class="cls-5" d="M537,174.56a1.43,1.43,0,1,1,2.73-.84,1.43,1.43,0,1,1-2.73.84Z" transform="translate(11.71)"/><path class="cls-5" d="M541.76,173.1a1.42,1.42,0,0,1,.93-1.87,1.51,1.51,0,1,1-.93,1.87Z" transform="translate(11.71)"/><path class="cls-5" d="M546.5,171.64a1.43,1.43,0,1,1,1.79,1A1.41,1.41,0,0,1,546.5,171.64Z" transform="translate(11.71)"/><path class="cls-5" d="M551.23,170.18a1.42,1.42,0,0,1,.93-1.87,1.51,1.51,0,1,1-.93,1.87Z" transform="translate(11.71)"/><path class="cls-5" d="M556,168.72a1.42,1.42,0,0,1,.93-1.87,1.51,1.51,0,1,1-.93,1.87Z" transform="translate(11.71)"/><path class="cls-5" d="M560.7,167.26a1.42,1.42,0,0,1,.93-1.87,1.51,1.51,0,1,1-.93,1.87Z" transform="translate(11.71)"/><path class="cls-5" d="M565.44,165.79a1.42,1.42,0,0,1,.93-1.86,1.51,1.51,0,1,1-.93,1.86Z" transform="translate(11.71)"/><path class="cls-5" d="M570.18,164.33a1.42,1.42,0,0,1,.93-1.86,1.51,1.51,0,1,1-.93,1.86Z" transform="translate(11.71)"/><path class="cls-5" d="M574.92,162.87a1.43,1.43,0,1,1,1.79,1A1.41,1.41,0,0,1,574.92,162.87Z" transform="translate(11.71)"/><path class="cls-5" d="M579.65,161.41a1.43,1.43,0,1,1,1.8,1A1.41,1.41,0,0,1,579.65,161.41Z" transform="translate(11.71)"/><path class="cls-5" d="M584.39,160a1.41,1.41,0,0,1,.93-1.86,1.51,1.51,0,0,1,.86,2.89A1.41,1.41,0,0,1,584.39,160Z" transform="translate(11.71)"/><path class="cls-5" d="M532.43,208.18a2.08,2.08,0,0,1,1.36-2.73,2.21,2.21,0,1,1-1.36,2.73Z" transform="translate(11.71)"/><path class="cls-5" d="M539.35,206a2.07,2.07,0,0,1,1.36-2.72,2.21,2.21,0,1,1-1.36,2.72Z" transform="translate(11.71)"/><path class="cls-5" d="M546.27,203.91a2.08,2.08,0,0,1,1.36-2.73,2.21,2.21,0,1,1-1.36,2.73Z" transform="translate(11.71)"/><path class="cls-5" d="M553.19,201.77a2.08,2.08,0,1,1,2.62,1.5A2.06,2.06,0,0,1,553.19,201.77Z" transform="translate(11.71)"/><path class="cls-5" d="M560.11,199.64a2.06,2.06,0,0,1,1.36-2.72,2.21,2.21,0,0,1,1.26,4.22A2.06,2.06,0,0,1,560.11,199.64Z" transform="translate(11.71)"/><path class="cls-5" d="M567,197.51a2.08,2.08,0,0,1,1.36-2.73,2.21,2.21,0,1,1-1.36,2.73Z" transform="translate(11.71)"/><path class="cls-5" d="M574,195.37a2.07,2.07,0,0,1,1.35-2.72,2.21,2.21,0,1,1-1.35,2.72Z" transform="translate(11.71)"/><path class="cls-5" d="M580.87,193.24a2.08,2.08,0,0,1,1.36-2.73,2.21,2.21,0,1,1-1.36,2.73Z" transform="translate(11.71)"/><path class="cls-5" d="M587.79,191.1a2.07,2.07,0,0,1,1.36-2.72,2.21,2.21,0,1,1-1.36,2.72Z" transform="translate(11.71)"/><path class="cls-5" d="M517.85,171.14c.94-2.64,1.21-5.16.72-6.75a2.22,2.22,0,0,0-.68-1.13.69.69,0,0,0-.24-.17,1.4,1.4,0,0,0-.26-.1,2.29,2.29,0,0,0-1.33.07c-1.58.49-3.51,2.14-5.16,4.4a54,54,0,0,0-4.12,7.46l-.87,1.75-5.08,0v0a1.09,1.09,0,0,0-.46-1.46l-1.1-.58a1,1,0,0,0-.83-.08,1,1,0,0,0-.64.53l-.87,1.64h-.73a1.06,1.06,0,0,0,0-.7,1.08,1.08,0,0,0-.53-.65l-1.1-.58a1.07,1.07,0,0,0-.84-.08,1.16,1.16,0,0,0-.64.53l-.79,1.51-5.16,0a1,1,0,0,0-.35.06,1.26,1.26,0,0,0-.77.62l-1.15,2.18a1,1,0,0,0,.69,1.47l11.65,2.48.3.11,3.7,2c-1.79,3.61-3.31,7-4.43,10-.1.27-.2.54-.29.8l-7.91,1.67-.13,0a1.49,1.49,0,0,0-.83.69l-.54,1a1,1,0,0,0-.08.78,1,1,0,0,0,.82.7l6.2.9a.87.87,0,0,1,.26.08l.58.31a3.3,3.3,0,0,0,.11,1.1,1.43,1.43,0,0,0,.68.88h0a1.41,1.41,0,0,0,1.11.06,3.34,3.34,0,0,0,1-.53l.6.31.21.16,4.22,4.61a1,1,0,0,0,1,.3h0a1,1,0,0,0,.6-.5l.55-1a1.46,1.46,0,0,0,.08-1.07.46.46,0,0,0,0-.09l-3.08-7.5.49-.69c1.79-2.57,3.76-5.77,5.73-9.27l3.71,2a2.22,2.22,0,0,1,.27.19l8.59,8.21a1,1,0,0,0,1.62-.25l1.16-2.19a1.37,1.37,0,0,0,.07-1,.89.89,0,0,0-.15-.31l-2.87-4.29.8-1.51a1.08,1.08,0,0,0,.07-.83,1.1,1.1,0,0,0-.52-.64l-1.11-.58a1,1,0,0,0-.83-.08,1.12,1.12,0,0,0-.57.41l-.4-.6.87-1.64a1.08,1.08,0,0,0,.07-.83,1,1,0,0,0-.52-.64l-1.1-.58a1.07,1.07,0,0,0-.84-.08,1.09,1.09,0,0,0-.64.53h0l-2.82-4.21c.34-.61.66-1.19,1-1.73A54.28,54.28,0,0,0,517.85,171.14Z" transform="translate(11.71)"/><path class="cls-5" d="M271.88,195.18a2.09,2.09,0,1,1,2.62,1.5A2.06,2.06,0,0,1,271.88,195.18Z" transform="translate(11.71)"/><path class="cls-5" d="M278.8,193.05a2.07,2.07,0,0,1,1.35-2.73,2.21,2.21,0,1,1-1.35,2.73Z" transform="translate(11.71)"/><path class="cls-5" d="M285.72,190.91a2.07,2.07,0,0,1,1.36-2.72,2.21,2.21,0,1,1-1.36,2.72Z" transform="translate(11.71)"/><path class="cls-5" d="M292.64,188.78a2.08,2.08,0,0,1,1.36-2.73,2.21,2.21,0,0,1,1.26,4.23A2.06,2.06,0,0,1,292.64,188.78Z" transform="translate(11.71)"/><path class="cls-5" d="M299.56,186.64a2.07,2.07,0,0,1,1.36-2.72,2.21,2.21,0,1,1-1.36,2.72Z" transform="translate(11.71)"/><path class="cls-5" d="M306.48,184.51a2.07,2.07,0,0,1,1.36-2.72A2.21,2.21,0,0,1,309.1,186,2.06,2.06,0,0,1,306.48,184.51Z" transform="translate(11.71)"/><path class="cls-5" d="M313.4,182.38a2.08,2.08,0,0,1,1.36-2.73,2.21,2.21,0,1,1-1.36,2.73Z" transform="translate(11.71)"/><path class="cls-5" d="M320.32,180.24a2.07,2.07,0,0,1,1.36-2.72,2.21,2.21,0,1,1-1.36,2.72Z" transform="translate(11.71)"/><path class="cls-5" d="M327.24,178.11a2.08,2.08,0,0,1,1.36-2.73,2.21,2.21,0,0,1,1.26,4.23A2.06,2.06,0,0,1,327.24,178.11Z" transform="translate(11.71)"/><path class="cls-5" d="M385.71,160.08a2.07,2.07,0,0,1,1.35-2.73,2.21,2.21,0,1,1-1.35,2.73Z" transform="translate(11.71)"/><path class="cls-5" d="M392.63,158a2.06,2.06,0,0,1,1.35-2.73,2.21,2.21,0,1,1-1.35,2.73Z" transform="translate(11.71)"/><path class="cls-5" d="M399.54,155.81a2.07,2.07,0,0,1,1.36-2.72,2.21,2.21,0,0,1,1.27,4.22A2.08,2.08,0,0,1,399.54,155.81Z" transform="translate(11.71)"/><path class="cls-5" d="M406.47,153.68a2.06,2.06,0,0,1,1.35-2.73,2.21,2.21,0,1,1-1.35,2.73Z" transform="translate(11.71)"/><path class="cls-5" d="M413.39,151.54A2.08,2.08,0,1,1,416,153,2.06,2.06,0,0,1,413.39,151.54Z" transform="translate(11.71)"/><path class="cls-5" d="M420.31,149.41a2.06,2.06,0,0,1,1.35-2.73,2.21,2.21,0,0,1,1.27,4.23A2.06,2.06,0,0,1,420.31,149.41Z" transform="translate(11.71)"/><path class="cls-5" d="M427.23,147.27a2.08,2.08,0,1,1,2.62,1.5A2.06,2.06,0,0,1,427.23,147.27Z" transform="translate(11.71)"/><path class="cls-5" d="M434.15,145.14a2.08,2.08,0,1,1,2.62,1.5A2.05,2.05,0,0,1,434.15,145.14Z" transform="translate(11.71)"/><rect class="cls-5" x="345.49" y="154.26" width="13.35" height="12.21" transform="translate(-19.91 110.9) rotate(-17.14)"/><polygon class="cls-5" points="366.22 149.63 376.95 156.33 371.86 167.91 366.22 149.63"/><path class="cls-6" d="M458.88,264.37l-146,45a5.09,5.09,0,0,1-6.37-3.37l-25.52-82.76a5.09,5.09,0,0,1,3.37-6.37l146.05-45a5.09,5.09,0,0,1,6.37,3.37L462.25,258A5.09,5.09,0,0,1,458.88,264.37Z" transform="translate(11.71)"/><path class="cls-5" d="M321.25,293.49a2.54,2.54,0,0,1-3.18-1.69l-19.52-63.29a2.55,2.55,0,0,1,4.87-1.5l19.52,63.29A2.56,2.56,0,0,1,321.25,293.49Z" transform="translate(11.71)"/><path class="cls-5" d="M331,290.48a2.55,2.55,0,0,1-3.19-1.68l-19.51-63.29a2.54,2.54,0,0,1,4.86-1.5l19.52,63.29A2.54,2.54,0,0,1,331,290.48Z" transform="translate(11.71)"/><path class="cls-5" d="M433.22,259a2.53,2.53,0,0,1-3.18-1.68L410.52,194a2.55,2.55,0,0,1,4.87-1.5l19.52,63.29A2.54,2.54,0,0,1,433.22,259Z" transform="translate(11.71)"/><path class="cls-5" d="M443,256a2.53,2.53,0,0,1-3.18-1.68L420.26,191a2.55,2.55,0,0,1,4.87-1.5l19.51,63.29A2.53,2.53,0,0,1,443,256Z" transform="translate(11.71)"/><path class="cls-5" d="M336.22,272.87a2.55,2.55,0,0,1-3.19-1.68l-15-48.68a2.55,2.55,0,1,1,4.87-1.5l15,48.68A2.54,2.54,0,0,1,336.22,272.87Z" transform="translate(11.71)"/><path class="cls-5" d="M343.52,270.62a2.54,2.54,0,0,1-3.18-1.68l-15-48.68a2.54,2.54,0,1,1,4.86-1.5l15,48.68A2.54,2.54,0,0,1,343.52,270.62Z" transform="translate(11.71)"/><path class="cls-5" d="M353.26,267.62a2.54,2.54,0,0,1-3.18-1.68l-15-48.69a2.55,2.55,0,0,1,4.87-1.5l15,48.69A2.54,2.54,0,0,1,353.26,267.62Z" transform="translate(11.71)"/><path class="cls-5" d="M363,264.62a2.56,2.56,0,0,1-3.19-1.68l-15-48.69a2.55,2.55,0,0,1,4.87-1.5l15,48.68A2.55,2.55,0,0,1,363,264.62Z" transform="translate(11.71)"/><path class="cls-5" d="M382.47,258.61a2.53,2.53,0,0,1-3.18-1.68l-15-48.68a2.55,2.55,0,1,1,4.87-1.51l15,48.69A2.53,2.53,0,0,1,382.47,258.61Z" transform="translate(11.71)"/><path class="cls-5" d="M389.77,256.36a2.54,2.54,0,0,1-3.18-1.68l-15-48.69a2.54,2.54,0,0,1,4.86-1.5l15,48.69A2.54,2.54,0,0,1,389.77,256.36Z" transform="translate(11.71)"/><path class="cls-5" d="M399.51,253.36a2.56,2.56,0,0,1-3.19-1.68l-15-48.69a2.55,2.55,0,0,1,4.87-1.5l15,48.68A2.55,2.55,0,0,1,399.51,253.36Z" transform="translate(11.71)"/><path class="cls-5" d="M409.24,250.36a2.55,2.55,0,0,1-3.18-1.69l-15-48.68a2.54,2.54,0,1,1,4.86-1.5l15,48.68A2.56,2.56,0,0,1,409.24,250.36Z" transform="translate(11.71)"/><path class="cls-5" d="M416.55,248.1a2.53,2.53,0,0,1-3.18-1.68l-15-48.68a2.55,2.55,0,1,1,4.87-1.5l15,48.68A2.53,2.53,0,0,1,416.55,248.1Z" transform="translate(11.71)"/><path class="cls-5" d="M375.17,260.86a2.54,2.54,0,0,1-3.19-1.68L357,210.5a2.55,2.55,0,1,1,4.87-1.5l15,48.68A2.54,2.54,0,0,1,375.17,260.86Z" transform="translate(11.71)"/><path class="cls-7" d="M340.72,287.48a2.55,2.55,0,0,1-3.18-1.68l-1.5-4.87a2.55,2.55,0,1,1,4.87-1.5l1.5,4.87A2.54,2.54,0,0,1,340.72,287.48Z" transform="translate(11.71)"/><path class="cls-7" d="M348,285.23a2.55,2.55,0,0,1-3.18-1.68l-1.5-4.88a2.55,2.55,0,0,1,4.87-1.5l1.5,4.88A2.54,2.54,0,0,1,348,285.23Z" transform="translate(11.71)"/><path class="cls-7" d="M357.76,282.23a2.55,2.55,0,0,1-3.18-1.69l-1.5-4.87a2.55,2.55,0,0,1,4.87-1.5l1.5,4.87A2.56,2.56,0,0,1,357.76,282.23Z" transform="translate(11.71)"/><path class="cls-7" d="M367.5,279.22a2.53,2.53,0,0,1-3.18-1.68l-1.51-4.87a2.55,2.55,0,0,1,4.87-1.5l1.5,4.87A2.53,2.53,0,0,1,367.5,279.22Z" transform="translate(11.71)"/><path class="cls-7" d="M387,273.22a2.55,2.55,0,0,1-3.18-1.68l-1.5-4.88a2.54,2.54,0,1,1,4.86-1.5l1.51,4.87A2.56,2.56,0,0,1,387,273.22Z" transform="translate(11.71)"/><path class="cls-7" d="M394.27,271a2.55,2.55,0,0,1-3.18-1.69l-1.5-4.87a2.55,2.55,0,0,1,4.87-1.5l1.5,4.87A2.56,2.56,0,0,1,394.27,271Z" transform="translate(11.71)"/><path class="cls-7" d="M404,268a2.53,2.53,0,0,1-3.18-1.68l-1.5-4.87a2.55,2.55,0,0,1,4.87-1.5l1.5,4.87A2.54,2.54,0,0,1,404,268Z" transform="translate(11.71)"/><path class="cls-7" d="M413.75,265a2.54,2.54,0,0,1-3.18-1.68l-1.51-4.87a2.55,2.55,0,0,1,4.87-1.5l1.5,4.87A2.54,2.54,0,0,1,413.75,265Z" transform="translate(11.71)"/><path class="cls-7" d="M421.05,262.71a2.55,2.55,0,0,1-3.18-1.68l-1.5-4.87a2.54,2.54,0,1,1,4.86-1.51l1.51,4.88A2.55,2.55,0,0,1,421.05,262.71Z" transform="translate(11.71)"/><path class="cls-7" d="M379.67,275.47a2.55,2.55,0,0,1-3.18-1.68L375,268.92a2.55,2.55,0,0,1,4.87-1.51l1.51,4.88A2.55,2.55,0,0,1,379.67,275.47Z" transform="translate(11.71)"/><path class="cls-8" d="M258.91,198.83a2.14,2.14,0,0,1-1.42,2.69L141.62,237.26a2.15,2.15,0,0,1-2.69-1.43l-7.5-24.29a2.16,2.16,0,0,1,1.43-2.7L248.73,173.1a2.15,2.15,0,0,1,2.69,1.43Z" transform="translate(11.71)"/><path class="cls-8" d="M561.59,122a1.64,1.64,0,0,1-1.09,2.06L472,151.36a1.65,1.65,0,0,1-2.06-1.09l-5.73-18.56a1.65,1.65,0,0,1,1.09-2.06l88.51-27.3a1.65,1.65,0,0,1,2.06,1.09Z" transform="translate(11.71)"/><path class="cls-9" d="M477,142.26a.52.52,0,0,1,.34-.69.51.51,0,0,1,.66.38.52.52,0,0,1-.34.69A.52.52,0,0,1,477,142.26Z" transform="translate(11.71)"/><path class="cls-9" d="M478.73,141.72a.52.52,0,1,1,1-.31.52.52,0,0,1-.34.69A.52.52,0,0,1,478.73,141.72Z" transform="translate(11.71)"/><path class="cls-9" d="M480.47,141.18a.53.53,0,0,1,.35-.69.56.56,0,0,1,.32,1.07A.53.53,0,0,1,480.47,141.18Z" transform="translate(11.71)"/><path class="cls-9" d="M482.22,140.64a.53.53,0,0,1,.35-.69.56.56,0,0,1,.31,1.07A.53.53,0,0,1,482.22,140.64Z" transform="translate(11.71)"/><path class="cls-9" d="M484,140.1a.53.53,0,1,1,.66.38A.52.52,0,0,1,484,140.1Z" transform="translate(11.71)"/><path class="cls-9" d="M485.72,139.56a.52.52,0,0,1,.34-.69.56.56,0,1,1-.34.69Z" transform="translate(11.71)"/><path class="cls-9" d="M487.47,139a.52.52,0,1,1,.66.38A.51.51,0,0,1,487.47,139Z" transform="translate(11.71)"/><path class="cls-9" d="M489.21,138.48a.52.52,0,0,1,.35-.68.51.51,0,0,1,.66.37.53.53,0,1,1-1,.31Z" transform="translate(11.71)"/><path class="cls-9" d="M491,137.94a.51.51,0,0,1,.34-.68.55.55,0,1,1-.34.68Z" transform="translate(11.71)"/><path class="cls-9" d="M492.71,137.41a.52.52,0,0,1,.34-.69.55.55,0,1,1-.34.69Z" transform="translate(11.71)"/><path class="cls-9" d="M494.46,136.87a.52.52,0,1,1,.66.38A.52.52,0,0,1,494.46,136.87Z" transform="translate(11.71)"/><path class="cls-9" d="M496.21,136.33a.52.52,0,1,1,1-.31.52.52,0,0,1-.34.69A.52.52,0,0,1,496.21,136.33Z" transform="translate(11.71)"/><path class="cls-9" d="M498,135.79a.53.53,0,0,1,.35-.69.56.56,0,0,1,.32,1.07A.53.53,0,0,1,498,135.79Z" transform="translate(11.71)"/><path class="cls-9" d="M499.7,135.25a.53.53,0,1,1,.66.38A.52.52,0,0,1,499.7,135.25Z" transform="translate(11.71)"/><path class="cls-9" d="M501.45,134.71a.52.52,0,1,1,.66.38A.52.52,0,0,1,501.45,134.71Z" transform="translate(11.71)"/><path class="cls-9" d="M503.2,134.17a.52.52,0,1,1,1-.31.52.52,0,1,1-1,.31Z" transform="translate(11.71)"/><path class="cls-9" d="M505,133.63a.52.52,0,1,1,.66.38A.51.51,0,0,1,505,133.63Z" transform="translate(11.71)"/><path class="cls-9" d="M506.69,133.09a.52.52,0,0,1,.35-.68.51.51,0,0,1,.66.37.52.52,0,0,1-.34.69A.53.53,0,0,1,506.69,133.09Z" transform="translate(11.71)"/><path class="cls-9" d="M508.44,132.55a.51.51,0,0,1,.34-.68.55.55,0,1,1-.34.68Z" transform="translate(11.71)"/><path class="cls-9" d="M510.19,132a.52.52,0,0,1,.34-.69.55.55,0,1,1-.34.69Z" transform="translate(11.71)"/><path class="cls-9" d="M511.94,131.48a.52.52,0,1,1,.66.37A.51.51,0,0,1,511.94,131.48Z" transform="translate(11.71)"/><path class="cls-9" d="M513.68,130.94a.53.53,0,0,1,.35-.69.51.51,0,0,1,.66.38.52.52,0,0,1-.34.69A.53.53,0,0,1,513.68,130.94Z" transform="translate(11.71)"/><path class="cls-9" d="M515.43,130.4a.53.53,0,0,1,.34-.69.56.56,0,1,1-.34.69Z" transform="translate(11.71)"/><path class="cls-9" d="M517.18,129.86a.52.52,0,0,1,.34-.69.56.56,0,0,1,.32,1.07A.52.52,0,0,1,517.18,129.86Z" transform="translate(11.71)"/><path class="cls-9" d="M518.93,129.32a.52.52,0,1,1,.66.38A.52.52,0,0,1,518.93,129.32Z" transform="translate(11.71)"/><path class="cls-9" d="M520.68,128.78a.52.52,0,1,1,.66.38A.52.52,0,0,1,520.68,128.78Z" transform="translate(11.71)"/><path class="cls-9" d="M522.42,128.24a.53.53,0,0,1,.35-.69.56.56,0,0,1,.32,1.07A.53.53,0,0,1,522.42,128.24Z" transform="translate(11.71)"/><path class="cls-9" d="M524.17,127.7a.52.52,0,0,1,.34-.68.55.55,0,0,1,.32,1.06A.52.52,0,0,1,524.17,127.7Z" transform="translate(11.71)"/><path class="cls-9" d="M525.92,127.16a.51.51,0,0,1,.34-.68.55.55,0,0,1,.32,1.06A.52.52,0,0,1,525.92,127.16Z" transform="translate(11.71)"/><path class="cls-9" d="M527.67,126.63a.52.52,0,1,1,1-.31.52.52,0,1,1-1,.31Z" transform="translate(11.71)"/><path class="cls-9" d="M529.41,126.09a.53.53,0,0,1,.35-.69.51.51,0,0,1,.66.38.52.52,0,0,1-.34.69A.53.53,0,0,1,529.41,126.09Z" transform="translate(11.71)"/><path class="cls-9" d="M531.16,125.55a.53.53,0,0,1,.35-.69.51.51,0,0,1,.66.38.53.53,0,1,1-1,.31Z" transform="translate(11.71)"/><path class="cls-9" d="M532.91,125a.52.52,0,0,1,.34-.69.56.56,0,0,1,.32,1.07A.52.52,0,0,1,532.91,125Z" transform="translate(11.71)"/><path class="cls-9" d="M534.66,124.47a.52.52,0,0,1,.34-.69.56.56,0,0,1,.32,1.07A.52.52,0,0,1,534.66,124.47Z" transform="translate(11.71)"/><path class="cls-9" d="M536.41,123.93a.52.52,0,1,1,1-.31.52.52,0,0,1-.34.69A.52.52,0,0,1,536.41,123.93Z" transform="translate(11.71)"/><path class="cls-9" d="M538.16,123.39a.52.52,0,1,1,.66.38A.52.52,0,0,1,538.16,123.39Z" transform="translate(11.71)"/><path class="cls-9" d="M539.9,122.85a.54.54,0,0,1,.34-.69.56.56,0,0,1,.32,1.07A.52.52,0,0,1,539.9,122.85Z" transform="translate(11.71)"/><path class="cls-9" d="M541.65,122.31a.53.53,0,1,1,1-.31.52.52,0,0,1-.35.69A.52.52,0,0,1,541.65,122.31Z" transform="translate(11.71)"/><path class="cls-9" d="M543.4,121.77a.52.52,0,1,1,.66.38A.51.51,0,0,1,543.4,121.77Z" transform="translate(11.71)"/><path class="cls-9" d="M545.14,121.24a.53.53,0,0,1,.35-.69.51.51,0,0,1,.66.38.5.5,0,0,1-.34.68A.53.53,0,0,1,545.14,121.24Z" transform="translate(11.71)"/><path class="cls-9" d="M546.89,120.7a.53.53,0,0,1,.35-.69.51.51,0,0,1,.66.38.52.52,0,0,1-.34.69A.53.53,0,0,1,546.89,120.7Z" transform="translate(11.71)"/><path class="cls-9" d="M548.64,120.16a.53.53,0,1,1,.66.38A.52.52,0,0,1,548.64,120.16Z" transform="translate(11.71)"/><path class="cls-9" d="M550.39,119.62a.52.52,0,0,1,.34-.69.56.56,0,0,1,.32,1.07A.52.52,0,0,1,550.39,119.62Z" transform="translate(11.71)"/><path class="cls-9" d="M552.14,119.08a.52.52,0,1,1,.66.38A.52.52,0,0,1,552.14,119.08Z" transform="translate(11.71)"/><path class="cls-9" d="M143.81,225.79a.52.52,0,1,1,.66.38A.52.52,0,0,1,143.81,225.79Z" transform="translate(11.71)"/><path class="cls-9" d="M145.56,225.25a.52.52,0,1,1,1-.31.52.52,0,0,1-.34.69A.52.52,0,0,1,145.56,225.25Z" transform="translate(11.71)"/><path class="cls-9" d="M147.3,224.71a.53.53,0,0,1,.35-.69.56.56,0,0,1,.32,1.07A.53.53,0,0,1,147.3,224.71Z" transform="translate(11.71)"/><path class="cls-9" d="M149.05,224.17a.53.53,0,0,1,.34-.69.53.53,0,0,1,.67.38.53.53,0,1,1-1,.31Z" transform="translate(11.71)"/><path class="cls-9" d="M150.8,223.63a.52.52,0,0,1,.34-.69.56.56,0,1,1-.34.69Z" transform="translate(11.71)"/><path class="cls-9" d="M152.55,223.09a.52.52,0,1,1,.66.38A.51.51,0,0,1,152.55,223.09Z" transform="translate(11.71)"/><path class="cls-9" d="M154.3,222.55a.52.52,0,1,1,1-.31.52.52,0,1,1-1,.31Z" transform="translate(11.71)"/><path class="cls-9" d="M156,222a.52.52,0,0,1,.35-.68.55.55,0,0,1,.32,1.06A.53.53,0,0,1,156,222Z" transform="translate(11.71)"/><path class="cls-9" d="M157.79,221.48a.53.53,0,1,1,1-.31.53.53,0,1,1-1,.31Z" transform="translate(11.71)"/><path class="cls-9" d="M159.54,220.94a.51.51,0,0,1,.34-.69.51.51,0,0,1,.66.38.52.52,0,1,1-1,.31Z" transform="translate(11.71)"/><path class="cls-9" d="M161.29,220.4a.52.52,0,1,1,.66.38A.52.52,0,0,1,161.29,220.4Z" transform="translate(11.71)"/><path class="cls-9" d="M163,219.86a.53.53,0,0,1,.35-.69.56.56,0,0,1,.32,1.07A.53.53,0,0,1,163,219.86Z" transform="translate(11.71)"/><path class="cls-9" d="M164.78,219.32a.53.53,0,0,1,.34-.69.56.56,0,1,1-.34.69Z" transform="translate(11.71)"/><path class="cls-9" d="M166.53,218.78a.53.53,0,1,1,.66.38A.52.52,0,0,1,166.53,218.78Z" transform="translate(11.71)"/><path class="cls-9" d="M168.28,218.24a.52.52,0,1,1,.66.38A.52.52,0,0,1,168.28,218.24Z" transform="translate(11.71)"/><path class="cls-9" d="M170,217.7a.52.52,0,1,1,.66.38A.51.51,0,0,1,170,217.7Z" transform="translate(11.71)"/><path class="cls-9" d="M171.77,217.16a.52.52,0,0,1,.35-.68.51.51,0,0,1,.66.37.52.52,0,0,1-.34.69A.53.53,0,0,1,171.77,217.16Z" transform="translate(11.71)"/><path class="cls-9" d="M173.52,216.62a.53.53,0,1,1,1-.3.51.51,0,0,1-.35.68A.52.52,0,0,1,173.52,216.62Z" transform="translate(11.71)"/><path class="cls-9" d="M175.27,216.09a.52.52,0,0,1,.34-.69.55.55,0,1,1-.34.69Z" transform="translate(11.71)"/><path class="cls-9" d="M177,215.55a.51.51,0,0,1,.34-.69.55.55,0,1,1-.34.69Z" transform="translate(11.71)"/><path class="cls-9" d="M178.77,215a.52.52,0,1,1,1-.31.52.52,0,0,1-.34.69A.52.52,0,0,1,178.77,215Z" transform="translate(11.71)"/><path class="cls-9" d="M180.51,214.47a.53.53,0,0,1,.35-.69.56.56,0,0,1,.32,1.07A.53.53,0,0,1,180.51,214.47Z" transform="translate(11.71)"/><path class="cls-9" d="M182.26,213.93a.53.53,0,1,1,.66.38A.52.52,0,0,1,182.26,213.93Z" transform="translate(11.71)"/><path class="cls-9" d="M184,213.39a.52.52,0,0,1,.34-.69.56.56,0,0,1,.32,1.07A.52.52,0,0,1,184,213.39Z" transform="translate(11.71)"/><path class="cls-9" d="M185.76,212.85a.52.52,0,1,1,.66.38A.52.52,0,0,1,185.76,212.85Z" transform="translate(11.71)"/><path class="cls-9" d="M187.5,212.31a.53.53,0,0,1,.35-.69.56.56,0,0,1,.32,1.07A.53.53,0,0,1,187.5,212.31Z" transform="translate(11.71)"/><path class="cls-9" d="M189.25,211.77a.52.52,0,0,1,.35-.68.51.51,0,0,1,.66.37.53.53,0,1,1-1,.31Z" transform="translate(11.71)"/><path class="cls-9" d="M191,211.24a.53.53,0,1,1,.66.37A.52.52,0,0,1,191,211.24Z" transform="translate(11.71)"/><path class="cls-9" d="M192.75,210.7a.52.52,0,0,1,.34-.69.55.55,0,1,1-.34.69Z" transform="translate(11.71)"/><path class="cls-9" d="M194.5,210.16a.52.52,0,1,1,1-.31.52.52,0,1,1-1,.31Z" transform="translate(11.71)"/><path class="cls-9" d="M196.24,209.62a.53.53,0,0,1,.35-.69.51.51,0,0,1,.66.38.52.52,0,0,1-.34.69A.53.53,0,0,1,196.24,209.62Z" transform="translate(11.71)"/><path class="cls-9" d="M198,209.08a.53.53,0,0,1,.34-.69.56.56,0,1,1-.34.69Z" transform="translate(11.71)"/><path class="cls-9" d="M199.74,208.54a.52.52,0,0,1,.34-.69.56.56,0,0,1,.32,1.07A.52.52,0,0,1,199.74,208.54Z" transform="translate(11.71)"/><path class="cls-9" d="M201.49,208a.52.52,0,1,1,.66.38A.52.52,0,0,1,201.49,208Z" transform="translate(11.71)"/><path class="cls-9" d="M203.24,207.46a.52.52,0,1,1,.66.38A.52.52,0,0,1,203.24,207.46Z" transform="translate(11.71)"/><path class="cls-9" d="M205,206.92a.53.53,0,0,1,.35-.69.56.56,0,0,1,.32,1.07A.53.53,0,0,1,205,206.92Z" transform="translate(11.71)"/><path class="cls-9" d="M206.73,206.38a.53.53,0,1,1,1-.31.53.53,0,1,1-1,.31Z" transform="translate(11.71)"/><path class="cls-9" d="M208.48,205.84a.51.51,0,0,1,.34-.68.55.55,0,0,1,.32,1.06A.51.51,0,0,1,208.48,205.84Z" transform="translate(11.71)"/><path class="cls-9" d="M210.23,205.31a.52.52,0,1,1,1-.31.52.52,0,1,1-1,.31Z" transform="translate(11.71)"/><path class="cls-9" d="M212,204.77a.52.52,0,1,1,1-.31.52.52,0,0,1-.34.69A.52.52,0,0,1,212,204.77Z" transform="translate(11.71)"/><path class="cls-9" d="M213.72,204.23a.53.53,0,0,1,.35-.69.56.56,0,0,1,.31,1.07A.53.53,0,0,1,213.72,204.23Z" transform="translate(11.71)"/><path class="cls-9" d="M215.47,203.69a.53.53,0,1,1,.66.38A.52.52,0,0,1,215.47,203.69Z" transform="translate(11.71)"/><path class="cls-9" d="M217.22,203.15a.52.52,0,1,1,.66.38A.52.52,0,0,1,217.22,203.15Z" transform="translate(11.71)"/><path class="cls-9" d="M219,202.61a.52.52,0,1,1,.66.38A.52.52,0,0,1,219,202.61Z" transform="translate(11.71)"/><path class="cls-9" d="M220.71,202.07a.53.53,0,0,1,.35-.69.56.56,0,0,1,.32,1.07A.53.53,0,0,1,220.71,202.07Z" transform="translate(11.71)"/><path class="cls-9" d="M222.46,201.53a.54.54,0,0,1,.34-.69.53.53,0,0,1,.67.38.53.53,0,1,1-1,.31Z" transform="translate(11.71)"/><path class="cls-9" d="M224.21,201a.51.51,0,0,1,.34-.68.5.5,0,0,1,.66.37.51.51,0,0,1-.34.69A.52.52,0,0,1,224.21,201Z" transform="translate(11.71)"/><path class="cls-9" d="M226,200.45a.51.51,0,0,1,.34-.68.5.5,0,0,1,.66.37.52.52,0,1,1-1,.31Z" transform="translate(11.71)"/><path class="cls-9" d="M227.71,199.92a.52.52,0,1,1,.66.37A.51.51,0,0,1,227.71,199.92Z" transform="translate(11.71)"/><path class="cls-9" d="M229.45,199.38a.53.53,0,0,1,.35-.69.55.55,0,0,1,.32,1.06A.52.52,0,0,1,229.45,199.38Z" transform="translate(11.71)"/><path class="cls-9" d="M231.2,198.84a.53.53,0,0,1,.34-.69.56.56,0,1,1-.34.69Z" transform="translate(11.71)"/><path class="cls-9" d="M233,198.3a.52.52,0,0,1,.34-.69.56.56,0,0,1,.32,1.07A.52.52,0,0,1,233,198.3Z" transform="translate(11.71)"/><path class="cls-9" d="M234.7,197.76a.52.52,0,1,1,.66.38A.52.52,0,0,1,234.7,197.76Z" transform="translate(11.71)"/><path class="cls-9" d="M236.45,197.22a.52.52,0,1,1,1-.31.52.52,0,0,1-.34.69A.52.52,0,0,1,236.45,197.22Z" transform="translate(11.71)"/><path class="cls-9" d="M238.19,196.68a.53.53,0,0,1,.35-.69.56.56,0,1,1-.35.69Z" transform="translate(11.71)"/><path class="cls-9" d="M239.94,196.14a.53.53,0,1,1,1-.31.53.53,0,1,1-1,.31Z" transform="translate(11.71)"/><path class="cls-9" d="M241.69,195.6a.52.52,0,0,1,.34-.69.56.56,0,1,1-.34.69Z" transform="translate(11.71)"/><path class="cls-9" d="M243.44,195.06a.52.52,0,1,1,.66.38A.51.51,0,0,1,243.44,195.06Z" transform="translate(11.71)"/><path class="cls-9" d="M245.18,194.53a.53.53,0,0,1,.35-.69.55.55,0,0,1,.32,1.06A.53.53,0,0,1,245.18,194.53Z" transform="translate(11.71)"/><path class="cls-9" d="M246.93,194a.53.53,0,0,1,.34-.69.56.56,0,0,1,.32,1.07A.53.53,0,0,1,246.93,194Z" transform="translate(11.71)"/><rect class="cls-10" x="425.06" y="51.37" width="1.22" height="3.04" transform="translate(15.03 127.83) rotate(-17.14)"/><path class="cls-10" d="M491.11,263l-1.17.36-1.79-5.8,1.17-.36Zm-3.58-11.6-1.16.36L484.58,246l1.16-.35ZM484,239.81l-1.16.36-1.79-5.8,1.16-.36Zm-3.58-11.6-1.16.36-1.79-5.8,1.16-.36Zm-3.57-11.6-1.17.36-1.79-5.8,1.17-.36ZM473.22,205l-1.17.36-1.79-5.8,1.17-.36Zm-3.58-11.6-1.17.36-1.78-5.8,1.16-.36Zm-3.58-11.6-1.16.36-1.79-5.8,1.16-.36Zm-3.58-11.6-1.16.36-1.79-5.81,1.16-.36Zm-3.58-11.61-1.16.36-1.79-5.8,1.17-.36ZM455.33,147l-1.17.36-1.79-5.8,1.17-.36Zm-3.58-11.6-1.17.36-1.79-5.8,1.17-.36Zm-3.58-11.61-1.17.36-1.78-5.8,1.16-.36Zm-3.58-11.6-1.16.36-1.79-5.8,1.16-.36ZM441,100.58l-1.16.36-1.79-5.8,1.16-.36ZM437.43,89l-1.16.36-1.79-5.81,1.17-.36Zm-3.57-11.61-1.17.36-1.79-5.8,1.17-.36Zm-3.58-11.6-1.17.36-1.79-5.8,1.17-.36Z" transform="translate(11.71)"/><rect class="cls-10" x="492.15" y="268.93" width="1.22" height="3.04" transform="translate(-46.31 158.22) rotate(-17.24)"/><rect class="cls-1" x="230.23" y="203.61" width="573.22" height="264.49" rx="23.11"/><g class="cls-11"><rect class="cls-3" x="224.82" y="201.03" width="98.81" height="272.49"/></g><path class="cls-4" d="M337.31,268.38a1.65,1.65,0,0,1,1.68-1.76,1.63,1.63,0,0,1,1.66,1.76,1.67,1.67,0,1,1-3.34,0Z" transform="translate(11.71)"/><path class="cls-4" d="M343.12,268.38a1.67,1.67,0,1,1,1.65,1.77A1.65,1.65,0,0,1,343.12,268.38Z" transform="translate(11.71)"/><path class="cls-4" d="M348.92,268.38a1.65,1.65,0,0,1,1.69-1.76,1.77,1.77,0,0,1,0,3.53A1.66,1.66,0,0,1,348.92,268.38Z" transform="translate(11.71)"/><path class="cls-4" d="M354.73,268.38a1.65,1.65,0,0,1,1.68-1.76,1.63,1.63,0,0,1,1.66,1.76,1.67,1.67,0,1,1-3.34,0Z" transform="translate(11.71)"/><path class="cls-4" d="M360.54,268.38a1.67,1.67,0,1,1,1.65,1.77A1.65,1.65,0,0,1,360.54,268.38Z" transform="translate(11.71)"/><path class="cls-4" d="M366.34,268.38a1.65,1.65,0,0,1,1.69-1.76,1.77,1.77,0,0,1,0,3.53A1.66,1.66,0,0,1,366.34,268.38Z" transform="translate(11.71)"/><path class="cls-4" d="M372.15,268.38a1.67,1.67,0,1,1,1.66,1.77A1.65,1.65,0,0,1,372.15,268.38Z" transform="translate(11.71)"/><path class="cls-4" d="M378,268.38a1.65,1.65,0,0,1,1.68-1.76,1.77,1.77,0,0,1,0,3.53A1.65,1.65,0,0,1,378,268.38Z" transform="translate(11.71)"/><path class="cls-4" d="M383.76,268.38a1.65,1.65,0,0,1,1.69-1.76,1.77,1.77,0,0,1,0,3.53A1.66,1.66,0,0,1,383.76,268.38Z" transform="translate(11.71)"/><path class="cls-4" d="M389.57,268.38a1.65,1.65,0,0,1,1.68-1.76,1.63,1.63,0,0,1,1.66,1.76,1.67,1.67,0,1,1-3.34,0Z" transform="translate(11.71)"/><path class="cls-4" d="M395.38,268.38a1.67,1.67,0,1,1,1.65,1.77A1.65,1.65,0,0,1,395.38,268.38Z" transform="translate(11.71)"/><path class="cls-4" d="M401.18,268.38a1.66,1.66,0,0,1,1.69-1.76,1.77,1.77,0,0,1,0,3.53A1.66,1.66,0,0,1,401.18,268.38Z" transform="translate(11.71)"/><path class="cls-4" d="M407,268.38a1.65,1.65,0,0,1,1.68-1.76,1.63,1.63,0,0,1,1.66,1.76,1.67,1.67,0,1,1-3.34,0Z" transform="translate(11.71)"/><path class="cls-4" d="M412.8,268.38a1.67,1.67,0,1,1,1.65,1.77A1.65,1.65,0,0,1,412.8,268.38Z" transform="translate(11.71)"/><path class="cls-4" d="M418.6,268.38a1.66,1.66,0,0,1,1.69-1.76,1.77,1.77,0,0,1,0,3.53A1.66,1.66,0,0,1,418.6,268.38Z" transform="translate(11.71)"/><path class="cls-4" d="M474,274.22a1.66,1.66,0,0,1,1.69-1.76,1.77,1.77,0,1,1-1.69,1.76Z" transform="translate(11.71)"/><path class="cls-4" d="M479.85,274.22A1.67,1.67,0,1,1,481.5,276,1.66,1.66,0,0,1,479.85,274.22Z" transform="translate(11.71)"/><path class="cls-4" d="M485.66,274.22a1.66,1.66,0,0,1,1.68-1.76,1.77,1.77,0,1,1-1.68,1.76Z" transform="translate(11.71)"/><path class="cls-4" d="M491.46,274.22a1.66,1.66,0,0,1,1.69-1.76,1.77,1.77,0,1,1-1.69,1.76Z" transform="translate(11.71)"/><path class="cls-4" d="M497.27,274.22a1.67,1.67,0,1,1,1.65,1.77A1.66,1.66,0,0,1,497.27,274.22Z" transform="translate(11.71)"/><path class="cls-4" d="M503.08,274.22a1.66,1.66,0,0,1,1.68-1.76,1.77,1.77,0,1,1-1.68,1.76Z" transform="translate(11.71)"/><path class="cls-4" d="M508.88,274.22a1.66,1.66,0,0,1,1.69-1.76,1.77,1.77,0,0,1,0,3.53A1.65,1.65,0,0,1,508.88,274.22Z" transform="translate(11.71)"/><path class="cls-4" d="M514.69,274.22a1.67,1.67,0,1,1,1.65,1.77A1.66,1.66,0,0,1,514.69,274.22Z" transform="translate(11.71)"/><path class="cls-4" d="M520.5,274.22a1.66,1.66,0,0,1,1.68-1.76,1.77,1.77,0,1,1-1.68,1.76Z" transform="translate(11.71)"/><path class="cls-4" d="M526.3,274.22a1.66,1.66,0,0,1,1.68-1.76,1.77,1.77,0,0,1,0,3.53A1.65,1.65,0,0,1,526.3,274.22Z" transform="translate(11.71)"/><path class="cls-4" d="M532.11,274.22a1.67,1.67,0,1,1,1.65,1.77A1.66,1.66,0,0,1,532.11,274.22Z" transform="translate(11.71)"/><path class="cls-4" d="M537.92,274.22a1.66,1.66,0,0,1,1.68-1.76,1.77,1.77,0,1,1-1.68,1.76Z" transform="translate(11.71)"/><path class="cls-4" d="M543.72,274.22a1.66,1.66,0,0,1,1.69-1.76,1.77,1.77,0,0,1,0,3.53A1.65,1.65,0,0,1,543.72,274.22Z" transform="translate(11.71)"/><path class="cls-4" d="M549.53,274.22a1.67,1.67,0,1,1,1.65,1.77A1.66,1.66,0,0,1,549.53,274.22Z" transform="translate(11.71)"/><path class="cls-4" d="M555.34,274.22a1.66,1.66,0,0,1,1.68-1.76,1.77,1.77,0,1,1-1.68,1.76Z" transform="translate(11.71)"/><path class="cls-4" d="M561.14,274.22a1.66,1.66,0,0,1,1.68-1.76,1.77,1.77,0,0,1,0,3.53A1.65,1.65,0,0,1,561.14,274.22Z" transform="translate(11.71)"/><path class="cls-4" d="M567,274.22A1.67,1.67,0,1,1,568.6,276,1.66,1.66,0,0,1,567,274.22Z" transform="translate(11.71)"/><path class="cls-4" d="M572.76,274.22a1.66,1.66,0,0,1,1.68-1.76,1.77,1.77,0,1,1-1.68,1.76Z" transform="translate(11.71)"/><path class="cls-4" d="M578.56,274.22a1.66,1.66,0,0,1,1.69-1.76,1.77,1.77,0,0,1,0,3.53A1.65,1.65,0,0,1,578.56,274.22Z" transform="translate(11.71)"/><path class="cls-4" d="M584.37,274.22a1.66,1.66,0,0,1,1.68-1.76,1.77,1.77,0,1,1-1.68,1.76Z" transform="translate(11.71)"/><path class="cls-4" d="M590.18,274.22a1.67,1.67,0,1,1,1.65,1.77A1.66,1.66,0,0,1,590.18,274.22Z" transform="translate(11.71)"/><path class="cls-4" d="M596,274.22a1.66,1.66,0,0,1,1.69-1.76,1.77,1.77,0,0,1,0,3.53A1.65,1.65,0,0,1,596,274.22Z" transform="translate(11.71)"/><path class="cls-4" d="M601.79,274.22a1.66,1.66,0,0,1,1.68-1.76,1.77,1.77,0,1,1-1.68,1.76Z" transform="translate(11.71)"/><path class="cls-4" d="M607.6,274.22a1.66,1.66,0,0,1,1.68-1.76,1.77,1.77,0,1,1-1.68,1.76Z" transform="translate(11.71)"/><path class="cls-4" d="M613.4,274.22a1.66,1.66,0,0,1,1.69-1.76,1.77,1.77,0,0,1,0,3.53A1.65,1.65,0,0,1,613.4,274.22Z" transform="translate(11.71)"/><path class="cls-4" d="M619.21,274.22a1.66,1.66,0,0,1,1.68-1.76,1.77,1.77,0,1,1-1.68,1.76Z" transform="translate(11.71)"/><path class="cls-4" d="M625,274.22a1.66,1.66,0,0,1,1.68-1.76,1.77,1.77,0,1,1-1.68,1.76Z" transform="translate(11.71)"/><path class="cls-4" d="M630.82,274.22a1.66,1.66,0,0,1,1.69-1.76,1.77,1.77,0,0,1,0,3.53A1.65,1.65,0,0,1,630.82,274.22Z" transform="translate(11.71)"/><path class="cls-4" d="M636.63,274.22a1.67,1.67,0,1,1,1.66,1.77A1.66,1.66,0,0,1,636.63,274.22Z" transform="translate(11.71)"/><path class="cls-4" d="M642.44,274.22a1.66,1.66,0,0,1,1.68-1.76,1.77,1.77,0,1,1-1.68,1.76Z" transform="translate(11.71)"/><path class="cls-4" d="M648.24,274.22a1.66,1.66,0,0,1,1.69-1.76,1.77,1.77,0,0,1,0,3.53A1.65,1.65,0,0,1,648.24,274.22Z" transform="translate(11.71)"/><path class="cls-5" d="M677.72,264.35a.94.94,0,1,1,.92,1A.93.93,0,0,1,677.72,264.35Z" transform="translate(11.71)"/><path class="cls-5" d="M681,264.35a.93.93,0,0,1,.94-1,.91.91,0,0,1,.92,1,.93.93,0,1,1-1.86,0Z" transform="translate(11.71)"/><path class="cls-5" d="M684.22,264.35a.93.93,0,0,1,.94-1,.91.91,0,0,1,.92,1,.93.93,0,1,1-1.86,0Z" transform="translate(11.71)"/><path class="cls-5" d="M687.46,264.35a.94.94,0,0,1,.95-1,.91.91,0,0,1,.92,1,.92.92,0,0,1-.94,1A.93.93,0,0,1,687.46,264.35Z" transform="translate(11.71)"/><path class="cls-5" d="M690.71,264.35a.93.93,0,0,1,.94-1,1,1,0,0,1,0,2A.93.93,0,0,1,690.71,264.35Z" transform="translate(11.71)"/><path class="cls-5" d="M694,264.35a.94.94,0,1,1,.93,1A.93.93,0,0,1,694,264.35Z" transform="translate(11.71)"/><path class="cls-5" d="M697.21,264.35a.94.94,0,1,1,.92,1A.93.93,0,0,1,697.21,264.35Z" transform="translate(11.71)"/><path class="cls-5" d="M700.46,264.35a.94.94,0,1,1,.92,1A.93.93,0,0,1,700.46,264.35Z" transform="translate(11.71)"/><path class="cls-5" d="M703.71,264.35a.93.93,0,0,1,.94-1,.91.91,0,0,1,.92,1,.93.93,0,1,1-1.86,0Z" transform="translate(11.71)"/><path class="cls-5" d="M707,264.35a.93.93,0,0,1,.94-1,.91.91,0,0,1,.92,1,.93.93,0,1,1-1.86,0Z" transform="translate(11.71)"/><path class="cls-5" d="M710.2,264.35a.93.93,0,0,1,.94-1,1,1,0,0,1,0,2A.93.93,0,0,1,710.2,264.35Z" transform="translate(11.71)"/><path class="cls-5" d="M713.45,264.35a.94.94,0,1,1,.93,1A.93.93,0,0,1,713.45,264.35Z" transform="translate(11.71)"/><path class="cls-5" d="M716.7,264.35a.94.94,0,1,1,.92,1A.93.93,0,0,1,716.7,264.35Z" transform="translate(11.71)"/><path class="cls-5" d="M720,264.35a.93.93,0,0,1,.94-1,.91.91,0,0,1,.92,1,.93.93,0,1,1-1.86,0Z" transform="translate(11.71)"/><path class="cls-5" d="M723.2,264.35a.93.93,0,0,1,.94-1,.91.91,0,0,1,.92,1,.93.93,0,1,1-1.86,0Z" transform="translate(11.71)"/><path class="cls-5" d="M726.44,264.35a.94.94,0,0,1,.95-1,.91.91,0,0,1,.92,1,.92.92,0,0,1-.94,1A.93.93,0,0,1,726.44,264.35Z" transform="translate(11.71)"/><path class="cls-5" d="M729.69,264.35a.94.94,0,1,1,.93,1A.93.93,0,0,1,729.69,264.35Z" transform="translate(11.71)"/><path class="cls-5" d="M732.94,264.35a.94.94,0,1,1,.93,1A.93.93,0,0,1,732.94,264.35Z" transform="translate(11.71)"/><path class="cls-5" d="M736.19,264.35a.94.94,0,1,1,.92,1A.93.93,0,0,1,736.19,264.35Z" transform="translate(11.71)"/><path class="cls-5" d="M739.44,264.35a.93.93,0,0,1,.94-1,.91.91,0,0,1,.92,1,.93.93,0,1,1-1.86,0Z" transform="translate(11.71)"/><path class="cls-5" d="M742.69,264.35a.93.93,0,0,1,.94-1,.91.91,0,0,1,.92,1,.93.93,0,1,1-1.86,0Z" transform="translate(11.71)"/><path class="cls-5" d="M745.93,264.35a.94.94,0,0,1,1-1,.91.91,0,0,1,.92,1,.92.92,0,0,1-.94,1A.93.93,0,0,1,745.93,264.35Z" transform="translate(11.71)"/><path class="cls-5" d="M749.18,264.35a.94.94,0,1,1,.93,1A.93.93,0,0,1,749.18,264.35Z" transform="translate(11.71)"/><path class="cls-5" d="M752.43,264.35a.94.94,0,1,1,.93,1A.93.93,0,0,1,752.43,264.35Z" transform="translate(11.71)"/><path class="cls-5" d="M755.68,264.35a.94.94,0,1,1,.93,1A.93.93,0,0,1,755.68,264.35Z" transform="translate(11.71)"/><path class="cls-5" d="M758.93,264.35a.93.93,0,0,1,.94-1,.91.91,0,0,1,.92,1,.93.93,0,1,1-1.86,0Z" transform="translate(11.71)"/><path class="cls-5" d="M762.18,264.35a.93.93,0,0,1,.94-1,.91.91,0,0,1,.92,1,.93.93,0,1,1-1.86,0Z" transform="translate(11.71)"/><path class="cls-5" d="M765.42,264.35a.94.94,0,0,1,1-1,1,1,0,0,1,0,2A.93.93,0,0,1,765.42,264.35Z" transform="translate(11.71)"/><path class="cls-5" d="M768.67,264.35a.94.94,0,1,1,.93,1A.93.93,0,0,1,768.67,264.35Z" transform="translate(11.71)"/><path class="cls-5" d="M771.92,264.35a.94.94,0,1,1,.93,1A.93.93,0,0,1,771.92,264.35Z" transform="translate(11.71)"/><path class="cls-5" d="M677.72,287a.94.94,0,1,1,.92,1A.93.93,0,0,1,677.72,287Z" transform="translate(11.71)"/><path class="cls-5" d="M681,287a.93.93,0,0,1,.94-1,1,1,0,1,1-.94,1Z" transform="translate(11.71)"/><path class="cls-5" d="M684.22,287a.93.93,0,0,1,.94-1,1,1,0,1,1-.94,1Z" transform="translate(11.71)"/><path class="cls-5" d="M687.46,287a.94.94,0,0,1,.95-1,1,1,0,0,1,0,2A.93.93,0,0,1,687.46,287Z" transform="translate(11.71)"/><path class="cls-5" d="M690.71,287a.93.93,0,0,1,.94-1,1,1,0,1,1-.94,1Z" transform="translate(11.71)"/><path class="cls-5" d="M694,287a.94.94,0,1,1,1.87,0,.94.94,0,1,1-1.87,0Z" transform="translate(11.71)"/><path class="cls-5" d="M697.21,287a.94.94,0,1,1,.92,1A.92.92,0,0,1,697.21,287Z" transform="translate(11.71)"/><path class="cls-5" d="M700.46,287a.94.94,0,1,1,.92,1A.92.92,0,0,1,700.46,287Z" transform="translate(11.71)"/><path class="cls-5" d="M703.71,287a.93.93,0,0,1,.94-1,1,1,0,1,1-.94,1Z" transform="translate(11.71)"/><path class="cls-5" d="M707,287a.93.93,0,0,1,.94-1,1,1,0,1,1-.94,1Z" transform="translate(11.71)"/><path class="cls-5" d="M710.2,287a.93.93,0,0,1,.94-1,1,1,0,1,1-.94,1Z" transform="translate(11.71)"/><path class="cls-5" d="M713.45,287a.94.94,0,1,1,1.87,0,.94.94,0,1,1-1.87,0Z" transform="translate(11.71)"/><path class="cls-5" d="M716.7,287a.94.94,0,1,1,.92,1A.93.93,0,0,1,716.7,287Z" transform="translate(11.71)"/><path class="cls-5" d="M720,287a.93.93,0,0,1,.94-1,1,1,0,1,1-.94,1Z" transform="translate(11.71)"/><path class="cls-5" d="M723.2,287a.93.93,0,0,1,.94-1,1,1,0,1,1-.94,1Z" transform="translate(11.71)"/><path class="cls-5" d="M726.44,287a.94.94,0,0,1,.95-1,1,1,0,0,1,0,2A.93.93,0,0,1,726.44,287Z" transform="translate(11.71)"/><path class="cls-5" d="M729.69,287a.94.94,0,1,1,1.87,0,.94.94,0,1,1-1.87,0Z" transform="translate(11.71)"/><path class="cls-5" d="M732.94,287a.94.94,0,1,1,1.87,0,.94.94,0,1,1-1.87,0Z" transform="translate(11.71)"/><path class="cls-5" d="M736.19,287a.94.94,0,1,1,.92,1A.92.92,0,0,1,736.19,287Z" transform="translate(11.71)"/><path class="cls-5" d="M739.44,287a.93.93,0,0,1,.94-1,1,1,0,1,1-.94,1Z" transform="translate(11.71)"/><path class="cls-5" d="M742.69,287a.93.93,0,0,1,.94-1,1,1,0,1,1-.94,1Z" transform="translate(11.71)"/><path class="cls-5" d="M745.93,287a.94.94,0,0,1,1-1,1,1,0,0,1,0,2A.93.93,0,0,1,745.93,287Z" transform="translate(11.71)"/><path class="cls-5" d="M749.18,287a.94.94,0,1,1,1.87,0,.94.94,0,1,1-1.87,0Z" transform="translate(11.71)"/><path class="cls-5" d="M752.43,287a.94.94,0,1,1,1.87,0,.94.94,0,1,1-1.87,0Z" transform="translate(11.71)"/><path class="cls-5" d="M755.68,287a.94.94,0,1,1,1.87,0,.94.94,0,1,1-1.87,0Z" transform="translate(11.71)"/><path class="cls-5" d="M758.93,287a.93.93,0,0,1,.94-1,1,1,0,1,1-.94,1Z" transform="translate(11.71)"/><path class="cls-5" d="M762.18,287a.93.93,0,0,1,.94-1,1,1,0,1,1-.94,1Z" transform="translate(11.71)"/><path class="cls-5" d="M765.42,287a.94.94,0,0,1,1-1,1,1,0,1,1-1,1Z" transform="translate(11.71)"/><path class="cls-5" d="M768.67,287a.94.94,0,1,1,1.87,0,.94.94,0,1,1-1.87,0Z" transform="translate(11.71)"/><path class="cls-5" d="M771.92,287a.94.94,0,1,1,1.87,0,.94.94,0,1,1-1.87,0Z" transform="translate(11.71)"/><path class="cls-5" d="M385.25,364.68c2.28-3.06,3.64-6.23,3.65-8.49a3.2,3.2,0,0,0-.43-1.73,1.39,1.39,0,0,0-.25-.32,1.64,1.64,0,0,0-.3-.24,3.19,3.19,0,0,0-1.76-.44c-2.25,0-5.43,1.37-8.48,3.65a72.83,72.83,0,0,0-8.35,8.05l-1.83,1.93-6.62-2,0,0a1.46,1.46,0,0,0,.42-1,1.41,1.41,0,0,0-.43-1.05l-1.19-1.2a1.48,1.48,0,0,0-2.1,0l-1.79,1.79-.95-.28a1.44,1.44,0,0,0,.32-.9,1.51,1.51,0,0,0-.43-1l-1.2-1.21a1.53,1.53,0,0,0-1.06-.43,1.47,1.47,0,0,0-1,.44l-1.64,1.64-6.73-2a1.85,1.85,0,0,0-.48-.07,1.79,1.79,0,0,0-1.24.51L339,362.57a1.41,1.41,0,0,0-.42,1,1.37,1.37,0,0,0,.73,1.22l14.14,7.9a3.49,3.49,0,0,1,.35.26l4,4c-3.77,4-7.13,7.83-9.75,11.18l-.71.91-10.94-1h-.19a2,2,0,0,0-1.36.56l-1.1,1.1a1.36,1.36,0,0,0-.42,1,1.33,1.33,0,0,0,.79,1.24l7.7,3.66a1.61,1.61,0,0,1,.3.21l.64.64a4.78,4.78,0,0,0-.31,1.48,2,2,0,0,0,.54,1.42l0,0h0a2,2,0,0,0,1.42.54,4.84,4.84,0,0,0,1.47-.31l.65.65a1.49,1.49,0,0,1,.2.29l3.65,7.68a1.35,1.35,0,0,0,1.22.81h0a1.36,1.36,0,0,0,1-.41l1.13-1.13a2.07,2.07,0,0,0,.54-1.36c0-.06,0-.11,0-.14l-1-11,.92-.7c3.35-2.63,7.2-6,11.17-9.76l4,4a2.88,2.88,0,0,1,.26.35L377.58,403a1.36,1.36,0,0,0,1.22.74,1.38,1.38,0,0,0,1-.41l2.38-2.38a1.81,1.81,0,0,0,.49-1.25,1.7,1.7,0,0,0-.06-.46l-2-6.73,1.64-1.64a1.5,1.5,0,0,0,0-2.1l-1.2-1.2a1.49,1.49,0,0,0-2-.12l-.28-.94,1.79-1.79a1.53,1.53,0,0,0,.43-1.05,1.47,1.47,0,0,0-.43-1l-1.2-1.19a1.48,1.48,0,0,0-1.05-.44,1.51,1.51,0,0,0-1.05.43v0l-2-6.62,2-1.86A73.38,73.38,0,0,0,385.25,364.68Z" transform="translate(11.71)"/><path class="cls-5" d="M399.89,374.48a1.42,1.42,0,0,1,1.44-1.51,1.51,1.51,0,1,1-1.44,1.51Z" transform="translate(11.71)"/><path class="cls-5" d="M404.84,374.48a1.42,1.42,0,0,1,1.44-1.51,1.51,1.51,0,0,1,0,3A1.42,1.42,0,0,1,404.84,374.48Z" transform="translate(11.71)"/><path class="cls-5" d="M409.8,374.48a1.42,1.42,0,0,1,1.44-1.51,1.51,1.51,0,0,1,0,3A1.42,1.42,0,0,1,409.8,374.48Z" transform="translate(11.71)"/><path class="cls-5" d="M414.76,374.48A1.42,1.42,0,0,1,416.2,373a1.51,1.51,0,1,1-1.44,1.51Z" transform="translate(11.71)"/><path class="cls-5" d="M419.72,374.48a1.43,1.43,0,1,1,1.41,1.51A1.41,1.41,0,0,1,419.72,374.48Z" transform="translate(11.71)"/><path class="cls-5" d="M424.67,374.48a1.42,1.42,0,0,1,1.44-1.51,1.51,1.51,0,0,1,0,3A1.42,1.42,0,0,1,424.67,374.48Z" transform="translate(11.71)"/><path class="cls-5" d="M429.63,374.48a1.42,1.42,0,0,1,1.44-1.51,1.51,1.51,0,1,1-1.44,1.51Z" transform="translate(11.71)"/><path class="cls-5" d="M434.58,374.48A1.42,1.42,0,0,1,436,373a1.51,1.51,0,0,1,0,3A1.42,1.42,0,0,1,434.58,374.48Z" transform="translate(11.71)"/><path class="cls-5" d="M439.54,374.48A1.42,1.42,0,0,1,441,373a1.51,1.51,0,0,1,0,3A1.42,1.42,0,0,1,439.54,374.48Z" transform="translate(11.71)"/><path class="cls-5" d="M444.5,374.48a1.42,1.42,0,0,1,1.44-1.51,1.51,1.51,0,1,1-1.44,1.51Z" transform="translate(11.71)"/><path class="cls-5" d="M449.46,374.48a1.43,1.43,0,1,1,1.41,1.51A1.41,1.41,0,0,1,449.46,374.48Z" transform="translate(11.71)"/><path class="cls-5" d="M454.41,374.48a1.42,1.42,0,0,1,1.44-1.51,1.51,1.51,0,0,1,0,3A1.42,1.42,0,0,1,454.41,374.48Z" transform="translate(11.71)"/><path class="cls-5" d="M459.37,374.48a1.42,1.42,0,0,1,1.44-1.51,1.51,1.51,0,1,1-1.44,1.51Z" transform="translate(11.71)"/><path class="cls-5" d="M464.33,374.48a1.43,1.43,0,1,1,1.41,1.51A1.41,1.41,0,0,1,464.33,374.48Z" transform="translate(11.71)"/><path class="cls-5" d="M400.46,405.25a2.07,2.07,0,0,1,2.1-2.2,2.2,2.2,0,0,1,0,4.4A2.06,2.06,0,0,1,400.46,405.25Z" transform="translate(11.71)"/><path class="cls-5" d="M407.7,405.25a2.07,2.07,0,0,1,2.1-2.2,2.2,2.2,0,1,1-2.1,2.2Z" transform="translate(11.71)"/><path class="cls-5" d="M415,405.25a2.06,2.06,0,0,1,2.09-2.2,2.2,2.2,0,1,1-2.09,2.2Z" transform="translate(11.71)"/><path class="cls-5" d="M422.19,405.25a2.07,2.07,0,0,1,2.1-2.2,2.2,2.2,0,1,1-2.1,2.2Z" transform="translate(11.71)"/><path class="cls-5" d="M429.43,405.25a2.07,2.07,0,0,1,2.1-2.2,2.2,2.2,0,1,1-2.1,2.2Z" transform="translate(11.71)"/><path class="cls-5" d="M436.67,405.25a2.07,2.07,0,0,1,2.1-2.2,2.2,2.2,0,0,1,0,4.4A2.06,2.06,0,0,1,436.67,405.25Z" transform="translate(11.71)"/><path class="cls-5" d="M443.91,405.25a2.07,2.07,0,0,1,2.1-2.2,2.2,2.2,0,1,1-2.1,2.2Z" transform="translate(11.71)"/><path class="cls-5" d="M451.15,405.25a2.07,2.07,0,0,1,2.1-2.2,2.2,2.2,0,1,1-2.1,2.2Z" transform="translate(11.71)"/><path class="cls-5" d="M458.4,405.25a2.06,2.06,0,0,1,2.09-2.2,2.2,2.2,0,1,1-2.09,2.2Z" transform="translate(11.71)"/><path class="cls-5" d="M719,374.48a1.42,1.42,0,0,1,1.44-1.51,1.51,1.51,0,0,1,0,3A1.42,1.42,0,0,1,719,374.48Z" transform="translate(11.71)"/><path class="cls-5" d="M723.94,374.48a1.43,1.43,0,1,1,1.41,1.51A1.41,1.41,0,0,1,723.94,374.48Z" transform="translate(11.71)"/><path class="cls-5" d="M728.89,374.48a1.42,1.42,0,0,1,1.44-1.51,1.51,1.51,0,0,1,0,3A1.42,1.42,0,0,1,728.89,374.48Z" transform="translate(11.71)"/><path class="cls-5" d="M733.85,374.48a1.42,1.42,0,0,1,1.44-1.51,1.51,1.51,0,0,1,0,3A1.42,1.42,0,0,1,733.85,374.48Z" transform="translate(11.71)"/><path class="cls-5" d="M738.81,374.48a1.43,1.43,0,1,1,1.41,1.51A1.41,1.41,0,0,1,738.81,374.48Z" transform="translate(11.71)"/><path class="cls-5" d="M743.76,374.48A1.42,1.42,0,0,1,745.2,373a1.51,1.51,0,0,1,0,3A1.42,1.42,0,0,1,743.76,374.48Z" transform="translate(11.71)"/><path class="cls-5" d="M748.72,374.48a1.42,1.42,0,0,1,1.44-1.51,1.51,1.51,0,0,1,0,3A1.42,1.42,0,0,1,748.72,374.48Z" transform="translate(11.71)"/><path class="cls-5" d="M753.68,374.48a1.42,1.42,0,0,1,1.44-1.51,1.51,1.51,0,1,1-1.44,1.51Z" transform="translate(11.71)"/><path class="cls-5" d="M758.63,374.48a1.42,1.42,0,0,1,1.44-1.51,1.51,1.51,0,0,1,0,3A1.42,1.42,0,0,1,758.63,374.48Z" transform="translate(11.71)"/><path class="cls-5" d="M763.59,374.48A1.42,1.42,0,0,1,765,373a1.51,1.51,0,0,1,0,3A1.42,1.42,0,0,1,763.59,374.48Z" transform="translate(11.71)"/><path class="cls-5" d="M768.55,374.48A1.42,1.42,0,0,1,770,373a1.51,1.51,0,1,1-1.44,1.51Z" transform="translate(11.71)"/><path class="cls-5" d="M773.51,374.48a1.41,1.41,0,0,1,1.43-1.51,1.51,1.51,0,0,1,0,3A1.41,1.41,0,0,1,773.51,374.48Z" transform="translate(11.71)"/><path class="cls-5" d="M778.46,374.48A1.42,1.42,0,0,1,779.9,373a1.51,1.51,0,0,1,0,3A1.42,1.42,0,0,1,778.46,374.48Z" transform="translate(11.71)"/><path class="cls-5" d="M783.42,374.48a1.42,1.42,0,0,1,1.44-1.51,1.51,1.51,0,1,1-1.44,1.51Z" transform="translate(11.71)"/><path class="cls-5" d="M719.56,405.25a2.06,2.06,0,0,1,2.09-2.2,2.2,2.2,0,1,1-2.09,2.2Z" transform="translate(11.71)"/><path class="cls-5" d="M726.8,405.25a2.07,2.07,0,0,1,2.1-2.2,2.2,2.2,0,1,1-2.1,2.2Z" transform="translate(11.71)"/><path class="cls-5" d="M734,405.25a2.07,2.07,0,0,1,2.1-2.2,2.2,2.2,0,1,1-2.1,2.2Z" transform="translate(11.71)"/><path class="cls-5" d="M741.28,405.25a2.07,2.07,0,0,1,2.1-2.2,2.2,2.2,0,1,1-2.1,2.2Z" transform="translate(11.71)"/><path class="cls-5" d="M748.52,405.25a2.07,2.07,0,0,1,2.1-2.2,2.2,2.2,0,1,1-2.1,2.2Z" transform="translate(11.71)"/><path class="cls-5" d="M755.76,405.25a2.07,2.07,0,0,1,2.1-2.2,2.2,2.2,0,1,1-2.1,2.2Z" transform="translate(11.71)"/><path class="cls-5" d="M763,405.25a2.06,2.06,0,0,1,2.09-2.2,2.2,2.2,0,1,1-2.09,2.2Z" transform="translate(11.71)"/><path class="cls-5" d="M770.25,405.25a2.07,2.07,0,0,1,2.1-2.2,2.2,2.2,0,1,1-2.1,2.2Z" transform="translate(11.71)"/><path class="cls-5" d="M777.49,405.25a2.07,2.07,0,0,1,2.1-2.2,2.2,2.2,0,1,1-2.1,2.2Z" transform="translate(11.71)"/><path class="cls-5" d="M716.54,365.56c1.67-2.25,2.68-4.58,2.68-6.24a2.23,2.23,0,0,0-.32-1.27,1,1,0,0,0-.18-.24,1,1,0,0,0-.22-.17,2.26,2.26,0,0,0-1.29-.32c-1.66,0-4,1-6.23,2.68a53.79,53.79,0,0,0-6.14,5.91l-1.35,1.42-4.86-1.46h0a1.12,1.12,0,0,0,.31-.76,1.1,1.1,0,0,0-.32-.78l-.88-.88a1.1,1.1,0,0,0-.77-.32,1.06,1.06,0,0,0-.77.32l-1.31,1.31-.7-.2a1.09,1.09,0,0,0,.23-.67,1.06,1.06,0,0,0-.32-.77l-.88-.88a1.09,1.09,0,0,0-1.54,0l-1.2,1.2-5-1.48a1.34,1.34,0,0,0-.35-.05,1.29,1.29,0,0,0-.91.37L682.55,364a1,1,0,0,0-.31.72,1,1,0,0,0,.53.89l10.4,5.81a2.07,2.07,0,0,1,.25.19l3,3c-2.77,2.92-5.24,5.75-7.16,8.21l-.52.67-8-.73h-.15a1.49,1.49,0,0,0-1,.41l-.81.81a1,1,0,0,0-.31.72,1,1,0,0,0,.58.91l5.66,2.69a1.07,1.07,0,0,1,.22.15l.47.47a3.19,3.19,0,0,0-.22,1.09,1.43,1.43,0,0,0,.39,1l0,0h0a1.41,1.41,0,0,0,1,.39,3.18,3.18,0,0,0,1.07-.22l.48.47a1.07,1.07,0,0,1,.15.22l2.68,5.64a1,1,0,0,0,.9.59h0a1,1,0,0,0,.71-.3l.83-.83a1.49,1.49,0,0,0,.4-1v-.1l-.74-8.08c.23-.16.45-.33.68-.51,2.46-1.93,5.29-4.4,8.21-7.17l3,3a1.37,1.37,0,0,1,.2.26l5.79,10.37a1,1,0,0,0,.9.54,1,1,0,0,0,.72-.3l1.75-1.75a1.3,1.3,0,0,0,.36-.91.93.93,0,0,0,0-.34L713.1,386l1.21-1.21a1.09,1.09,0,0,0,.31-.77,1.07,1.07,0,0,0-.31-.76l-.89-.89a1.09,1.09,0,0,0-.76-.32,1,1,0,0,0-.67.23l-.21-.69,1.32-1.32a1.09,1.09,0,0,0,.31-.77,1.07,1.07,0,0,0-.31-.76l-.88-.88a1.11,1.11,0,0,0-.78-.33,1.07,1.07,0,0,0-.77.33h0L709.2,373c.51-.48,1-.93,1.44-1.37A53.74,53.74,0,0,0,716.54,365.56Z" transform="translate(11.71)"/><path class="cls-5" d="M474.41,316.05a2.06,2.06,0,0,1,2.09-2.2,2.21,2.21,0,0,1,0,4.41A2.06,2.06,0,0,1,474.41,316.05Z" transform="translate(11.71)"/><path class="cls-5" d="M481.65,316.05a2.07,2.07,0,0,1,2.1-2.2,2.21,2.21,0,0,1,0,4.41A2.06,2.06,0,0,1,481.65,316.05Z" transform="translate(11.71)"/><path class="cls-5" d="M488.89,316.05a2.07,2.07,0,0,1,2.1-2.2,2.21,2.21,0,0,1,0,4.41A2.06,2.06,0,0,1,488.89,316.05Z" transform="translate(11.71)"/><path class="cls-5" d="M496.13,316.05a2.07,2.07,0,0,1,2.1-2.2,2.21,2.21,0,0,1,0,4.41A2.07,2.07,0,0,1,496.13,316.05Z" transform="translate(11.71)"/><path class="cls-5" d="M503.37,316.05a2.07,2.07,0,0,1,2.1-2.2,2.21,2.21,0,0,1,0,4.41A2.07,2.07,0,0,1,503.37,316.05Z" transform="translate(11.71)"/><path class="cls-5" d="M510.62,316.05a2.06,2.06,0,0,1,2.09-2.2,2.21,2.21,0,1,1-2.09,2.2Z" transform="translate(11.71)"/><path class="cls-5" d="M517.86,316.05a2.07,2.07,0,0,1,2.1-2.2,2.21,2.21,0,0,1,0,4.41A2.06,2.06,0,0,1,517.86,316.05Z" transform="translate(11.71)"/><path class="cls-5" d="M525.1,316.05a2.07,2.07,0,0,1,2.1-2.2,2.21,2.21,0,0,1,0,4.41A2.06,2.06,0,0,1,525.1,316.05Z" transform="translate(11.71)"/><path class="cls-5" d="M532.34,316.05a2.07,2.07,0,0,1,2.1-2.2,2.21,2.21,0,0,1,0,4.41A2.06,2.06,0,0,1,532.34,316.05Z" transform="translate(11.71)"/><path class="cls-5" d="M593.52,316.05a2.07,2.07,0,0,1,2.1-2.2,2.21,2.21,0,0,1,0,4.41A2.06,2.06,0,0,1,593.52,316.05Z" transform="translate(11.71)"/><path class="cls-5" d="M600.76,316.05a2.07,2.07,0,0,1,2.1-2.2,2.21,2.21,0,0,1,0,4.41A2.07,2.07,0,0,1,600.76,316.05Z" transform="translate(11.71)"/><path class="cls-5" d="M608,316.05a2.07,2.07,0,0,1,2.1-2.2,2.21,2.21,0,0,1,0,4.41A2.07,2.07,0,0,1,608,316.05Z" transform="translate(11.71)"/><path class="cls-5" d="M615.25,316.05a2.06,2.06,0,0,1,2.09-2.2,2.21,2.21,0,1,1-2.09,2.2Z" transform="translate(11.71)"/><path class="cls-5" d="M622.49,316.05a2.07,2.07,0,0,1,2.1-2.2,2.21,2.21,0,0,1,0,4.41A2.06,2.06,0,0,1,622.49,316.05Z" transform="translate(11.71)"/><path class="cls-5" d="M629.73,316.05a2.07,2.07,0,0,1,2.1-2.2,2.21,2.21,0,0,1,0,4.41A2.06,2.06,0,0,1,629.73,316.05Z" transform="translate(11.71)"/><path class="cls-5" d="M637,316.05a2.07,2.07,0,0,1,2.1-2.2,2.21,2.21,0,0,1,0,4.41A2.07,2.07,0,0,1,637,316.05Z" transform="translate(11.71)"/><path class="cls-5" d="M644.21,316.05a2.07,2.07,0,0,1,2.1-2.2,2.21,2.21,0,0,1,0,4.41A2.07,2.07,0,0,1,644.21,316.05Z" transform="translate(11.71)"/><rect class="cls-5" x="566.42" y="300.33" width="13.35" height="12.21"/><polygon class="cls-5" points="578.5 296.87 586.78 306.44 578.5 316 578.5 296.87"/><path class="cls-6" d="M632.71,437.28H479.88a5.1,5.1,0,0,1-5.1-5.1V345.57a5.09,5.09,0,0,1,5.1-5.09H632.71a5.09,5.09,0,0,1,5.1,5.09v86.61A5.1,5.1,0,0,1,632.71,437.28Z" transform="translate(11.71)"/><path class="cls-5" d="M492.62,424.54a2.55,2.55,0,0,1-2.55-2.55V355.76a2.55,2.55,0,0,1,5.09,0V422A2.55,2.55,0,0,1,492.62,424.54Z" transform="translate(11.71)"/><path class="cls-5" d="M502.81,424.54a2.55,2.55,0,0,1-2.55-2.55V355.76a2.55,2.55,0,0,1,5.09,0V422A2.55,2.55,0,0,1,502.81,424.54Z" transform="translate(11.71)"/><path class="cls-5" d="M609.79,424.54a2.55,2.55,0,0,1-2.55-2.55V355.76a2.55,2.55,0,0,1,5.1,0V422A2.55,2.55,0,0,1,609.79,424.54Z" transform="translate(11.71)"/><path class="cls-5" d="M620,424.54a2.55,2.55,0,0,1-2.55-2.55V355.76a2.55,2.55,0,0,1,5.1,0V422A2.55,2.55,0,0,1,620,424.54Z" transform="translate(11.71)"/><path class="cls-5" d="M513,409.26a2.55,2.55,0,0,1-2.55-2.55V355.76a2.55,2.55,0,0,1,5.1,0v50.95A2.55,2.55,0,0,1,513,409.26Z" transform="translate(11.71)"/><path class="cls-5" d="M520.63,409.26a2.55,2.55,0,0,1-2.54-2.55V355.76a2.55,2.55,0,0,1,5.09,0v50.95A2.55,2.55,0,0,1,520.63,409.26Z" transform="translate(11.71)"/><path class="cls-5" d="M530.83,409.26a2.55,2.55,0,0,1-2.55-2.55V355.76a2.55,2.55,0,0,1,5.09,0v50.95A2.55,2.55,0,0,1,530.83,409.26Z" transform="translate(11.71)"/><path class="cls-5" d="M541,409.26a2.55,2.55,0,0,1-2.54-2.55V355.76a2.55,2.55,0,0,1,5.09,0v50.95A2.55,2.55,0,0,1,541,409.26Z" transform="translate(11.71)"/><path class="cls-5" d="M561.39,409.26a2.54,2.54,0,0,1-2.54-2.55V355.76a2.55,2.55,0,0,1,5.09,0v50.95A2.55,2.55,0,0,1,561.39,409.26Z" transform="translate(11.71)"/><path class="cls-5" d="M569,409.26a2.54,2.54,0,0,1-2.54-2.55V355.76a2.55,2.55,0,0,1,5.09,0v50.95A2.55,2.55,0,0,1,569,409.26Z" transform="translate(11.71)"/><path class="cls-5" d="M579.22,409.26a2.55,2.55,0,0,1-2.54-2.55V355.76a2.55,2.55,0,0,1,5.09,0v50.95A2.55,2.55,0,0,1,579.22,409.26Z" transform="translate(11.71)"/><path class="cls-5" d="M589.41,409.26a2.54,2.54,0,0,1-2.54-2.55V355.76a2.55,2.55,0,0,1,5.09,0v50.95A2.55,2.55,0,0,1,589.41,409.26Z" transform="translate(11.71)"/><path class="cls-5" d="M597.05,409.26a2.55,2.55,0,0,1-2.54-2.55V355.76a2.55,2.55,0,0,1,5.09,0v50.95A2.55,2.55,0,0,1,597.05,409.26Z" transform="translate(11.71)"/><path class="cls-5" d="M553.75,409.26a2.55,2.55,0,0,1-2.55-2.55V355.76a2.55,2.55,0,0,1,5.1,0v50.95A2.55,2.55,0,0,1,553.75,409.26Z" transform="translate(11.71)"/><path class="cls-10" d="M513,424.54a2.55,2.55,0,0,1-2.55-2.55V416.9a2.55,2.55,0,0,1,5.1,0V422A2.55,2.55,0,0,1,513,424.54Z" transform="translate(11.71)"/><path class="cls-10" d="M520.63,424.54a2.55,2.55,0,0,1-2.54-2.55V416.9a2.55,2.55,0,1,1,5.09,0V422A2.55,2.55,0,0,1,520.63,424.54Z" transform="translate(11.71)"/><path class="cls-10" d="M530.83,424.54a2.55,2.55,0,0,1-2.55-2.55V416.9a2.55,2.55,0,1,1,5.09,0V422A2.55,2.55,0,0,1,530.83,424.54Z" transform="translate(11.71)"/><path class="cls-10" d="M541,424.54a2.55,2.55,0,0,1-2.54-2.55V416.9a2.55,2.55,0,1,1,5.09,0V422A2.55,2.55,0,0,1,541,424.54Z" transform="translate(11.71)"/><path class="cls-10" d="M561.39,424.54a2.54,2.54,0,0,1-2.54-2.55V416.9a2.55,2.55,0,1,1,5.09,0V422A2.55,2.55,0,0,1,561.39,424.54Z" transform="translate(11.71)"/><path class="cls-10" d="M569,424.54a2.54,2.54,0,0,1-2.54-2.55V416.9a2.55,2.55,0,1,1,5.09,0V422A2.55,2.55,0,0,1,569,424.54Z" transform="translate(11.71)"/><path class="cls-10" d="M579.22,424.54a2.55,2.55,0,0,1-2.54-2.55V416.9a2.55,2.55,0,1,1,5.09,0V422A2.55,2.55,0,0,1,579.22,424.54Z" transform="translate(11.71)"/><path class="cls-10" d="M589.41,424.54a2.54,2.54,0,0,1-2.54-2.55V416.9a2.55,2.55,0,1,1,5.09,0V422A2.55,2.55,0,0,1,589.41,424.54Z" transform="translate(11.71)"/><path class="cls-10" d="M597.05,424.54a2.55,2.55,0,0,1-2.54-2.55V416.9a2.55,2.55,0,1,1,5.09,0V422A2.55,2.55,0,0,1,597.05,424.54Z" transform="translate(11.71)"/><path class="cls-10" d="M553.75,424.54A2.55,2.55,0,0,1,551.2,422V416.9a2.55,2.55,0,0,1,5.1,0V422A2.55,2.55,0,0,1,553.75,424.54Z" transform="translate(11.71)"/><path class="cls-8" d="M460.94,315.72a2.15,2.15,0,0,1-2.15,2.15H337.53a2.15,2.15,0,0,1-2.15-2.15V290.29a2.16,2.16,0,0,1,2.15-2.16H458.79a2.16,2.16,0,0,1,2.15,2.16Z" transform="translate(11.71)"/><rect class="cls-8" x="688.61" y="310.43" width="95.92" height="22.72" rx="1.65"/><path class="cls-9" d="M686,325.92a.52.52,0,0,1,.53-.56.52.52,0,0,1,.52.56.53.53,0,1,1-1,0Z" transform="translate(11.71)"/><path class="cls-9" d="M687.82,325.92a.52.52,0,0,1,.53-.56.52.52,0,0,1,.52.56.53.53,0,1,1-1,0Z" transform="translate(11.71)"/><path class="cls-9" d="M689.65,325.92a.52.52,0,0,1,.53-.56.52.52,0,0,1,.52.56.53.53,0,1,1-1.05,0Z" transform="translate(11.71)"/><path class="cls-9" d="M691.48,325.92a.52.52,0,0,1,.53-.56.52.52,0,0,1,.52.56.53.53,0,1,1-1,0Z" transform="translate(11.71)"/><path class="cls-9" d="M693.31,325.92a.52.52,0,0,1,.53-.56.52.52,0,0,1,.52.56.53.53,0,1,1-1.05,0Z" transform="translate(11.71)"/><path class="cls-9" d="M695.14,325.92a.52.52,0,0,1,.53-.56.52.52,0,0,1,.52.56.53.53,0,1,1-1.05,0Z" transform="translate(11.71)"/><path class="cls-9" d="M697,325.92a.52.52,0,0,1,.53-.56.52.52,0,0,1,.52.56.53.53,0,1,1-1,0Z" transform="translate(11.71)"/><path class="cls-9" d="M698.8,325.92a.52.52,0,0,1,.53-.56.52.52,0,0,1,.52.56.53.53,0,1,1-1.05,0Z" transform="translate(11.71)"/><path class="cls-9" d="M700.62,325.92a.53.53,0,0,1,.54-.56.56.56,0,1,1-.54.56Z" transform="translate(11.71)"/><path class="cls-9" d="M702.46,325.92a.53.53,0,1,1,1,0,.53.53,0,1,1-1,0Z" transform="translate(11.71)"/><path class="cls-9" d="M704.28,325.92a.52.52,0,0,1,.53-.56.52.52,0,0,1,.52.56.51.51,0,0,1-.52.55A.52.52,0,0,1,704.28,325.92Z" transform="translate(11.71)"/><path class="cls-9" d="M706.11,325.92a.52.52,0,0,1,.53-.56.52.52,0,0,1,.52.56.51.51,0,0,1-.53.55A.52.52,0,0,1,706.11,325.92Z" transform="translate(11.71)"/><path class="cls-9" d="M707.94,325.92a.52.52,0,0,1,.53-.56.52.52,0,0,1,.52.56.53.53,0,1,1-1,0Z" transform="translate(11.71)"/><path class="cls-9" d="M709.77,325.92a.52.52,0,0,1,.53-.56.52.52,0,0,1,.52.56.53.53,0,1,1-1.05,0Z" transform="translate(11.71)"/><path class="cls-9" d="M711.6,325.92a.52.52,0,0,1,.53-.56.52.52,0,0,1,.52.56.53.53,0,1,1-1,0Z" transform="translate(11.71)"/><path class="cls-9" d="M713.43,325.92a.52.52,0,0,1,.53-.56.52.52,0,0,1,.52.56.53.53,0,1,1-1.05,0Z" transform="translate(11.71)"/><path class="cls-9" d="M715.26,325.92a.52.52,0,0,1,.53-.56.52.52,0,0,1,.52.56.53.53,0,1,1-1,0Z" transform="translate(11.71)"/><path class="cls-9" d="M717.09,325.92a.52.52,0,0,1,.53-.56.52.52,0,0,1,.52.56.53.53,0,1,1-1,0Z" transform="translate(11.71)"/><path class="cls-9" d="M718.92,325.92a.52.52,0,0,1,.53-.56.52.52,0,0,1,.52.56.53.53,0,1,1-1.05,0Z" transform="translate(11.71)"/><path class="cls-9" d="M720.75,325.92a.52.52,0,0,1,.53-.56.56.56,0,1,1-.53.56Z" transform="translate(11.71)"/><path class="cls-9" d="M722.58,325.92a.53.53,0,1,1,1,0,.53.53,0,1,1-1,0Z" transform="translate(11.71)"/><path class="cls-9" d="M724.41,325.92a.53.53,0,1,1,1.05,0,.53.53,0,1,1-1.05,0Z" transform="translate(11.71)"/><path class="cls-9" d="M726.23,325.92a.52.52,0,0,1,.53-.56.52.52,0,0,1,.52.56.51.51,0,0,1-.53.55A.52.52,0,0,1,726.23,325.92Z" transform="translate(11.71)"/><path class="cls-9" d="M728.06,325.92a.52.52,0,0,1,.53-.56.52.52,0,0,1,.52.56.53.53,0,1,1-1.05,0Z" transform="translate(11.71)"/><path class="cls-9" d="M729.89,325.92a.52.52,0,0,1,.53-.56.52.52,0,0,1,.52.56.53.53,0,1,1-1.05,0Z" transform="translate(11.71)"/><path class="cls-9" d="M731.72,325.92a.52.52,0,0,1,.53-.56.52.52,0,0,1,.52.56.53.53,0,1,1-1,0Z" transform="translate(11.71)"/><path class="cls-9" d="M733.55,325.92a.52.52,0,0,1,.53-.56.52.52,0,0,1,.52.56.53.53,0,1,1-1.05,0Z" transform="translate(11.71)"/><path class="cls-9" d="M735.38,325.92a.52.52,0,0,1,.53-.56.52.52,0,0,1,.52.56.53.53,0,1,1-1,0Z" transform="translate(11.71)"/><path class="cls-9" d="M737.21,325.92a.52.52,0,0,1,.53-.56.52.52,0,0,1,.52.56.53.53,0,1,1-1,0Z" transform="translate(11.71)"/><path class="cls-9" d="M739,325.92a.52.52,0,0,1,.53-.56.56.56,0,1,1-.53.56Z" transform="translate(11.71)"/><path class="cls-9" d="M740.87,325.92a.52.52,0,0,1,.53-.56.56.56,0,1,1-.53.56Z" transform="translate(11.71)"/><path class="cls-9" d="M742.7,325.92a.53.53,0,1,1,.52.55A.52.52,0,0,1,742.7,325.92Z" transform="translate(11.71)"/><path class="cls-9" d="M744.52,325.92a.52.52,0,0,1,.53-.56.52.52,0,0,1,.52.56.51.51,0,0,1-.53.55A.52.52,0,0,1,744.52,325.92Z" transform="translate(11.71)"/><path class="cls-9" d="M746.35,325.92a.52.52,0,0,1,.53-.56.52.52,0,0,1,.52.56.53.53,0,1,1-1,0Z" transform="translate(11.71)"/><path class="cls-9" d="M748.18,325.92a.52.52,0,0,1,.53-.56.52.52,0,0,1,.52.56.53.53,0,1,1-1.05,0Z" transform="translate(11.71)"/><path class="cls-9" d="M750,325.92a.52.52,0,0,1,.53-.56.52.52,0,0,1,.52.56.53.53,0,1,1-1,0Z" transform="translate(11.71)"/><path class="cls-9" d="M751.84,325.92a.52.52,0,0,1,.53-.56.52.52,0,0,1,.52.56.53.53,0,1,1-1,0Z" transform="translate(11.71)"/><path class="cls-9" d="M753.67,325.92a.52.52,0,0,1,.53-.56.52.52,0,0,1,.52.56.53.53,0,1,1-1.05,0Z" transform="translate(11.71)"/><path class="cls-9" d="M755.5,325.92a.52.52,0,0,1,.53-.56.52.52,0,0,1,.52.56.53.53,0,1,1-1,0Z" transform="translate(11.71)"/><path class="cls-9" d="M757.33,325.92a.52.52,0,0,1,.53-.56.52.52,0,0,1,.52.56.53.53,0,1,1-1,0Z" transform="translate(11.71)"/><path class="cls-9" d="M759.16,325.92a.52.52,0,0,1,.53-.56.56.56,0,1,1-.53.56Z" transform="translate(11.71)"/><path class="cls-9" d="M761,325.92a.52.52,0,0,1,.53-.56.56.56,0,1,1-.53.56Z" transform="translate(11.71)"/><path class="cls-9" d="M762.81,325.92a.53.53,0,0,1,.53-.56.52.52,0,0,1,.53.56.53.53,0,1,1-1.06,0Z" transform="translate(11.71)"/><path class="cls-9" d="M764.64,325.92a.53.53,0,1,1,1.06,0,.53.53,0,1,1-1.06,0Z" transform="translate(11.71)"/><path class="cls-9" d="M343,307.56a.52.52,0,0,1,.53-.56.52.52,0,0,1,.52.56.53.53,0,1,1-1.05,0Z" transform="translate(11.71)"/><path class="cls-9" d="M344.83,307.56a.52.52,0,0,1,.53-.56.52.52,0,0,1,.52.56.53.53,0,1,1-1.05,0Z" transform="translate(11.71)"/><path class="cls-9" d="M346.66,307.56a.52.52,0,0,1,.53-.56.52.52,0,0,1,.52.56.53.53,0,1,1-1,0Z" transform="translate(11.71)"/><path class="cls-9" d="M348.49,307.56A.52.52,0,0,1,349,307a.52.52,0,0,1,.52.56.53.53,0,1,1-1.05,0Z" transform="translate(11.71)"/><path class="cls-9" d="M350.32,307.56a.52.52,0,0,1,.53-.56.52.52,0,0,1,.52.56.53.53,0,1,1-1.05,0Z" transform="translate(11.71)"/><path class="cls-9" d="M352.15,307.56a.52.52,0,0,1,.53-.56.52.52,0,0,1,.52.56.53.53,0,1,1-1.05,0Z" transform="translate(11.71)"/><path class="cls-9" d="M354,307.56a.52.52,0,0,1,.53-.56.56.56,0,1,1-.53.56Z" transform="translate(11.71)"/><path class="cls-9" d="M355.81,307.56a.53.53,0,1,1,1.05,0,.53.53,0,1,1-1.05,0Z" transform="translate(11.71)"/><path class="cls-9" d="M357.63,307.56a.53.53,0,1,1,1.06,0,.51.51,0,0,1-.53.55A.52.52,0,0,1,357.63,307.56Z" transform="translate(11.71)"/><path class="cls-9" d="M359.46,307.56A.52.52,0,0,1,360,307a.52.52,0,0,1,.52.56.51.51,0,0,1-.53.55A.52.52,0,0,1,359.46,307.56Z" transform="translate(11.71)"/><path class="cls-9" d="M361.29,307.56a.52.52,0,0,1,.53-.56.52.52,0,0,1,.52.56.53.53,0,1,1-1,0Z" transform="translate(11.71)"/><path class="cls-9" d="M363.12,307.56a.52.52,0,0,1,.53-.56.52.52,0,0,1,.52.56.53.53,0,1,1-1.05,0Z" transform="translate(11.71)"/><path class="cls-9" d="M365,307.56a.52.52,0,0,1,.53-.56.52.52,0,0,1,.52.56.53.53,0,1,1-1.05,0Z" transform="translate(11.71)"/><path class="cls-9" d="M366.78,307.56a.52.52,0,0,1,.53-.56.52.52,0,0,1,.52.56.53.53,0,1,1-1.05,0Z" transform="translate(11.71)"/><path class="cls-9" d="M368.61,307.56a.52.52,0,0,1,.53-.56.52.52,0,0,1,.52.56.53.53,0,1,1-1.05,0Z" transform="translate(11.71)"/><path class="cls-9" d="M370.44,307.56A.52.52,0,0,1,371,307a.52.52,0,0,1,.52.56.53.53,0,1,1-1.05,0Z" transform="translate(11.71)"/><path class="cls-9" d="M372.27,307.56a.52.52,0,0,1,.53-.56.52.52,0,0,1,.52.56.53.53,0,1,1-1.05,0Z" transform="translate(11.71)"/><path class="cls-9" d="M374.1,307.56a.52.52,0,0,1,.53-.56.56.56,0,1,1-.53.56Z" transform="translate(11.71)"/><path class="cls-9" d="M375.93,307.56a.53.53,0,1,1,1.05,0,.53.53,0,1,1-1.05,0Z" transform="translate(11.71)"/><path class="cls-9" d="M377.75,307.56a.53.53,0,0,1,.54-.56.52.52,0,0,1,.52.56.51.51,0,0,1-.53.55A.52.52,0,0,1,377.75,307.56Z" transform="translate(11.71)"/><path class="cls-9" d="M379.58,307.56a.53.53,0,1,1,1.06,0,.53.53,0,1,1-1.06,0Z" transform="translate(11.71)"/><path class="cls-9" d="M381.41,307.56a.52.52,0,0,1,.53-.56.52.52,0,0,1,.52.56.53.53,0,1,1-1,0Z" transform="translate(11.71)"/><path class="cls-9" d="M383.24,307.56a.52.52,0,0,1,.53-.56.52.52,0,0,1,.52.56.53.53,0,1,1-1.05,0Z" transform="translate(11.71)"/><path class="cls-9" d="M385.07,307.56a.52.52,0,0,1,.53-.56.52.52,0,0,1,.52.56.53.53,0,1,1-1.05,0Z" transform="translate(11.71)"/><path class="cls-9" d="M386.9,307.56a.52.52,0,0,1,.53-.56.52.52,0,0,1,.52.56.53.53,0,1,1-1.05,0Z" transform="translate(11.71)"/><path class="cls-9" d="M388.73,307.56a.52.52,0,0,1,.53-.56.52.52,0,0,1,.52.56.53.53,0,1,1-1,0Z" transform="translate(11.71)"/><path class="cls-9" d="M390.56,307.56a.52.52,0,0,1,.53-.56.52.52,0,0,1,.52.56.53.53,0,1,1-1.05,0Z" transform="translate(11.71)"/><path class="cls-9" d="M392.39,307.56a.52.52,0,0,1,.53-.56.52.52,0,0,1,.52.56.53.53,0,1,1-1.05,0Z" transform="translate(11.71)"/><path class="cls-9" d="M394.22,307.56a.52.52,0,0,1,.53-.56.56.56,0,1,1-.53.56Z" transform="translate(11.71)"/><path class="cls-9" d="M396.05,307.56a.53.53,0,1,1,1.05,0,.53.53,0,1,1-1.05,0Z" transform="translate(11.71)"/><path class="cls-9" d="M397.87,307.56a.53.53,0,1,1,1.06,0,.51.51,0,0,1-.53.55A.52.52,0,0,1,397.87,307.56Z" transform="translate(11.71)"/><path class="cls-9" d="M399.7,307.56a.52.52,0,0,1,.53-.56.52.52,0,0,1,.52.56.51.51,0,0,1-.52.55A.51.51,0,0,1,399.7,307.56Z" transform="translate(11.71)"/><path class="cls-9" d="M401.53,307.56a.52.52,0,0,1,.53-.56.52.52,0,0,1,.52.56.53.53,0,1,1-1.05,0Z" transform="translate(11.71)"/><path class="cls-9" d="M403.36,307.56a.52.52,0,0,1,.53-.56.52.52,0,0,1,.52.56.53.53,0,1,1-1.05,0Z" transform="translate(11.71)"/><path class="cls-9" d="M405.19,307.56a.52.52,0,0,1,.53-.56.52.52,0,0,1,.52.56.53.53,0,1,1-1.05,0Z" transform="translate(11.71)"/><path class="cls-9" d="M407,307.56a.52.52,0,0,1,.53-.56.52.52,0,0,1,.52.56.53.53,0,1,1-1.05,0Z" transform="translate(11.71)"/><path class="cls-9" d="M408.85,307.56a.52.52,0,0,1,.53-.56.52.52,0,0,1,.52.56.53.53,0,1,1-1,0Z" transform="translate(11.71)"/><path class="cls-9" d="M410.68,307.56a.52.52,0,0,1,.53-.56.52.52,0,0,1,.52.56.53.53,0,1,1-1.05,0Z" transform="translate(11.71)"/><path class="cls-9" d="M412.51,307.56A.52.52,0,0,1,413,307a.52.52,0,0,1,.52.56.53.53,0,1,1-1.05,0Z" transform="translate(11.71)"/><path class="cls-9" d="M414.34,307.56a.53.53,0,1,1,1.05,0,.53.53,0,1,1-1.05,0Z" transform="translate(11.71)"/><path class="cls-9" d="M416.16,307.56a.53.53,0,1,1,1.06,0,.51.51,0,0,1-.53.55A.52.52,0,0,1,416.16,307.56Z" transform="translate(11.71)"/><path class="cls-9" d="M418,307.56a.53.53,0,0,1,.54-.56.51.51,0,0,1,.51.56.51.51,0,0,1-.52.55A.52.52,0,0,1,418,307.56Z" transform="translate(11.71)"/><path class="cls-9" d="M419.82,307.56a.52.52,0,0,1,.53-.56.52.52,0,0,1,.52.56.53.53,0,1,1-1.05,0Z" transform="translate(11.71)"/><path class="cls-9" d="M421.65,307.56a.52.52,0,0,1,.53-.56.52.52,0,0,1,.52.56.53.53,0,1,1-1.05,0Z" transform="translate(11.71)"/><path class="cls-9" d="M423.48,307.56A.52.52,0,0,1,424,307a.52.52,0,0,1,.52.56.53.53,0,1,1-1,0Z" transform="translate(11.71)"/><path class="cls-9" d="M425.31,307.56a.52.52,0,0,1,.53-.56.52.52,0,0,1,.52.56.53.53,0,1,1-1.05,0Z" transform="translate(11.71)"/><path class="cls-9" d="M427.14,307.56a.52.52,0,0,1,.53-.56.52.52,0,0,1,.52.56.53.53,0,1,1-1.05,0Z" transform="translate(11.71)"/><path class="cls-9" d="M429,307.56a.52.52,0,0,1,.53-.56.52.52,0,0,1,.52.56.53.53,0,1,1-1,0Z" transform="translate(11.71)"/><path class="cls-9" d="M430.8,307.56a.52.52,0,0,1,.53-.56.52.52,0,0,1,.52.56.53.53,0,1,1-1.05,0Z" transform="translate(11.71)"/><path class="cls-9" d="M432.63,307.56a.52.52,0,0,1,.53-.56.52.52,0,0,1,.52.56.53.53,0,1,1-1.05,0Z" transform="translate(11.71)"/><path class="cls-9" d="M434.46,307.56A.52.52,0,0,1,435,307a.56.56,0,1,1-.53.56Z" transform="translate(11.71)"/><path class="cls-9" d="M436.29,307.56a.53.53,0,1,1,1,0,.53.53,0,1,1-1,0Z" transform="translate(11.71)"/><path class="cls-9" d="M438.11,307.56a.53.53,0,1,1,1.06,0,.51.51,0,0,1-.53.55A.52.52,0,0,1,438.11,307.56Z" transform="translate(11.71)"/><path class="cls-9" d="M439.94,307.56a.53.53,0,1,1,1.06,0,.53.53,0,1,1-1.06,0Z" transform="translate(11.71)"/><path class="cls-9" d="M441.77,307.56a.52.52,0,0,1,.53-.56.52.52,0,0,1,.52.56.53.53,0,1,1-1.05,0Z" transform="translate(11.71)"/><path class="cls-9" d="M443.6,307.56a.52.52,0,0,1,.53-.56.52.52,0,0,1,.52.56.53.53,0,1,1-1,0Z" transform="translate(11.71)"/><path class="cls-9" d="M445.43,307.56A.52.52,0,0,1,446,307a.52.52,0,0,1,.52.56.53.53,0,1,1-1.05,0Z" transform="translate(11.71)"/><path class="cls-9" d="M447.26,307.56a.52.52,0,0,1,.53-.56.52.52,0,0,1,.52.56.53.53,0,1,1-1.05,0Z" transform="translate(11.71)"/><path class="cls-9" d="M449.09,307.56a.52.52,0,0,1,.53-.56.52.52,0,0,1,.52.56.53.53,0,1,1-1.05,0Z" transform="translate(11.71)"/><path class="cls-9" d="M450.92,307.56a.52.52,0,0,1,.53-.56.52.52,0,0,1,.52.56.53.53,0,1,1-1.05,0Z" transform="translate(11.71)"/><rect class="cls-10" x="674.4" y="223.88" width="1.22" height="3.04"/><path class="cls-10" d="M663.91,445.48h-1.22v-6.07h1.22Zm0-12.14h-1.22v-6.07h1.22Zm0-12.14h-1.22v-6.07h1.22Zm0-12.14h-1.22V403h1.22Zm0-12.15h-1.22v-6.07h1.22Zm0-12.14h-1.22V378.7h1.22Zm0-12.14h-1.22v-6.07h1.22Zm0-12.14h-1.22v-6.07h1.22Zm0-12.14h-1.22v-6.08h1.22Zm0-12.15h-1.22v-6.07h1.22Zm0-12.14h-1.22V318h1.22Zm0-12.14h-1.22v-6.07h1.22Zm0-12.14h-1.22V293.7h1.22Zm0-12.14h-1.22v-6.08h1.22Zm0-12.15h-1.22v-6.07h1.22Zm0-12.14h-1.22v-6.07h1.22Zm0-12.14h-1.22v-6.07h1.22Zm0-12.14h-1.22V233h1.22Z" transform="translate(11.71)"/><rect class="cls-10" x="674.4" y="451.55" width="1.22" height="3.04"/><path class="cls-4" d="M355.67,239.7q2.13,6.5,4.28,13a15.5,15.5,0,0,0,8.62-12.88Z" transform="translate(11.71)"/><path class="cls-5" d="M337.12,239.6a9.32,9.32,0,0,1,1.49-3.95,10.11,10.11,0,0,1,7.63-4.1,9.53,9.53,0,0,1,6.51,2.24,8.56,8.56,0,0,1,1.8,2.28l13.85.31a15.76,15.76,0,1,0-15.58,18,16.15,16.15,0,0,0,4-.49l-4.67-14.13Z" transform="translate(11.71)"/><path class="cls-4" d="M339.2,239.61q6.45,0,12.91.13l4.67,14.13a15.77,15.77,0,0,1-4,.49,16.08,16.08,0,0,1-7.35-1.78,15.76,15.76,0,0,1-4.52-3.5A15.57,15.57,0,0,1,338.3,245a14.87,14.87,0,0,1-1.24-5.42Z" transform="translate(11.71)"/><path class="cls-4" d="M138.63,157.21q4,5.58,7.91,11.17A15.51,15.51,0,0,0,151,153.53Z" transform="translate(11.71)"/><path class="cls-5" d="M120.87,162.58a9.25,9.25,0,0,1,.27-4.21,10.13,10.13,0,0,1,6.08-6.17,9.5,9.5,0,0,1,6.88.23,8.49,8.49,0,0,1,2.39,1.64l13.33-3.78a15.76,15.76,0,1,0-9.6,21.78,16.24,16.24,0,0,0,3.64-1.64l-8.62-12.13Z" transform="translate(11.71)"/><path class="cls-4" d="M122.86,162q6.18-1.87,12.38-3.67l8.62,12.13a16.05,16.05,0,0,1-11.19,2.1,16.06,16.06,0,0,1-9.08-5.12,15,15,0,0,1-2.78-4.81Z" transform="translate(11.71)"/><path class="cls-9" d="M45.21,207.48a13.78,13.78,0,0,0,2.15,4.23,12,12,0,0,0,2.34,2.41l-4.3,4.23a13.34,13.34,0,0,1-3.18-3.18A19.86,19.86,0,0,1,39.14,209a18.11,18.11,0,0,1-.89-7A17.7,17.7,0,0,1,40,195.56a16.86,16.86,0,0,1,10.13-8.71A17.42,17.42,0,0,1,57,186a16.77,16.77,0,0,1,6.42,1.9,17.64,17.64,0,0,1,5.23,4.25,18.21,18.21,0,0,1,3.39,6.18,20,20,0,0,1,1.1,6.79,13.4,13.4,0,0,1-.71,4.45l-6-.92a11.66,11.66,0,0,0,.48-3.32,13.51,13.51,0,0,0-.73-4.69A12.5,12.5,0,0,0,64,196.4a10.06,10.06,0,0,0-3.37-2.63,10.63,10.63,0,0,0-4-1,12,12,0,0,0-4.28.59,12.24,12.24,0,0,0-3.85,2,10.42,10.42,0,0,0-2.68,3.2,10.11,10.11,0,0,0-1.19,4.11A12.37,12.37,0,0,0,45.21,207.48Z" transform="translate(11.71)"/><path class="cls-9" d="M77.88,218.27,84.26,238l-5.32,1.72L74.49,226l-7.94,2.57,4.38,13.56-5.15,1.67L61.39,230.2l-8,2.6,4.45,13.75-5.32,1.72L46.1,228.55Z" transform="translate(11.71)"/><path class="cls-9" d="M87.74,248.75l2,6-26.46,8.56,3.86,11.92L61.77,277,56,259Z" transform="translate(11.71)"/><path class="cls-9" d="M107,308.37,75.25,318.65l-1.94-6,20.35-6.59,4.71-1.2-5.6.61-19.47-.59L71.38,299l15.45-11.86,4.91-2.76-4.54,1.76L66.85,292.7l-1.94-6,31.78-10.29,2.69,8.33-20.3,14.61-2,1.08,2.29-.31,25,0Z" transform="translate(11.71)"/><path class="cls-9" d="M88.75,360.35,86.38,353l22.12-13.67.36,1.11-25.95,1.85L80.53,335,110,317.66l2.23,6.89L89.75,336.49l0-.07L115.65,335l1.55,4.79L95.37,353.85l0-.1,25.26-3.49,2.23,6.89Z" transform="translate(11.71)"/><path class="cls-9" d="M254.51,268a13.84,13.84,0,0,0,.74,4.68,11.74,11.74,0,0,0,1.49,3l-5.39,2.71a13.22,13.22,0,0,1-2-4,19.68,19.68,0,0,1-1-6.8,18.14,18.14,0,0,1,1.3-6.9,17.39,17.39,0,0,1,3.65-5.65,16.9,16.9,0,0,1,12.31-5.16,17.29,17.29,0,0,1,6.84,1.35,16.88,16.88,0,0,1,5.53,3.79,17.61,17.61,0,0,1,3.67,5.65,18.1,18.1,0,0,1,1.32,6.92,19.93,19.93,0,0,1-1,6.8,13.45,13.45,0,0,1-2,4l-5.39-2.71a11.78,11.78,0,0,0,1.48-3,13.6,13.6,0,0,0,.75-4.68,12.49,12.49,0,0,0-.86-4.77,10.14,10.14,0,0,0-2.4-3.54,10.46,10.46,0,0,0-3.53-2.22,11.78,11.78,0,0,0-4.25-.76,12,12,0,0,0-4.29.76,10.5,10.5,0,0,0-3.54,2.22,10.11,10.11,0,0,0-2.39,3.54A12.3,12.3,0,0,0,254.51,268Z" transform="translate(11.71)"/><path class="cls-9" d="M282.27,288.27V309h-5.59V294.55h-8.35v14.24h-5.42V294.55h-8.45V309h-5.59V288.27Z" transform="translate(11.71)"/><path class="cls-9" d="M282.27,320.31v6.32H254.46v12.53h-5.59V320.31Z" transform="translate(11.71)"/><path class="cls-9" d="M282.27,383h-33.4v-6.31h21.38l4.86.31-5.52-1.14-18.35-6.55v-6.23l18.35-6.53,5.52-1.11-4.86.28H248.87v-6.33h33.4v8.76l-23.81,7.64-2.28.4,2.28.41,23.81,7.67Z" transform="translate(11.71)"/><path class="cls-9" d="M248.87,426.8v-7.7l25.25-6.2v1.17l-25.25-6.23v-7.72l33.4-7.39V400l-25.1,4.43v-.08l25.1,6.63v5l-25.1,6.66v-.11l25.1,4.46v7.24Z" transform="translate(11.71)"/></g></g></svg>