<svg xmlns="http://www.w3.org/2000/svg" viewBox="0 0 375.54 369.19"><defs><style>.cls-1{fill:#fa0;}.cls-2{fill:#233542;}</style></defs><g id="Layer_2" data-name="Layer 2"><g id="Layer_6" data-name="Layer 6"><path class="cls-1" d="M221.84,194.55q25.49,77.4,51,154.79C330.73,320.5,371.38,263.08,375.54,196Z"/><path class="cls-2" d="M1,193.37a110.3,110.3,0,0,1,17.78-47C50,100.42,105,97.67,109.6,97.52c10.25-.34,47.28-.18,77.44,26.7a103.13,103.13,0,0,1,21.55,27.09L373.48,155C359.05,67.11,281.49,0,188,0,84.15,0,0,82.65,0,184.6S84.15,369.19,188,369.19a191.47,191.47,0,0,0,47.13-5.85L179.46,195Z"/><path class="cls-1" d="M25.75,193.45q76.86.33,153.71,1.56l55.62,168.33A191.83,191.83,0,0,1,100.37,348a190.27,190.27,0,0,1-53.75-41.69A185.43,185.43,0,0,1,15,257.87,177.84,177.84,0,0,1,.21,193.36Q13,193.4,25.75,193.45Z"/></g></g></svg>